<?xml version="1.0" encoding="UTF-8" standalone="no"?>
<svg
   xmlns:dc="http://purl.org/dc/elements/1.1/"
   xmlns:cc="http://creativecommons.org/ns#"
   xmlns:rdf="http://www.w3.org/1999/02/22-rdf-syntax-ns#"
   xmlns:svg="http://www.w3.org/2000/svg"
   xmlns="http://www.w3.org/2000/svg"
   xmlns:sodipodi="http://sodipodi.sourceforge.net/DTD/sodipodi-0.dtd"
   xmlns:inkscape="http://www.inkscape.org/namespaces/inkscape"
   width="30mm"
   height="40mm"
   viewBox="0 0 30 40"
   version="1.1"
   id="svg1263"
   inkscape:version="1.0.2 (1.0.2+r75+1)"
   sodipodi:docname="cascade.svg">
  <defs
     id="defs1257" />
  <sodipodi:namedview
     id="base"
     pagecolor="#ffffff"
     bordercolor="#666666"
     borderopacity="1.0"
     inkscape:pageopacity="0.0"
     inkscape:pageshadow="2"
     inkscape:zoom="2.8284271"
     inkscape:cx="112.7537"
     inkscape:cy="49.676025"
     inkscape:document-units="mm"
     inkscape:current-layer="layer1"
     inkscape:document-rotation="0"
     showgrid="false"
     inkscape:window-width="1920"
     inkscape:window-height="1025"
     inkscape:window-x="0"
     inkscape:window-y="27"
     inkscape:window-maximized="1" />
  <metadata
     id="metadata1260">
    <rdf:RDF>
      <cc:Work
         rdf:about="">
        <dc:format>image/svg+xml</dc:format>
        <dc:type
           rdf:resource="http://purl.org/dc/dcmitype/StillImage" />
        <dc:title></dc:title>
      </cc:Work>
    </rdf:RDF>
  </metadata>
  <g
     inkscape:label="Layer 1"
     inkscape:groupmode="layer"
     id="layer1">
    <g
       id="g2306"
       transform="translate(0.21489261,0.00414476)">
      <g
         id="g997"
         transform="matrix(0.35277777,0,0,0.35277777,1.4571552,-0.00408376)">
        <path
           d="m 45.855,82.695 c 2.094,16.387 25.809,16.34 27.637,-0.523"
           style="fill:none;stroke:#000000;stroke-width:1.41732;stroke-linecap:round;stroke-linejoin:miter;stroke-miterlimit:4;stroke-dasharray:none;stroke-opacity:1"
           id="path999" />
      </g>
      <g
         id="g1001"
         transform="matrix(0.04511534,0.35277777,-0.35277777,0.04511534,1.4571552,-0.00408376)">
        <path
           d="m 89.843,-33.01 -4.608,-1.695 4.608,-1.696 c -0.738,1 -0.733,2.371 0,3.391 z"
           style="fill:#000000;fill-opacity:1;fill-rule:evenodd;stroke:#000000;stroke-width:0.263601;stroke-linecap:butt;stroke-linejoin:round;stroke-miterlimit:4;stroke-dasharray:none;stroke-opacity:1"
           id="path1003" />
      </g>
      <g
         id="g1005"
         transform="matrix(0.35277777,0,0,0.35277777,1.4571552,-0.00408376)">
        <path
           d="M 73.207,78.641 C 70.609,63.746 48.699,62.367 45.934,79.18"
           style="fill:none;stroke:#000000;stroke-width:1.41732;stroke-linecap:round;stroke-linejoin:miter;stroke-miterlimit:4;stroke-dasharray:none;stroke-opacity:1"
           id="path1007" />
      </g>
      <g
         id="g1009"
         transform="matrix(-0.06153608,-0.35277777,0.35277777,-0.06153608,1.4571552,-0.00408376)">
        <path
           d="m -86.021,59.421 -4.578,-1.682 4.575,-1.686 c -0.728,0.994 -0.727,2.354 0.003,3.368 z"
           style="fill:#000000;fill-opacity:1;fill-rule:evenodd;stroke:#000000;stroke-width:0.261795;stroke-linecap:butt;stroke-linejoin:round;stroke-miterlimit:4;stroke-dasharray:none;stroke-opacity:1"
           id="path1011" />
      </g>
      <g
         id="g1013"
         transform="matrix(0.35277777,0,0,0.35277777,1.4571552,-0.00408376)">
        <path
           d="M 72.996,71.645 C 66.492,-7.043 36.371,-6.816 32.254,74.992"
           style="fill:none;stroke:#6e0000;stroke-width:1.41732;stroke-linecap:round;stroke-linejoin:miter;stroke-miterlimit:4;stroke-dasharray:none;stroke-opacity:1"
           id="path1015" />
      </g>
      <g
         id="g1017"
         transform="matrix(-0.02915832,-0.35277777,0.35277777,-0.02915832,1.4571552,-0.00408376)">
        <path
           d="m -74.429,68.329 -4.633,-1.704 4.63,-1.703 c -0.74,1.005 -0.732,2.381 0.003,3.407 z"
           style="fill:#6e0000;fill-opacity:1;fill-rule:evenodd;stroke:#6e0000;stroke-width:0.264845;stroke-linecap:butt;stroke-linejoin:round;stroke-miterlimit:4;stroke-dasharray:none;stroke-opacity:1"
           id="path1019" />
      </g>
      <g
         id="g1021"
         transform="matrix(0.35277777,0,0,0.35277777,1.4571552,-0.00408376)">
        <path
           d="M 31.453,83.098 C 29.262,99.469 5.586,99.297 3.855,82.426"
           style="fill:none;stroke:#000000;stroke-width:1.41732;stroke-linecap:round;stroke-linejoin:miter;stroke-miterlimit:4;stroke-dasharray:none;stroke-opacity:1"
           id="path1023" />
      </g>
      <g
         id="g1025"
         transform="matrix(-0.04719849,0.35277777,-0.35277777,-0.04719849,1.4571552,-0.00408376)">
        <path
           d="m 80.206,-40.122 -4.605,-1.692 4.605,-1.694 c -0.737,1.001 -0.73,2.367 0,3.386 z"
           style="fill:#000000;fill-opacity:1;fill-rule:evenodd;stroke:#000000;stroke-width:0.263401;stroke-linecap:butt;stroke-linejoin:round;stroke-miterlimit:4;stroke-dasharray:none;stroke-opacity:1"
           id="path1027" />
      </g>
      <g
         id="g1029"
         transform="matrix(0.35277777,0,0,0.35277777,1.4571552,-0.00408376)">
        <path
           d="M 4.238,79.176 C 6.926,64.297 28.84,63.043 31.508,79.871"
           style="fill:none;stroke:#000000;stroke-width:1.41732;stroke-linecap:round;stroke-linejoin:miter;stroke-miterlimit:4;stroke-dasharray:none;stroke-opacity:1"
           id="path1031" />
      </g>
      <g
         id="g1033"
         transform="matrix(0.06364852,-0.35277777,0.35277777,0.06364852,1.4571552,-0.00408376)">
        <path
           d="m -73.251,19.63 -4.573,-1.683 4.571,-1.68 c -0.731,0.991 -0.724,2.35 0.002,3.363 z"
           style="fill:#000000;fill-opacity:1;fill-rule:evenodd;stroke:#000000;stroke-width:0.261526;stroke-linecap:butt;stroke-linejoin:round;stroke-miterlimit:4;stroke-dasharray:none;stroke-opacity:1"
           id="path1035" />
      </g>
      <g
         id="g1037"
         transform="matrix(0.35277777,0,0,0.35277777,1.4571552,-0.00408376)">
        <path
           d="M 4.371,72.352 C 8.809,-6.164 38.828,-5.43 45.324,74.621"
           style="fill:none;stroke:#6e0000;stroke-width:1.41732;stroke-linecap:round;stroke-linejoin:miter;stroke-miterlimit:4;stroke-dasharray:none;stroke-opacity:1"
           id="path1039" />
      </g>
      <g
         id="g1041"
         transform="matrix(0.01994189,-0.35277777,0.35277777,0.01994189,1.4571552,-0.00408376)">
        <path
           d="m -69.153,10.147 -4.635,-1.706 4.638,-1.704 c -0.744,1.007 -0.737,2.385 -0.003,3.41 z"
           style="fill:#6e0000;fill-opacity:1;fill-rule:evenodd;stroke:#6e0000;stroke-width:0.265324;stroke-linecap:butt;stroke-linejoin:round;stroke-miterlimit:4;stroke-dasharray:none;stroke-opacity:1"
           id="path1043" />
      </g>
      <g
         id="g1097"
         transform="matrix(0.35277777,0,0,0.35277777,1.4571552,-0.00408376)">
        <path
           d="m 44.57,7.762 v 17.25"
           style="fill:none;stroke:#000000;stroke-width:0.749999;stroke-linecap:butt;stroke-linejoin:miter;stroke-miterlimit:4;stroke-dasharray:none;stroke-opacity:1"
           id="path1099" />
      </g>
      <g
         id="g1101"
         transform="matrix(0.35277777,0,0,0.35277777,1.4571552,-0.00408376)">
        <path
           d="m 61.098,7.434 v 21.14"
           style="fill:none;stroke:#000000;stroke-width:0.749999;stroke-linecap:butt;stroke-linejoin:miter;stroke-miterlimit:4;stroke-dasharray:none;stroke-opacity:1"
           id="path1103" />
      </g>
      <g
         id="g1105"
         transform="matrix(0.35277777,0,0,0.35277777,1.4571552,-0.00408376)">
        <path
           d="m 46.289,10.188 13.094,0.031"
           style="fill:none;stroke:#000000;stroke-width:0.751181;stroke-linecap:round;stroke-linejoin:miter;stroke-miterlimit:4;stroke-dasharray:none;stroke-opacity:1"
           id="path1107" />
      </g>
      <g
         id="g1109"
         transform="matrix(0.35277777,8.6141629e-4,-8.6141629e-4,0.35277777,1.4571552,-0.00408376)">
        <path
           d="m 47.216,10.076 0.748,-0.752 -2.627,0.753 2.627,0.747 z"
           style="fill:#000000;fill-opacity:1;fill-rule:evenodd;stroke:#000000;stroke-width:0.200314;stroke-linecap:butt;stroke-linejoin:miter;stroke-miterlimit:4;stroke-dasharray:none;stroke-opacity:1"
           id="path1111" />
      </g>
      <g
         id="g1113"
         transform="matrix(-0.35277777,-8.6141629e-4,8.6141629e-4,-0.35277777,1.4571552,-0.00408376)">
        <path
           d="m -58.505,-10.076 0.752,-0.752 -2.631,0.753 2.631,0.751 z"
           style="fill:#000000;fill-opacity:1;fill-rule:evenodd;stroke:#000000;stroke-width:0.200314;stroke-linecap:butt;stroke-linejoin:miter;stroke-miterlimit:4;stroke-dasharray:none;stroke-opacity:1"
           id="path1115" />
      </g>
      <g
         id="g1125"
         transform="matrix(0.35277777,0,0,0.35277777,1.4571552,-0.00408376)">
        <path
           d="m 32.246,86.852 v 18.984"
           style="fill:none;stroke:#6e0000;stroke-width:0.749999;stroke-linecap:butt;stroke-linejoin:miter;stroke-miterlimit:4;stroke-dasharray:none;stroke-opacity:1"
           id="path1127" />
      </g>
      <g
         id="g1129"
         transform="matrix(0.35277777,0,0,0.35277777,1.4571552,-0.00408376)">
        <path
           d="m 73.652,87.117 v 18.719"
           style="fill:none;stroke:#6e0000;stroke-width:0.749999;stroke-linecap:butt;stroke-linejoin:miter;stroke-miterlimit:4;stroke-dasharray:none;stroke-opacity:1"
           id="path1131" />
      </g>
      <g
         id="g1133"
         transform="matrix(0.35277777,0,0,0.35277777,1.4571552,-0.00408376)">
        <path
           d="m 33.992,101.75 37.918,0.047"
           style="fill:none;stroke:#6e0000;stroke-width:0.751181;stroke-linecap:round;stroke-linejoin:miter;stroke-miterlimit:4;stroke-dasharray:none;stroke-opacity:1"
           id="path1135" />
      </g>
      <g
         id="g1137"
         transform="matrix(0.35277777,4.5176721e-4,-4.5176721e-4,0.35277777,1.4571552,-0.00408376)">
        <path
           d="m 35.025,101.705 0.749,-0.751 -2.628,0.75 2.63,0.75 z"
           style="fill:#6e0000;fill-opacity:1;fill-rule:evenodd;stroke:#6e0000;stroke-width:0.200315;stroke-linecap:butt;stroke-linejoin:miter;stroke-miterlimit:4;stroke-dasharray:none;stroke-opacity:1"
           id="path1139" />
      </g>
      <g
         id="g1141"
         transform="matrix(-0.35277777,-4.5176721e-4,4.5176721e-4,-0.35277777,1.4571552,-0.00408376)">
        <path
           d="m -71.138,-101.706 0.749,-0.751 -2.628,0.754 2.63,0.75 z"
           style="fill:#6e0000;fill-opacity:1;fill-rule:evenodd;stroke:#6e0000;stroke-width:0.200315;stroke-linecap:butt;stroke-linejoin:miter;stroke-miterlimit:4;stroke-dasharray:none;stroke-opacity:1"
           id="path1143" />
      </g>
      <text
         style="font-style:italic;font-variant:normal;font-size:3.43257px;font-family:'Times New Roman';-inkscape-font-specification:TimesNewRomanPS-ItalicMT;writing-mode:lr-tb;fill:#000000;fill-opacity:1;fill-rule:nonzero;stroke:none;stroke-width:0.352778"
         id="text1171"
         x="18.869226"
         y="38.807209"><tspan
           x="18.869226"
           y="38.807209"
           id="tspan1169"
           style="stroke-width:0.352778">d</tspan></text>
      <text
         style="font-style:italic;font-variant:normal;font-size:2.23117px;font-family:'Times New Roman';-inkscape-font-specification:TimesNewRomanPS-ItalicMT;writing-mode:lr-tb;fill:#000000;fill-opacity:1;fill-rule:nonzero;stroke:none;stroke-width:0.352778"
         id="text1175"
         x="20.585512"
         y="39.493717"><tspan
           x="20.585512"
           y="39.493717"
           id="tspan1173"
           style="stroke-width:0.352778">f</tspan></text>
      <text
         style="font-style:italic;font-variant:normal;font-size:3.43257px;font-family:'Times New Roman';-inkscape-font-specification:TimesNewRomanPS-ItalicMT;writing-mode:lr-tb;fill:#000000;fill-opacity:1;fill-rule:nonzero;stroke:none;stroke-width:0.352778"
         id="text1179"
         x="18.765429"
         y="2.3998182"><tspan
           x="18.765429"
           y="2.3998182"
           id="tspan1177"
           style="stroke-width:0.352778">d</tspan></text>
      <text
         style="font-style:italic;font-variant:normal;font-size:2.23117px;font-family:'Times New Roman';-inkscape-font-specification:TimesNewRomanPS-ItalicMT;writing-mode:lr-tb;fill:#000000;fill-opacity:1;fill-rule:nonzero;stroke:none;stroke-width:0.352778"
         id="text1183"
         x="20.481714"
         y="3.0863338"><tspan
           x="20.481714"
           y="3.0863338"
           id="tspan1181"
           style="stroke-width:0.352778">b</tspan></text>
      <g
         id="g1221"
         transform="matrix(0.35277777,0,0,0.35277777,1.4571552,-0.00408376)">
        <path
           d="m 8.316,62.789 c 0,1.953 -1.578,3.535 -3.527,3.543 C 2.84,66.344 1.246,64.773 1.23,62.82 1.211,60.871 2.773,59.273 4.727,59.246 c 1.949,-0.023 3.554,1.531 3.589,3.481"
           style="fill:#aa0000;fill-opacity:1;fill-rule:nonzero;stroke:#880000;stroke-width:0.566929;stroke-linecap:round;stroke-linejoin:miter;stroke-miterlimit:4;stroke-dasharray:none;stroke-opacity:1"
           id="path1223" />
      </g>
      <g
         id="g1241"
         transform="matrix(0.35277777,0,0,0.35277777,1.4571552,-0.00408376)">
        <path
           d="m 68.082,28.527 c 0,1.95 -1.578,3.535 -3.527,3.543 -1.953,0.008 -3.543,-1.558 -3.563,-3.511 -0.015,-1.95 1.547,-3.547 3.496,-3.575 1.953,-0.027 3.559,1.532 3.59,3.481"
           style="fill:#aa0000;fill-opacity:1;fill-rule:nonzero;stroke:#880000;stroke-width:0.566929;stroke-linecap:round;stroke-linejoin:miter;stroke-miterlimit:4;stroke-dasharray:none;stroke-opacity:1"
           id="path1243" />
      </g>
      <g
         id="g1245"
         transform="matrix(0.35277777,0,0,0.35277777,1.4571552,-0.00408376)">
        <path
           d="m 53.543,90.867 c 0,1.949 -1.578,3.535 -3.527,3.543 -1.954,0.008 -3.543,-1.562 -3.563,-3.512 -0.015,-1.949 1.547,-3.546 3.496,-3.574 1.953,-0.027 3.559,1.528 3.59,3.481"
           style="fill:#aa0000;fill-opacity:1;fill-rule:nonzero;stroke:#880000;stroke-width:0.566929;stroke-linecap:round;stroke-linejoin:miter;stroke-miterlimit:4;stroke-dasharray:none;stroke-opacity:1"
           id="path1247" />
      </g>
      <g
         id="g1249"
         transform="matrix(0.35277777,0,0,0.35277777,1.4571552,-0.00408376)">
        <path
           d="m 44.656,25.117 c 0,1.949 -1.578,3.535 -3.527,3.543 -1.953,0.008 -3.543,-1.562 -3.559,-3.512 -0.019,-1.949 1.543,-3.546 3.496,-3.574 1.95,-0.027 3.555,1.528 3.59,3.481"
           style="fill:#aa0000;fill-opacity:1;fill-rule:nonzero;stroke:#880000;stroke-width:0.566929;stroke-linecap:round;stroke-linejoin:miter;stroke-miterlimit:4;stroke-dasharray:none;stroke-opacity:1"
           id="path1251" />
      </g>
      <g
         id="g1253"
         transform="matrix(0.35277777,0,0,0.35277777,1.4571552,-0.00408376)">
        <path
           d="m 28.305,13.879 c 0,1.953 -1.575,3.535 -3.528,3.547 -1.949,0.008 -3.539,-1.563 -3.558,-3.512 -0.016,-1.953 1.547,-3.551 3.496,-3.578 1.953,-0.024 3.555,1.531 3.59,3.48"
           style="fill:#aa0000;fill-opacity:1;fill-rule:nonzero;stroke:#880000;stroke-width:0.566929;stroke-linecap:round;stroke-linejoin:miter;stroke-miterlimit:4;stroke-dasharray:none;stroke-opacity:1"
           id="path1255" />
      </g>
    </g>
  </g>
</svg>
