<?xml version="1.0" encoding="UTF-8" standalone="no"?>
<svg
   xmlns:dc="http://purl.org/dc/elements/1.1/"
   xmlns:cc="http://creativecommons.org/ns#"
   xmlns:rdf="http://www.w3.org/1999/02/22-rdf-syntax-ns#"
   xmlns:svg="http://www.w3.org/2000/svg"
   xmlns="http://www.w3.org/2000/svg"
   xmlns:xlink="http://www.w3.org/1999/xlink"
   xmlns:sodipodi="http://sodipodi.sourceforge.net/DTD/sodipodi-0.dtd"
   xmlns:inkscape="http://www.inkscape.org/namespaces/inkscape"
   height="144pt"
   version="1.1"
   viewBox="0 0 288 144"
   width="288pt"
   id="svg2781"
   sodipodi:docname="catches_over_noise_only_col.svg"
   inkscape:version="1.0.2 (1.0.2+r75+1)">
  <sodipodi:namedview
     pagecolor="#ffffff"
     bordercolor="#666666"
     borderopacity="1"
     objecttolerance="10"
     gridtolerance="10"
     guidetolerance="10"
     inkscape:pageopacity="0"
     inkscape:pageshadow="2"
     inkscape:window-width="2560"
     inkscape:window-height="1412"
     id="namedview2783"
     showgrid="false"
     inkscape:zoom="3.6067708"
     inkscape:cx="192"
     inkscape:cy="96"
     inkscape:window-x="1920"
     inkscape:window-y="0"
     inkscape:window-maximized="1"
     inkscape:current-layer="text_17" />
  <metadata
     id="metadata2228">
    <rdf:RDF>
      <cc:Work>
        <dc:type
           rdf:resource="http://purl.org/dc/dcmitype/StillImage" />
        <dc:date>2022-09-16T14:10:08.503822</dc:date>
        <dc:format>image/svg+xml</dc:format>
        <dc:creator>
          <cc:Agent>
            <dc:title>Matplotlib v3.3.4, https://matplotlib.org/</dc:title>
          </cc:Agent>
        </dc:creator>
        <dc:title></dc:title>
      </cc:Work>
    </rdf:RDF>
  </metadata>
  <defs
     id="defs2232">
    <style
       type="text/css"
       id="style2230">*{stroke-linecap:butt;stroke-linejoin:round;}</style>
  </defs>
  <g
     id="figure_1">
    <g
       id="patch_1">
      <path
         d="M 0 144  L 288 144  L 288 0  L 0 0  z "
         style="fill:#ffffff;"
         id="path2234" />
    </g>
    <g
       id="axes_1">
      <g
         id="patch_2">
        <path
           d="M 35.424 112.32  L 287.424 112.32  L 287.424 0.288  L 35.424 0.288  z "
           style="fill:#ffffff;"
           id="path2237" />
      </g>
      <g
         id="matplotlib.axis_1">
        <g
           id="xtick_1">
          <g
             id="line2d_1">
            <defs
               id="defs2241">
              <path
                 d="M 0 0  L 0 3.5  "
                 id="m4fc737ac3e"
                 style="stroke:#000000;stroke-width:0.8;" />
            </defs>
            <g
               id="g2245">
              <use
                 style="stroke:#000000;stroke-width:0.8;"
                 x="35.424"
                 xlink:href="#m4fc737ac3e"
                 y="112.32"
                 id="use2243" />
            </g>
          </g>
          <g
             id="text_1">
            <!-- 0.00 -->
            <g
               transform="translate(26.674 126.26375)scale(0.1 -0.1)"
               id="g2260">
              <defs
                 id="defs2250">
                <path
                   d="M 3.609375 32.71875  Q 3.609375 44.046875 7.03125 52.21875  Q 10.453125 60.40625 16.109375 64.40625  Q 20.515625 67.578125 25.203125 67.578125  Q 32.8125 67.578125 38.875 59.8125  Q 46.4375 50.203125 46.4375 33.734375  Q 46.4375 22.21875 43.109375 14.15625  Q 39.796875 6.109375 34.640625 2.46875  Q 29.5 -1.171875 24.703125 -1.171875  Q 15.234375 -1.171875 8.9375 10.015625  Q 3.609375 19.4375 3.609375 32.71875  z M 13.1875 31.5  Q 13.1875 17.828125 16.546875 9.1875  Q 19.34375 1.90625 24.859375 1.90625  Q 27.484375 1.90625 30.3125 4.265625  Q 33.15625 6.640625 34.625 12.203125  Q 36.859375 20.609375 36.859375 35.890625  Q 36.859375 47.21875 34.515625 54.78125  Q 32.765625 60.40625 29.984375 62.75  Q 27.984375 64.359375 25.140625 64.359375  Q 21.828125 64.359375 19.234375 61.375  Q 15.71875 57.328125 14.453125 48.625  Q 13.1875 39.9375 13.1875 31.5  z "
                   id="TimesNewRomanPSMT-48" />
                <path
                   d="M 12.5 9.46875  Q 14.796875 9.46875 16.359375 7.875  Q 17.921875 6.296875 17.921875 4.046875  Q 17.921875 1.8125 16.328125 0.21875  Q 14.75 -1.375 12.5 -1.375  Q 10.25 -1.375 8.65625 0.21875  Q 7.078125 1.8125 7.078125 4.046875  Q 7.078125 6.34375 8.65625 7.90625  Q 10.25 9.46875 12.5 9.46875  z "
                   id="TimesNewRomanPSMT-46" />
              </defs>
              <use
                 xlink:href="#TimesNewRomanPSMT-48"
                 id="use2252" />
              <use
                 x="50"
                 xlink:href="#TimesNewRomanPSMT-46"
                 id="use2254" />
              <use
                 x="75"
                 xlink:href="#TimesNewRomanPSMT-48"
                 id="use2256" />
              <use
                 x="125"
                 xlink:href="#TimesNewRomanPSMT-48"
                 id="use2258" />
            </g>
          </g>
        </g>
        <g
           id="xtick_2">
          <g
             id="line2d_2">
            <g
               id="g2266">
              <use
                 style="stroke:#000000;stroke-width:0.8;"
                 x="96.146892"
                 xlink:href="#m4fc737ac3e"
                 y="112.32"
                 id="use2264" />
            </g>
          </g>
          <g
             id="text_2">
            <!-- 0.02 -->
            <g
               transform="translate(87.396892 126.26375)scale(0.1 -0.1)"
               id="g2280">
              <defs
                 id="defs2270">
                <path
                   d="M 45.84375 12.75  L 41.21875 0  L 2.15625 0  L 2.15625 1.8125  Q 19.390625 17.53125 26.421875 27.484375  Q 33.453125 37.453125 33.453125 45.703125  Q 33.453125 52 29.59375 56.046875  Q 25.734375 60.109375 20.359375 60.109375  Q 15.484375 60.109375 11.59375 57.25  Q 7.71875 54.390625 5.859375 48.875  L 4.046875 48.875  Q 5.28125 57.90625 10.328125 62.734375  Q 15.375 67.578125 22.953125 67.578125  Q 31 67.578125 36.390625 62.40625  Q 41.796875 57.234375 41.796875 50.203125  Q 41.796875 45.171875 39.453125 40.140625  Q 35.84375 32.234375 27.734375 23.390625  Q 15.578125 10.109375 12.546875 7.375  L 29.828125 7.375  Q 35.109375 7.375 37.234375 7.765625  Q 39.359375 8.15625 41.0625 9.34375  Q 42.78125 10.546875 44.046875 12.75  z "
                   id="TimesNewRomanPSMT-50" />
              </defs>
              <use
                 xlink:href="#TimesNewRomanPSMT-48"
                 id="use2272" />
              <use
                 x="50"
                 xlink:href="#TimesNewRomanPSMT-46"
                 id="use2274" />
              <use
                 x="75"
                 xlink:href="#TimesNewRomanPSMT-48"
                 id="use2276" />
              <use
                 x="125"
                 xlink:href="#TimesNewRomanPSMT-50"
                 id="use2278" />
            </g>
          </g>
        </g>
        <g
           id="xtick_3">
          <g
             id="line2d_3">
            <g
               id="g2286">
              <use
                 style="stroke:#000000;stroke-width:0.8;"
                 x="156.869783"
                 xlink:href="#m4fc737ac3e"
                 y="112.32"
                 id="use2284" />
            </g>
          </g>
          <g
             id="text_3">
            <!-- 0.04 -->
            <g
               transform="translate(148.119783 126.26375)scale(0.1 -0.1)"
               id="g2300">
              <defs
                 id="defs2290">
                <path
                   d="M 46.53125 24.421875  L 46.53125 17.484375  L 37.640625 17.484375  L 37.640625 0  L 29.59375 0  L 29.59375 17.484375  L 1.5625 17.484375  L 1.5625 23.734375  L 32.28125 67.578125  L 37.640625 67.578125  L 37.640625 24.421875  z M 29.59375 24.421875  L 29.59375 57.28125  L 6.34375 24.421875  z "
                   id="TimesNewRomanPSMT-52" />
              </defs>
              <use
                 xlink:href="#TimesNewRomanPSMT-48"
                 id="use2292" />
              <use
                 x="50"
                 xlink:href="#TimesNewRomanPSMT-46"
                 id="use2294" />
              <use
                 x="75"
                 xlink:href="#TimesNewRomanPSMT-48"
                 id="use2296" />
              <use
                 x="125"
                 xlink:href="#TimesNewRomanPSMT-52"
                 id="use2298" />
            </g>
          </g>
        </g>
        <g
           id="xtick_4">
          <g
             id="line2d_4">
            <g
               id="g2306">
              <use
                 style="stroke:#000000;stroke-width:0.8;"
                 x="217.592675"
                 xlink:href="#m4fc737ac3e"
                 y="112.32"
                 id="use2304" />
            </g>
          </g>
          <g
             id="text_4">
            <!-- 0.06 -->
            <g
               transform="translate(208.842675 126.26375)scale(0.1 -0.1)"
               id="g2320">
              <defs
                 id="defs2310">
                <path
                   d="M 44.828125 67.578125  L 44.828125 65.765625  Q 38.375 65.140625 34.296875 63.203125  Q 30.21875 61.28125 26.234375 57.328125  Q 22.265625 53.375 19.65625 48.515625  Q 17.046875 43.65625 15.28125 36.96875  Q 22.3125 41.796875 29.390625 41.796875  Q 36.1875 41.796875 41.15625 36.328125  Q 46.140625 30.859375 46.140625 22.265625  Q 46.140625 13.96875 41.109375 7.125  Q 35.0625 -1.171875 25.09375 -1.171875  Q 18.3125 -1.171875 13.578125 3.328125  Q 4.296875 12.0625 4.296875 25.984375  Q 4.296875 34.859375 7.859375 42.859375  Q 11.421875 50.875 18.03125 57.078125  Q 24.65625 63.28125 30.703125 65.421875  Q 36.765625 67.578125 42 67.578125  z M 14.453125 33.40625  Q 13.578125 26.8125 13.578125 22.75  Q 13.578125 18.0625 15.3125 12.5625  Q 17.046875 7.078125 20.453125 3.859375  Q 22.953125 1.5625 26.515625 1.5625  Q 30.765625 1.5625 34.109375 5.5625  Q 37.453125 9.578125 37.453125 17  Q 37.453125 25.34375 34.125 31.4375  Q 30.8125 37.546875 24.703125 37.546875  Q 22.859375 37.546875 20.734375 36.765625  Q 18.609375 35.984375 14.453125 33.40625  z "
                   id="TimesNewRomanPSMT-54" />
              </defs>
              <use
                 xlink:href="#TimesNewRomanPSMT-48"
                 id="use2312" />
              <use
                 x="50"
                 xlink:href="#TimesNewRomanPSMT-46"
                 id="use2314" />
              <use
                 x="75"
                 xlink:href="#TimesNewRomanPSMT-48"
                 id="use2316" />
              <use
                 x="125"
                 xlink:href="#TimesNewRomanPSMT-54"
                 id="use2318" />
            </g>
          </g>
        </g>
        <g
           id="xtick_5">
          <g
             id="line2d_5">
            <g
               id="g2326">
              <use
                 style="stroke:#000000;stroke-width:0.8;"
                 x="278.315566"
                 xlink:href="#m4fc737ac3e"
                 y="112.32"
                 id="use2324" />
            </g>
          </g>
          <g
             id="text_5">
            <!-- 0.08 -->
            <g
               transform="translate(269.565566 126.26375)scale(0.1 -0.1)"
               id="g2340">
              <defs
                 id="defs2330">
                <path
                   d="M 19.1875 33.34375  Q 11.328125 39.796875 9.046875 43.703125  Q 6.78125 47.609375 6.78125 51.8125  Q 6.78125 58.25 11.765625 62.90625  Q 16.75 67.578125 25 67.578125  Q 33.015625 67.578125 37.890625 63.234375  Q 42.78125 58.890625 42.78125 53.328125  Q 42.78125 49.609375 40.140625 45.75  Q 37.5 41.890625 29.15625 36.671875  Q 37.75 30.03125 40.53125 26.21875  Q 44.234375 21.234375 44.234375 15.71875  Q 44.234375 8.734375 38.90625 3.78125  Q 33.59375 -1.171875 24.953125 -1.171875  Q 15.53125 -1.171875 10.25 4.734375  Q 6.0625 9.46875 6.0625 15.09375  Q 6.0625 19.484375 9.015625 23.796875  Q 11.96875 28.125 19.1875 33.34375  z M 26.859375 38.578125  Q 32.71875 43.84375 34.28125 46.890625  Q 35.84375 49.953125 35.84375 53.8125  Q 35.84375 58.9375 32.953125 61.84375  Q 30.078125 64.75 25.09375 64.75  Q 20.125 64.75 17 61.859375  Q 13.875 58.984375 13.875 55.125  Q 13.875 52.59375 15.15625 50.046875  Q 16.453125 47.515625 18.84375 45.21875  z M 21.484375 31.5  Q 17.4375 28.078125 15.484375 24.046875  Q 13.53125 20.015625 13.53125 15.328125  Q 13.53125 9.03125 16.96875 5.25  Q 20.40625 1.46875 25.734375 1.46875  Q 31 1.46875 34.171875 4.4375  Q 37.359375 7.421875 37.359375 11.671875  Q 37.359375 15.1875 35.5 17.96875  Q 32.03125 23.140625 21.484375 31.5  z "
                   id="TimesNewRomanPSMT-56" />
              </defs>
              <use
                 xlink:href="#TimesNewRomanPSMT-48"
                 id="use2332" />
              <use
                 x="50"
                 xlink:href="#TimesNewRomanPSMT-46"
                 id="use2334" />
              <use
                 x="75"
                 xlink:href="#TimesNewRomanPSMT-48"
                 id="use2336" />
              <use
                 x="125"
                 xlink:href="#TimesNewRomanPSMT-56"
                 id="use2338" />
            </g>
          </g>
        </g>
        <g
           id="text_6">
          <!-- Standard deviation of take-off disturbance [m/s] -->
          <g
             transform="translate(70.099312 138.999375)scale(0.095 -0.095)"
             id="g2464">
            <defs
               id="defs2366">
              <path
                 d="M 45.84375 67.71875  L 45.84375 44.828125  L 44.046875 44.828125  Q 43.171875 51.421875 40.890625 55.328125  Q 38.625 59.234375 34.421875 61.515625  Q 30.21875 63.8125 25.734375 63.8125  Q 20.65625 63.8125 17.328125 60.71875  Q 14.015625 57.625 14.015625 53.65625  Q 14.015625 50.640625 16.109375 48.140625  Q 19.140625 44.484375 30.515625 38.375  Q 39.796875 33.40625 43.1875 30.734375  Q 46.578125 28.078125 48.40625 24.453125  Q 50.25 20.84375 50.25 16.890625  Q 50.25 9.375 44.40625 3.921875  Q 38.578125 -1.515625 29.390625 -1.515625  Q 26.515625 -1.515625 23.96875 -1.078125  Q 22.46875 -0.828125 17.703125 0.703125  Q 12.9375 2.25 11.671875 2.25  Q 10.453125 2.25 9.734375 1.515625  Q 9.03125 0.78125 8.6875 -1.515625  L 6.890625 -1.515625  L 6.890625 21.1875  L 8.6875 21.1875  Q 9.96875 14.0625 12.109375 10.515625  Q 14.265625 6.984375 18.671875 4.640625  Q 23.09375 2.296875 28.375 2.296875  Q 34.46875 2.296875 38 5.515625  Q 41.546875 8.734375 41.546875 13.140625  Q 41.546875 15.578125 40.203125 18.0625  Q 38.875 20.5625 36.03125 22.703125  Q 34.125 24.171875 25.625 28.921875  Q 17.140625 33.6875 13.546875 36.515625  Q 9.96875 39.359375 8.109375 42.765625  Q 6.25 46.1875 6.25 50.296875  Q 6.25 57.421875 11.71875 62.5625  Q 17.1875 67.71875 25.640625 67.71875  Q 30.90625 67.71875 36.8125 65.140625  Q 39.546875 63.921875 40.671875 63.921875  Q 41.9375 63.921875 42.75 64.671875  Q 43.5625 65.4375 44.046875 67.71875  z "
                 id="TimesNewRomanPSMT-83" />
              <path
                 d="M 16.109375 59.421875  L 16.109375 44.734375  L 26.5625 44.734375  L 26.5625 41.3125  L 16.109375 41.3125  L 16.109375 12.3125  Q 16.109375 7.953125 17.359375 6.4375  Q 18.609375 4.9375 20.5625 4.9375  Q 22.171875 4.9375 23.6875 5.9375  Q 25.203125 6.9375 26.03125 8.890625  L 27.9375 8.890625  Q 26.21875 4.109375 23.09375 1.6875  Q 19.96875 -0.734375 16.65625 -0.734375  Q 14.40625 -0.734375 12.25 0.515625  Q 10.109375 1.765625 9.078125 4.078125  Q 8.0625 6.390625 8.0625 11.234375  L 8.0625 41.3125  L 0.984375 41.3125  L 0.984375 42.921875  Q 3.65625 44 6.46875 46.5625  Q 9.28125 49.125 11.46875 52.640625  Q 12.59375 54.5 14.59375 59.421875  z "
                 id="TimesNewRomanPSMT-116" />
              <path
                 d="M 28.46875 6.453125  Q 21.578125 1.125 19.828125 0.296875  Q 17.1875 -0.921875 14.203125 -0.921875  Q 9.578125 -0.921875 6.5625 2.25  Q 3.5625 5.421875 3.5625 10.59375  Q 3.5625 13.875 5.03125 16.265625  Q 7.03125 19.578125 11.984375 22.5  Q 16.9375 25.4375 28.46875 29.640625  L 28.46875 31.390625  Q 28.46875 38.09375 26.34375 40.578125  Q 24.21875 43.0625 20.171875 43.0625  Q 17.09375 43.0625 15.28125 41.40625  Q 13.421875 39.75 13.421875 37.59375  L 13.53125 34.765625  Q 13.53125 32.515625 12.375 31.296875  Q 11.234375 30.078125 9.375 30.078125  Q 7.5625 30.078125 6.421875 31.34375  Q 5.28125 32.625 5.28125 34.8125  Q 5.28125 39.015625 9.578125 42.53125  Q 13.875 46.046875 21.625 46.046875  Q 27.59375 46.046875 31.390625 44.046875  Q 34.28125 42.53125 35.640625 39.3125  Q 36.53125 37.203125 36.53125 30.71875  L 36.53125 15.53125  Q 36.53125 9.125 36.765625 7.6875  Q 37.015625 6.25 37.578125 5.765625  Q 38.140625 5.28125 38.875 5.28125  Q 39.65625 5.28125 40.234375 5.609375  Q 41.265625 6.25 44.1875 9.1875  L 44.1875 6.453125  Q 38.71875 -0.875 33.734375 -0.875  Q 31.34375 -0.875 29.921875 0.78125  Q 28.515625 2.4375 28.46875 6.453125  z M 28.46875 9.625  L 28.46875 26.65625  Q 21.09375 23.734375 18.953125 22.515625  Q 15.09375 20.359375 13.421875 18.015625  Q 11.765625 15.671875 11.765625 12.890625  Q 11.765625 9.375 13.859375 7.046875  Q 15.96875 4.734375 18.703125 4.734375  Q 22.40625 4.734375 28.46875 9.625  z "
                 id="TimesNewRomanPSMT-97" />
              <path
                 d="M 16.15625 36.578125  Q 24.03125 46.046875 31.15625 46.046875  Q 34.8125 46.046875 37.453125 44.21875  Q 40.09375 42.390625 41.65625 38.1875  Q 42.71875 35.25 42.71875 29.203125  L 42.71875 10.109375  Q 42.71875 5.859375 43.40625 4.34375  Q 43.953125 3.125 45.140625 2.4375  Q 46.34375 1.765625 49.5625 1.765625  L 49.5625 0  L 27.4375 0  L 27.4375 1.765625  L 28.375 1.765625  Q 31.5 1.765625 32.734375 2.703125  Q 33.984375 3.65625 34.46875 5.515625  Q 34.671875 6.25 34.671875 10.109375  L 34.671875 28.421875  Q 34.671875 34.515625 33.078125 37.28125  Q 31.5 40.046875 27.734375 40.046875  Q 21.921875 40.046875 16.15625 33.6875  L 16.15625 10.109375  Q 16.15625 5.5625 16.703125 4.5  Q 17.390625 3.078125 18.578125 2.421875  Q 19.78125 1.765625 23.4375 1.765625  L 23.4375 0  L 1.3125 0  L 1.3125 1.765625  L 2.296875 1.765625  Q 5.71875 1.765625 6.90625 3.484375  Q 8.109375 5.21875 8.109375 10.109375  L 8.109375 26.703125  Q 8.109375 34.765625 7.734375 36.515625  Q 7.375 38.28125 6.609375 38.90625  Q 5.859375 39.546875 4.59375 39.546875  Q 3.21875 39.546875 1.3125 38.8125  L 0.59375 40.578125  L 14.0625 46.046875  L 16.15625 46.046875  z "
                 id="TimesNewRomanPSMT-110" />
              <path
                 d="M 34.71875 5.03125  Q 31.453125 1.609375 28.328125 0.109375  Q 25.203125 -1.375 21.578125 -1.375  Q 14.265625 -1.375 8.796875 4.75  Q 3.328125 10.890625 3.328125 20.515625  Q 3.328125 30.125 9.375 38.109375  Q 15.4375 46.09375 24.953125 46.09375  Q 30.859375 46.09375 34.71875 42.328125  L 34.71875 50.59375  Q 34.71875 58.25 34.34375 60  Q 33.984375 61.765625 33.203125 62.390625  Q 32.421875 63.03125 31.25 63.03125  Q 29.984375 63.03125 27.875 62.25  L 27.25 63.96875  L 40.578125 69.4375  L 42.78125 69.4375  L 42.78125 17.71875  Q 42.78125 9.859375 43.140625 8.125  Q 43.5 6.390625 44.3125 5.703125  Q 45.125 5.03125 46.1875 5.03125  Q 47.515625 5.03125 49.703125 5.859375  L 50.25 4.15625  L 36.96875 -1.375  L 34.71875 -1.375  z M 34.71875 8.453125  L 34.71875 31.5  Q 34.421875 34.8125 32.953125 37.546875  Q 31.5 40.28125 29.078125 41.671875  Q 26.65625 43.0625 24.359375 43.0625  Q 20.0625 43.0625 16.703125 39.203125  Q 12.25 34.125 12.25 24.359375  Q 12.25 14.5 16.546875 9.25  Q 20.84375 4 26.125 4  Q 30.5625 4 34.71875 8.453125  z "
                 id="TimesNewRomanPSMT-100" />
              <path
                 d="M 16.21875 46.046875  L 16.21875 35.984375  Q 21.828125 46.046875 27.734375 46.046875  Q 30.421875 46.046875 32.171875 44.40625  Q 33.9375 42.78125 33.9375 40.625  Q 33.9375 38.71875 32.65625 37.390625  Q 31.390625 36.078125 29.640625 36.078125  Q 27.9375 36.078125 25.8125 37.765625  Q 23.6875 39.453125 22.65625 39.453125  Q 21.78125 39.453125 20.75 38.484375  Q 18.5625 36.46875 16.21875 31.890625  L 16.21875 10.453125  Q 16.21875 6.734375 17.140625 4.828125  Q 17.78125 3.515625 19.390625 2.640625  Q 21 1.765625 24.03125 1.765625  L 24.03125 0  L 1.125 0  L 1.125 1.765625  Q 4.546875 1.765625 6.203125 2.828125  Q 7.421875 3.609375 7.90625 5.328125  Q 8.15625 6.15625 8.15625 10.0625  L 8.15625 27.390625  Q 8.15625 35.203125 7.828125 36.6875  Q 7.515625 38.1875 6.65625 38.859375  Q 5.8125 39.546875 4.546875 39.546875  Q 3.03125 39.546875 1.125 38.8125  L 0.640625 40.578125  L 14.15625 46.046875  z "
                 id="TimesNewRomanPSMT-114" />
              <path
                 id="TimesNewRomanPSMT-32" />
              <path
                 d="M 10.640625 27.875  Q 10.59375 17.921875 15.484375 12.25  Q 20.359375 6.59375 26.953125 6.59375  Q 31.34375 6.59375 34.59375 9  Q 37.84375 11.421875 40.046875 17.28125  L 41.546875 16.3125  Q 40.53125 9.625 35.59375 4.125  Q 30.671875 -1.375 23.25 -1.375  Q 15.1875 -1.375 9.453125 4.90625  Q 3.71875 11.1875 3.71875 21.78125  Q 3.71875 33.25 9.59375 39.671875  Q 15.484375 46.09375 24.359375 46.09375  Q 31.890625 46.09375 36.71875 41.140625  Q 41.546875 36.1875 41.546875 27.875  z M 10.640625 30.71875  L 31.34375 30.71875  Q 31.109375 35.015625 30.328125 36.765625  Q 29.109375 39.5 26.6875 41.0625  Q 24.265625 42.625 21.625 42.625  Q 17.578125 42.625 14.375 39.46875  Q 11.1875 36.328125 10.640625 30.71875  z "
                 id="TimesNewRomanPSMT-101" />
              <path
                 d="M 0.828125 44.734375  L 21.875 44.734375  L 21.875 42.921875  L 20.515625 42.921875  Q 18.609375 42.921875 17.609375 41.984375  Q 16.609375 41.0625 16.609375 39.5  Q 16.609375 37.796875 17.625 35.453125  L 28.03125 10.75  L 38.484375 36.375  Q 39.59375 39.109375 39.59375 40.53125  Q 39.59375 41.21875 39.203125 41.65625  Q 38.671875 42.390625 37.84375 42.65625  Q 37.015625 42.921875 34.46875 42.921875  L 34.46875 44.734375  L 49.078125 44.734375  L 49.078125 42.921875  Q 46.53125 42.71875 45.5625 41.890625  Q 43.84375 40.4375 42.484375 37.015625  L 26.609375 -1.375  L 24.609375 -1.375  L 8.640625 36.375  Q 7.5625 39.015625 6.578125 40.15625  Q 5.609375 41.3125 4.109375 42.09375  Q 3.265625 42.53125 0.828125 42.921875  z "
                 id="TimesNewRomanPSMT-118" />
              <path
                 d="M 14.5 69.4375  Q 16.546875 69.4375 17.984375 67.984375  Q 19.4375 66.546875 19.4375 64.5  Q 19.4375 62.453125 17.984375 60.984375  Q 16.546875 59.515625 14.5 59.515625  Q 12.453125 59.515625 10.984375 60.984375  Q 9.515625 62.453125 9.515625 64.5  Q 9.515625 66.546875 10.953125 67.984375  Q 12.40625 69.4375 14.5 69.4375  z M 18.5625 46.046875  L 18.5625 10.109375  Q 18.5625 5.90625 19.171875 4.515625  Q 19.78125 3.125 20.96875 2.4375  Q 22.171875 1.765625 25.34375 1.765625  L 25.34375 0  L 3.609375 0  L 3.609375 1.765625  Q 6.890625 1.765625 8 2.390625  Q 9.125 3.03125 9.78125 4.484375  Q 10.453125 5.953125 10.453125 10.109375  L 10.453125 27.34375  Q 10.453125 34.625 10.015625 36.765625  Q 9.671875 38.328125 8.9375 38.9375  Q 8.203125 39.546875 6.9375 39.546875  Q 5.5625 39.546875 3.609375 38.8125  L 2.9375 40.578125  L 16.40625 46.046875  z "
                 id="TimesNewRomanPSMT-105" />
              <path
                 d="M 25 46.046875  Q 35.15625 46.046875 41.3125 38.328125  Q 46.53125 31.734375 46.53125 23.1875  Q 46.53125 17.1875 43.640625 11.03125  Q 40.765625 4.890625 35.71875 1.75  Q 30.671875 -1.375 24.46875 -1.375  Q 14.359375 -1.375 8.40625 6.6875  Q 3.375 13.484375 3.375 21.921875  Q 3.375 28.078125 6.421875 34.15625  Q 9.46875 40.234375 14.453125 43.140625  Q 19.4375 46.046875 25 46.046875  z M 23.484375 42.875  Q 20.90625 42.875 18.28125 41.328125  Q 15.671875 39.796875 14.0625 35.9375  Q 12.453125 32.078125 12.453125 26.03125  Q 12.453125 16.265625 16.328125 9.171875  Q 20.21875 2.09375 26.5625 2.09375  Q 31.296875 2.09375 34.375 6  Q 37.453125 9.90625 37.453125 19.4375  Q 37.453125 31.34375 32.328125 38.1875  Q 28.859375 42.875 23.484375 42.875  z "
                 id="TimesNewRomanPSMT-111" />
              <path
                 d="M 20.609375 41.21875  L 20.609375 11.8125  Q 20.609375 5.5625 21.96875 3.90625  Q 23.78125 1.765625 26.8125 1.765625  L 30.859375 1.765625  L 30.859375 0  L 4.15625 0  L 4.15625 1.765625  L 6.15625 1.765625  Q 8.109375 1.765625 9.71875 2.734375  Q 11.328125 3.71875 11.9375 5.375  Q 12.546875 7.03125 12.546875 11.8125  L 12.546875 41.21875  L 3.859375 41.21875  L 3.859375 44.734375  L 12.546875 44.734375  L 12.546875 47.65625  Q 12.546875 54.34375 14.6875 58.984375  Q 16.84375 63.625 21.265625 66.484375  Q 25.6875 69.34375 31.203125 69.34375  Q 36.328125 69.34375 40.625 66.015625  Q 43.453125 63.8125 43.453125 61.078125  Q 43.453125 59.625 42.1875 58.328125  Q 40.921875 57.03125 39.453125 57.03125  Q 38.328125 57.03125 37.078125 57.828125  Q 35.84375 58.640625 34.03125 61.296875  Q 32.234375 63.96875 30.71875 64.890625  Q 29.203125 65.828125 27.34375 65.828125  Q 25.09375 65.828125 23.53125 64.625  Q 21.96875 63.421875 21.28125 60.90625  Q 20.609375 58.40625 20.609375 47.953125  L 20.609375 44.734375  L 32.125 44.734375  L 32.125 41.21875  z "
                 id="TimesNewRomanPSMT-102" />
              <path
                 d="M 16.359375 69.4375  L 16.359375 24.90625  L 27.734375 35.296875  Q 31.34375 38.625 31.9375 39.5  Q 32.328125 40.09375 32.328125 40.671875  Q 32.328125 41.65625 31.515625 42.359375  Q 30.71875 43.0625 28.859375 43.171875  L 28.859375 44.734375  L 48.296875 44.734375  L 48.296875 43.171875  Q 44.28125 43.0625 41.625 41.9375  Q 38.96875 40.828125 35.796875 37.9375  L 24.3125 27.34375  L 35.796875 12.84375  Q 40.578125 6.84375 42.234375 5.21875  Q 44.578125 2.9375 46.34375 2.25  Q 47.5625 1.765625 50.59375 1.765625  L 50.59375 0  L 28.859375 0  L 28.859375 1.765625  Q 30.71875 1.8125 31.375 2.3125  Q 32.03125 2.828125 32.03125 3.765625  Q 32.03125 4.890625 30.078125 7.375  L 16.359375 24.90625  L 16.359375 10.0625  Q 16.359375 5.71875 16.96875 4.34375  Q 17.578125 2.984375 18.703125 2.390625  Q 19.828125 1.8125 23.578125 1.765625  L 23.578125 0  L 0.828125 0  L 0.828125 1.765625  Q 4.25 1.765625 5.953125 2.59375  Q 6.984375 3.125 7.515625 4.25  Q 8.25 5.859375 8.25 9.8125  L 8.25 50.53125  Q 8.25 58.296875 7.90625 60.03125  Q 7.5625 61.765625 6.78125 62.421875  Q 6 63.09375 4.734375 63.09375  Q 3.71875 63.09375 1.65625 62.25  L 0.828125 63.96875  L 14.109375 69.4375  z "
                 id="TimesNewRomanPSMT-107" />
              <path
                 d="M 4.046875 26.125  L 29.296875 26.125  L 29.296875 18.75  L 4.046875 18.75  z "
                 id="TimesNewRomanPSMT-45" />
              <path
                 d="M 32.03125 46.046875  L 32.03125 30.8125  L 30.421875 30.8125  Q 28.5625 37.984375 25.65625 40.578125  Q 22.75 43.171875 18.265625 43.171875  Q 14.84375 43.171875 12.734375 41.359375  Q 10.640625 39.546875 10.640625 37.359375  Q 10.640625 34.625 12.203125 32.671875  Q 13.71875 30.671875 18.359375 28.421875  L 25.484375 24.953125  Q 35.40625 20.125 35.40625 12.203125  Q 35.40625 6.109375 30.78125 2.359375  Q 26.171875 -1.375 20.453125 -1.375  Q 16.359375 -1.375 11.078125 0.09375  Q 9.46875 0.59375 8.453125 0.59375  Q 7.328125 0.59375 6.6875 -0.6875  L 5.078125 -0.6875  L 5.078125 15.28125  L 6.6875 15.28125  Q 8.0625 8.453125 11.90625 4.984375  Q 15.765625 1.515625 20.5625 1.515625  Q 23.921875 1.515625 26.046875 3.484375  Q 28.171875 5.46875 28.171875 8.25  Q 28.171875 11.625 25.796875 13.921875  Q 23.4375 16.21875 16.359375 19.734375  Q 9.28125 23.25 7.078125 26.078125  Q 4.890625 28.859375 4.890625 33.109375  Q 4.890625 38.625 8.671875 42.328125  Q 12.453125 46.046875 18.453125 46.046875  Q 21.09375 46.046875 24.859375 44.921875  Q 27.34375 44.1875 28.171875 44.1875  Q 28.953125 44.1875 29.390625 44.53125  Q 29.828125 44.875 30.421875 46.046875  z "
                 id="TimesNewRomanPSMT-115" />
              <path
                 d="M 42.328125 44.734375  L 42.328125 17.625  Q 42.328125 9.859375 42.6875 8.125  Q 43.0625 6.390625 43.859375 5.703125  Q 44.671875 5.03125 45.75 5.03125  Q 47.265625 5.03125 49.171875 5.859375  L 49.859375 4.15625  L 36.46875 -1.375  L 34.28125 -1.375  L 34.28125 8.109375  Q 28.515625 1.859375 25.484375 0.234375  Q 22.46875 -1.375 19.09375 -1.375  Q 15.328125 -1.375 12.5625 0.796875  Q 9.8125 2.984375 8.734375 6.390625  Q 7.671875 9.8125 7.671875 16.0625  L 7.671875 36.03125  Q 7.671875 39.203125 6.984375 40.421875  Q 6.296875 41.65625 4.953125 42.3125  Q 3.609375 42.96875 0.09375 42.921875  L 0.09375 44.734375  L 15.765625 44.734375  L 15.765625 14.796875  Q 15.765625 8.546875 17.9375 6.59375  Q 20.125 4.640625 23.1875 4.640625  Q 25.296875 4.640625 27.953125 5.953125  Q 30.609375 7.28125 34.28125 10.984375  L 34.28125 36.328125  Q 34.28125 40.140625 32.890625 41.484375  Q 31.5 42.828125 27.09375 42.921875  L 27.09375 44.734375  z "
                 id="TimesNewRomanPSMT-117" />
              <path
                 d="M 15.375 37.015625  Q 21.875 46.046875 29.390625 46.046875  Q 36.28125 46.046875 41.40625 40.15625  Q 46.53125 34.28125 46.53125 24.078125  Q 46.53125 12.15625 38.625 4.890625  Q 31.84375 -1.375 23.484375 -1.375  Q 19.578125 -1.375 15.546875 0.046875  Q 11.53125 1.46875 7.328125 4.296875  L 7.328125 50.640625  Q 7.328125 58.25 6.953125 60  Q 6.59375 61.765625 5.8125 62.390625  Q 5.03125 63.03125 3.859375 63.03125  Q 2.484375 63.03125 0.4375 62.25  L -0.25 63.96875  L 13.1875 69.4375  L 15.375 69.4375  z M 15.375 33.890625  L 15.375 7.125  Q 17.875 4.6875 20.53125 3.4375  Q 23.1875 2.203125 25.984375 2.203125  Q 30.421875 2.203125 34.25 7.078125  Q 38.09375 11.96875 38.09375 21.296875  Q 38.09375 29.890625 34.25 34.5  Q 30.421875 39.109375 25.53125 39.109375  Q 22.953125 39.109375 20.359375 37.796875  Q 18.40625 36.8125 15.375 33.890625  z "
                 id="TimesNewRomanPSMT-98" />
              <path
                 d="M 41.109375 17  Q 39.3125 8.15625 34.03125 3.390625  Q 28.765625 -1.375 22.359375 -1.375  Q 14.75 -1.375 9.078125 5.015625  Q 3.421875 11.421875 3.421875 22.3125  Q 3.421875 32.859375 9.6875 39.453125  Q 15.96875 46.046875 24.75 46.046875  Q 31.34375 46.046875 35.59375 42.546875  Q 39.84375 39.0625 39.84375 35.296875  Q 39.84375 33.453125 38.640625 32.296875  Q 37.453125 31.15625 35.296875 31.15625  Q 32.421875 31.15625 30.953125 33.015625  Q 30.125 34.03125 29.859375 36.90625  Q 29.59375 39.796875 27.875 41.3125  Q 26.171875 42.78125 23.140625 42.78125  Q 18.265625 42.78125 15.28125 39.15625  Q 11.328125 34.375 11.328125 26.515625  Q 11.328125 18.5 15.25 12.375  Q 19.1875 6.25 25.875 6.25  Q 30.671875 6.25 34.46875 9.515625  Q 37.15625 11.765625 39.703125 17.671875  z "
                 id="TimesNewRomanPSMT-99" />
              <path
                 d="M 29.6875 -19.828125  L 8.203125 -19.828125  L 8.203125 67.71875  L 29.6875 67.71875  L 29.6875 63.875  L 15.53125 63.875  L 15.53125 -16.015625  L 29.6875 -16.015625  z "
                 id="TimesNewRomanPSMT-91" />
              <path
                 d="M 16.40625 36.53125  Q 21.296875 41.40625 22.171875 42.140625  Q 24.359375 44 26.890625 45.015625  Q 29.4375 46.046875 31.9375 46.046875  Q 36.140625 46.046875 39.15625 43.59375  Q 42.1875 41.15625 43.21875 36.53125  Q 48.25 42.390625 51.703125 44.21875  Q 55.171875 46.046875 58.84375 46.046875  Q 62.40625 46.046875 65.15625 44.21875  Q 67.921875 42.390625 69.53125 38.234375  Q 70.609375 35.40625 70.609375 29.34375  L 70.609375 10.109375  Q 70.609375 5.90625 71.234375 4.34375  Q 71.734375 3.265625 73.046875 2.515625  Q 74.359375 1.765625 77.34375 1.765625  L 77.34375 0  L 55.28125 0  L 55.28125 1.765625  L 56.203125 1.765625  Q 59.078125 1.765625 60.6875 2.875  Q 61.8125 3.65625 62.3125 5.375  Q 62.5 6.203125 62.5 10.109375  L 62.5 29.34375  Q 62.5 34.8125 61.1875 37.0625  Q 59.28125 40.1875 55.078125 40.1875  Q 52.484375 40.1875 49.875 38.890625  Q 47.265625 37.59375 43.5625 34.078125  L 43.453125 33.546875  L 43.5625 31.453125  L 43.5625 10.109375  Q 43.5625 5.515625 44.0625 4.390625  Q 44.578125 3.265625 45.984375 2.515625  Q 47.40625 1.765625 50.828125 1.765625  L 50.828125 0  L 28.21875 0  L 28.21875 1.765625  Q 31.9375 1.765625 33.328125 2.640625  Q 34.71875 3.515625 35.25 5.28125  Q 35.5 6.109375 35.5 10.109375  L 35.5 29.34375  Q 35.5 34.8125 33.890625 37.203125  Q 31.734375 40.328125 27.875 40.328125  Q 25.25 40.328125 22.65625 38.921875  Q 18.609375 36.765625 16.40625 34.078125  L 16.40625 10.109375  Q 16.40625 5.71875 17.015625 4.390625  Q 17.625 3.078125 18.8125 2.421875  Q 20.015625 1.765625 23.6875 1.765625  L 23.6875 0  L 1.5625 0  L 1.5625 1.765625  Q 4.640625 1.765625 5.859375 2.421875  Q 7.078125 3.078125 7.703125 4.515625  Q 8.34375 5.953125 8.34375 10.109375  L 8.34375 27.203125  Q 8.34375 34.578125 7.90625 36.71875  Q 7.5625 38.328125 6.828125 38.9375  Q 6.109375 39.546875 4.828125 39.546875  Q 3.46875 39.546875 1.5625 38.8125  L 0.828125 40.578125  L 14.3125 46.046875  L 16.40625 46.046875  z "
                 id="TimesNewRomanPSMT-109" />
              <path
                 d="M 28.03125 69.4375  L 4.046875 -1.375  L 0.140625 -1.375  L 24.125 69.4375  z "
                 id="TimesNewRomanPSMT-47" />
              <path
                 d="M 3.65625 67.71875  L 25.140625 67.71875  L 25.140625 -19.875  L 3.65625 -19.875  L 3.65625 -16.015625  L 17.828125 -16.015625  L 17.828125 63.875  L 3.65625 63.875  z "
                 id="TimesNewRomanPSMT-93" />
            </defs>
            <use
               xlink:href="#TimesNewRomanPSMT-83"
               id="use2368" />
            <use
               x="55.615234"
               xlink:href="#TimesNewRomanPSMT-116"
               id="use2370" />
            <use
               x="83.398438"
               xlink:href="#TimesNewRomanPSMT-97"
               id="use2372" />
            <use
               x="127.783203"
               xlink:href="#TimesNewRomanPSMT-110"
               id="use2374" />
            <use
               x="177.783203"
               xlink:href="#TimesNewRomanPSMT-100"
               id="use2376" />
            <use
               x="227.783203"
               xlink:href="#TimesNewRomanPSMT-97"
               id="use2378" />
            <use
               x="272.167969"
               xlink:href="#TimesNewRomanPSMT-114"
               id="use2380" />
            <use
               x="305.46875"
               xlink:href="#TimesNewRomanPSMT-100"
               id="use2382" />
            <use
               x="355.46875"
               xlink:href="#TimesNewRomanPSMT-32"
               id="use2384" />
            <use
               x="380.46875"
               xlink:href="#TimesNewRomanPSMT-100"
               id="use2386" />
            <use
               x="430.46875"
               xlink:href="#TimesNewRomanPSMT-101"
               id="use2388" />
            <use
               x="474.853516"
               xlink:href="#TimesNewRomanPSMT-118"
               id="use2390" />
            <use
               x="524.853516"
               xlink:href="#TimesNewRomanPSMT-105"
               id="use2392" />
            <use
               x="552.636719"
               xlink:href="#TimesNewRomanPSMT-97"
               id="use2394" />
            <use
               x="597.021484"
               xlink:href="#TimesNewRomanPSMT-116"
               id="use2396" />
            <use
               x="624.804688"
               xlink:href="#TimesNewRomanPSMT-105"
               id="use2398" />
            <use
               x="652.587891"
               xlink:href="#TimesNewRomanPSMT-111"
               id="use2400" />
            <use
               x="702.587891"
               xlink:href="#TimesNewRomanPSMT-110"
               id="use2402" />
            <use
               x="752.587891"
               xlink:href="#TimesNewRomanPSMT-32"
               id="use2404" />
            <use
               x="777.587891"
               xlink:href="#TimesNewRomanPSMT-111"
               id="use2406" />
            <use
               x="827.587891"
               xlink:href="#TimesNewRomanPSMT-102"
               id="use2408" />
            <use
               x="860.888672"
               xlink:href="#TimesNewRomanPSMT-32"
               id="use2410" />
            <use
               x="885.888672"
               xlink:href="#TimesNewRomanPSMT-116"
               id="use2412" />
            <use
               x="913.671875"
               xlink:href="#TimesNewRomanPSMT-97"
               id="use2414" />
            <use
               x="958.056641"
               xlink:href="#TimesNewRomanPSMT-107"
               id="use2416" />
            <use
               x="1008.056641"
               xlink:href="#TimesNewRomanPSMT-101"
               id="use2418" />
            <use
               x="1052.441406"
               xlink:href="#TimesNewRomanPSMT-45"
               id="use2420" />
            <use
               x="1085.742188"
               xlink:href="#TimesNewRomanPSMT-111"
               id="use2422" />
            <use
               x="1135.742188"
               xlink:href="#TimesNewRomanPSMT-102"
               id="use2424" />
            <use
               x="1167.292969"
               xlink:href="#TimesNewRomanPSMT-102"
               id="use2426" />
            <use
               x="1200.59375"
               xlink:href="#TimesNewRomanPSMT-32"
               id="use2428" />
            <use
               x="1225.59375"
               xlink:href="#TimesNewRomanPSMT-100"
               id="use2430" />
            <use
               x="1275.59375"
               xlink:href="#TimesNewRomanPSMT-105"
               id="use2432" />
            <use
               x="1303.376953"
               xlink:href="#TimesNewRomanPSMT-115"
               id="use2434" />
            <use
               x="1342.292969"
               xlink:href="#TimesNewRomanPSMT-116"
               id="use2436" />
            <use
               x="1370.076172"
               xlink:href="#TimesNewRomanPSMT-117"
               id="use2438" />
            <use
               x="1420.076172"
               xlink:href="#TimesNewRomanPSMT-114"
               id="use2440" />
            <use
               x="1453.376953"
               xlink:href="#TimesNewRomanPSMT-98"
               id="use2442" />
            <use
               x="1503.376953"
               xlink:href="#TimesNewRomanPSMT-97"
               id="use2444" />
            <use
               x="1547.761719"
               xlink:href="#TimesNewRomanPSMT-110"
               id="use2446" />
            <use
               x="1597.761719"
               xlink:href="#TimesNewRomanPSMT-99"
               id="use2448" />
            <use
               x="1642.146484"
               xlink:href="#TimesNewRomanPSMT-101"
               id="use2450" />
            <use
               x="1686.53125"
               xlink:href="#TimesNewRomanPSMT-32"
               id="use2452" />
            <use
               x="1711.53125"
               xlink:href="#TimesNewRomanPSMT-91"
               id="use2454" />
            <use
               x="1744.832031"
               xlink:href="#TimesNewRomanPSMT-109"
               id="use2456" />
            <use
               x="1822.615234"
               xlink:href="#TimesNewRomanPSMT-47"
               id="use2458" />
            <use
               x="1850.398438"
               xlink:href="#TimesNewRomanPSMT-115"
               id="use2460" />
            <use
               x="1889.314453"
               xlink:href="#TimesNewRomanPSMT-93"
               id="use2462" />
          </g>
        </g>
      </g>
      <g
         id="matplotlib.axis_2">
        <g
           id="ytick_1">
          <g
             id="line2d_6">
            <path
               clip-path="url(#p2675933f19)"
               d="M 35.424 108.170667  L 287.424 108.170667  "
               style="fill:none;stroke:#b0b0b0;stroke-linecap:square;stroke-width:0.8;"
               id="path2468" />
          </g>
          <g
             id="line2d_7">
            <defs
               id="defs2472">
              <path
                 d="M 0 0  L -3.5 0  "
                 id="m006bd0bd7e"
                 style="stroke:#000000;stroke-width:0.8;" />
            </defs>
            <g
               id="g2476">
              <use
                 style="stroke:#000000;stroke-width:0.8;"
                 x="35.424"
                 xlink:href="#m006bd0bd7e"
                 y="108.170667"
                 id="use2474" />
            </g>
          </g>
          <g
             id="text_7">
            <!-- 0 -->
            <g
               transform="translate(23.424 111.642542)scale(0.1 -0.1)"
               id="g2481">
              <use
                 xlink:href="#TimesNewRomanPSMT-48"
                 id="use2479" />
            </g>
          </g>
        </g>
        <g
           id="ytick_2">
          <g
             id="line2d_8">
            <path
               clip-path="url(#p2675933f19)"
               d="M 35.424 82.237333  L 287.424 82.237333  "
               style="fill:none;stroke:#b0b0b0;stroke-linecap:square;stroke-width:0.8;"
               id="path2485" />
          </g>
          <g
             id="line2d_9">
            <g
               id="g2490">
              <use
                 style="stroke:#000000;stroke-width:0.8;"
                 x="35.424"
                 xlink:href="#m006bd0bd7e"
                 y="82.237333"
                 id="use2488" />
            </g>
          </g>
          <g
             id="text_8">
            <!-- 25 -->
            <g
               transform="translate(18.424 85.709208)scale(0.1 -0.1)"
               id="g2500">
              <defs
                 id="defs2494">
                <path
                   d="M 43.40625 66.21875  L 39.59375 57.90625  L 19.671875 57.90625  L 15.328125 49.03125  Q 28.265625 47.125 35.84375 39.40625  Q 42.328125 32.765625 42.328125 23.78125  Q 42.328125 18.5625 40.203125 14.109375  Q 38.09375 9.671875 34.859375 6.546875  Q 31.640625 3.421875 27.6875 1.515625  Q 22.078125 -1.171875 16.15625 -1.171875  Q 10.203125 -1.171875 7.484375 0.84375  Q 4.78125 2.875 4.78125 5.328125  Q 4.78125 6.6875 5.90625 7.734375  Q 7.03125 8.796875 8.734375 8.796875  Q 10.015625 8.796875 10.96875 8.40625  Q 11.921875 8.015625 14.203125 6.390625  Q 17.875 3.859375 21.625 3.859375  Q 27.34375 3.859375 31.65625 8.171875  Q 35.984375 12.5 35.984375 18.703125  Q 35.984375 24.703125 32.125 29.90625  Q 28.265625 35.109375 21.484375 37.9375  Q 16.15625 40.140625 6.984375 40.484375  L 19.671875 66.21875  z "
                   id="TimesNewRomanPSMT-53" />
              </defs>
              <use
                 xlink:href="#TimesNewRomanPSMT-50"
                 id="use2496" />
              <use
                 x="50"
                 xlink:href="#TimesNewRomanPSMT-53"
                 id="use2498" />
            </g>
          </g>
        </g>
        <g
           id="ytick_3">
          <g
             id="line2d_10">
            <path
               clip-path="url(#p2675933f19)"
               d="M 35.424 56.304  L 287.424 56.304  "
               style="fill:none;stroke:#b0b0b0;stroke-linecap:square;stroke-width:0.8;"
               id="path2504" />
          </g>
          <g
             id="line2d_11">
            <g
               id="g2509">
              <use
                 style="stroke:#000000;stroke-width:0.8;"
                 x="35.424"
                 xlink:href="#m006bd0bd7e"
                 y="56.304"
                 id="use2507" />
            </g>
          </g>
          <g
             id="text_9">
            <!-- 50 -->
            <g
               transform="translate(18.424 59.775875)scale(0.1 -0.1)"
               id="g2516">
              <use
                 xlink:href="#TimesNewRomanPSMT-53"
                 id="use2512" />
              <use
                 x="50"
                 xlink:href="#TimesNewRomanPSMT-48"
                 id="use2514" />
            </g>
          </g>
        </g>
        <g
           id="ytick_4">
          <g
             id="line2d_12">
            <path
               clip-path="url(#p2675933f19)"
               d="M 35.424 30.370667  L 287.424 30.370667  "
               style="fill:none;stroke:#b0b0b0;stroke-linecap:square;stroke-width:0.8;"
               id="path2520" />
          </g>
          <g
             id="line2d_13">
            <g
               id="g2525">
              <use
                 style="stroke:#000000;stroke-width:0.8;"
                 x="35.424"
                 xlink:href="#m006bd0bd7e"
                 y="30.370667"
                 id="use2523" />
            </g>
          </g>
          <g
             id="text_10">
            <!-- 75 -->
            <g
               transform="translate(18.424 33.842542)scale(0.1 -0.1)"
               id="g2535">
              <defs
                 id="defs2529">
                <path
                   d="M 10.0625 66.21875  L 45.5625 66.21875  L 45.5625 64.359375  L 23.484375 -1.375  L 18.015625 -1.375  L 37.796875 58.25  L 19.578125 58.25  Q 14.0625 58.25 11.71875 56.9375  Q 7.625 54.6875 5.125 50  L 3.71875 50.53125  z "
                   id="TimesNewRomanPSMT-55" />
              </defs>
              <use
                 xlink:href="#TimesNewRomanPSMT-55"
                 id="use2531" />
              <use
                 x="50"
                 xlink:href="#TimesNewRomanPSMT-53"
                 id="use2533" />
            </g>
          </g>
        </g>
        <g
           id="ytick_5">
          <g
             id="line2d_14">
            <path
               clip-path="url(#p2675933f19)"
               d="M 35.424 4.437333  L 287.424 4.437333  "
               style="fill:none;stroke:#b0b0b0;stroke-linecap:square;stroke-width:0.8;"
               id="path2539" />
          </g>
          <g
             id="line2d_15">
            <g
               id="g2544">
              <use
                 style="stroke:#000000;stroke-width:0.8;"
                 x="35.424"
                 xlink:href="#m006bd0bd7e"
                 y="4.437333"
                 id="use2542" />
            </g>
          </g>
          <g
             id="text_11">
            <!-- 100 -->
            <g
               transform="translate(13.424 7.909208)scale(0.1 -0.1)"
               id="g2556">
              <defs
                 id="defs2548">
                <path
                   d="M 11.71875 59.71875  L 27.828125 67.578125  L 29.4375 67.578125  L 29.4375 11.671875  Q 29.4375 6.109375 29.90625 4.734375  Q 30.375 3.375 31.828125 2.640625  Q 33.296875 1.90625 37.796875 1.8125  L 37.796875 0  L 12.890625 0  L 12.890625 1.8125  Q 17.578125 1.90625 18.9375 2.609375  Q 20.3125 3.328125 20.84375 4.515625  Q 21.390625 5.71875 21.390625 11.671875  L 21.390625 47.40625  Q 21.390625 54.640625 20.90625 56.6875  Q 20.5625 58.25 19.65625 58.984375  Q 18.75 59.71875 17.484375 59.71875  Q 15.671875 59.71875 12.453125 58.203125  z "
                   id="TimesNewRomanPSMT-49" />
              </defs>
              <use
                 xlink:href="#TimesNewRomanPSMT-49"
                 id="use2550" />
              <use
                 x="50"
                 xlink:href="#TimesNewRomanPSMT-48"
                 id="use2552" />
              <use
                 x="100"
                 xlink:href="#TimesNewRomanPSMT-48"
                 id="use2554" />
            </g>
          </g>
        </g>
        <g
           id="text_12">
          <!-- Average catches per run -->
          <g
             transform="translate(7.374078 101.978219)rotate(-90)scale(0.095 -0.095)"
             id="g2612">
            <defs
               id="defs2564">
              <path
                 d="M 45.75 22.171875  L 20.125 22.171875  L 15.625 11.71875  Q 13.96875 7.859375 13.96875 5.953125  Q 13.96875 4.4375 15.40625 3.296875  Q 16.84375 2.15625 21.625 1.8125  L 21.625 0  L 0.78125 0  L 0.78125 1.8125  Q 4.9375 2.546875 6.15625 3.71875  Q 8.640625 6.0625 11.671875 13.234375  L 34.96875 67.71875  L 36.671875 67.71875  L 59.71875 12.640625  Q 62.5 6 64.765625 4.015625  Q 67.046875 2.046875 71.09375 1.8125  L 71.09375 0  L 44.96875 0  L 44.96875 1.8125  Q 48.921875 2 50.3125 3.125  Q 51.703125 4.25 51.703125 5.859375  Q 51.703125 8.015625 49.75 12.640625  z M 44.390625 25.78125  L 33.15625 52.546875  L 21.625 25.78125  z "
                 id="TimesNewRomanPSMT-65" />
              <path
                 d="M 15.09375 16.3125  Q 10.984375 18.3125 8.78125 21.890625  Q 6.59375 25.484375 6.59375 29.828125  Q 6.59375 36.46875 11.59375 41.25  Q 16.609375 46.046875 24.421875 46.046875  Q 30.8125 46.046875 35.5 42.921875  L 44.96875 42.921875  Q 47.078125 42.921875 47.40625 42.796875  Q 47.75 42.671875 47.90625 42.390625  Q 48.1875 41.9375 48.1875 40.828125  Q 48.1875 39.546875 47.953125 39.0625  Q 47.796875 38.8125 47.4375 38.671875  Q 47.078125 38.53125 44.96875 38.53125  L 39.15625 38.53125  Q 41.890625 35.015625 41.890625 29.546875  Q 41.890625 23.296875 37.109375 18.84375  Q 32.328125 14.40625 24.265625 14.40625  Q 20.953125 14.40625 17.484375 15.375  Q 15.328125 13.53125 14.5625 12.140625  Q 13.8125 10.75 13.8125 9.765625  Q 13.8125 8.9375 14.625 8.15625  Q 15.4375 7.375 17.78125 7.03125  Q 19.140625 6.84375 24.609375 6.6875  Q 34.671875 6.453125 37.640625 6  Q 42.1875 5.375 44.890625 2.640625  Q 47.609375 -0.09375 47.609375 -4.109375  Q 47.609375 -9.625 42.4375 -14.453125  Q 34.8125 -21.578125 22.5625 -21.578125  Q 13.140625 -21.578125 6.640625 -17.328125  Q 2.984375 -14.890625 2.984375 -12.25  Q 2.984375 -11.078125 3.515625 -9.90625  Q 4.34375 -8.109375 6.9375 -4.890625  Q 7.28125 -4.4375 11.921875 0.390625  Q 9.375 1.90625 8.328125 3.09375  Q 7.28125 4.296875 7.28125 5.8125  Q 7.28125 7.515625 8.671875 9.8125  Q 10.0625 12.109375 15.09375 16.3125  z M 23.578125 43.703125  Q 19.96875 43.703125 17.53125 40.8125  Q 15.09375 37.9375 15.09375 31.984375  Q 15.09375 24.265625 18.40625 20.015625  Q 20.953125 16.796875 24.859375 16.796875  Q 28.5625 16.796875 30.953125 19.578125  Q 33.34375 22.359375 33.34375 28.328125  Q 33.34375 36.078125 29.984375 40.484375  Q 27.484375 43.703125 23.578125 43.703125  z M 14.59375 0  Q 12.3125 -2.484375 11.140625 -4.625  Q 9.96875 -6.78125 9.96875 -8.59375  Q 9.96875 -10.9375 12.796875 -12.703125  Q 17.671875 -15.71875 26.90625 -15.71875  Q 35.6875 -15.71875 39.859375 -12.609375  Q 44.046875 -9.515625 44.046875 -6  Q 44.046875 -3.46875 41.546875 -2.390625  Q 39.015625 -1.3125 31.5 -1.125  Q 20.515625 -0.828125 14.59375 0  z "
                 id="TimesNewRomanPSMT-103" />
              <path
                 d="M 16.265625 69.4375  L 16.265625 36.71875  Q 21.6875 42.671875 24.859375 44.359375  Q 28.03125 46.046875 31.203125 46.046875  Q 35.015625 46.046875 37.75 43.9375  Q 40.484375 41.84375 41.796875 37.359375  Q 42.71875 34.234375 42.71875 25.921875  L 42.71875 10.109375  Q 42.71875 5.859375 43.40625 4.296875  Q 43.890625 3.125 45.0625 2.4375  Q 46.234375 1.765625 49.359375 1.765625  L 49.359375 0  L 27.390625 0  L 27.390625 1.765625  L 28.421875 1.765625  Q 31.546875 1.765625 32.765625 2.703125  Q 33.984375 3.65625 34.46875 5.515625  Q 34.625 6.296875 34.625 10.109375  L 34.625 25.921875  Q 34.625 33.25 33.859375 35.546875  Q 33.109375 37.84375 31.4375 38.984375  Q 29.78125 40.140625 27.4375 40.140625  Q 25.046875 40.140625 22.453125 38.859375  Q 19.875 37.59375 16.265625 33.734375  L 16.265625 10.109375  Q 16.265625 5.515625 16.765625 4.390625  Q 17.28125 3.265625 18.671875 2.515625  Q 20.0625 1.765625 23.484375 1.765625  L 23.484375 0  L 1.3125 0  L 1.3125 1.765625  Q 4.296875 1.765625 6 2.6875  Q 6.984375 3.171875 7.5625 4.53125  Q 8.15625 5.90625 8.15625 10.109375  L 8.15625 50.59375  Q 8.15625 58.25 7.78125 60  Q 7.421875 61.765625 6.65625 62.390625  Q 5.90625 63.03125 4.640625 63.03125  Q 3.609375 63.03125 1.3125 62.25  L 0.640625 63.96875  L 14.015625 69.4375  z "
                 id="TimesNewRomanPSMT-104" />
              <path
                 d="M -0.09375 40.28125  L 13.671875 45.84375  L 15.53125 45.84375  L 15.53125 35.40625  Q 19 41.3125 22.484375 43.671875  Q 25.984375 46.046875 29.828125 46.046875  Q 36.578125 46.046875 41.0625 40.765625  Q 46.578125 34.328125 46.578125 23.96875  Q 46.578125 12.40625 39.9375 4.828125  Q 34.46875 -1.375 26.171875 -1.375  Q 22.5625 -1.375 19.921875 -0.34375  Q 17.96875 0.390625 15.53125 2.59375  L 15.53125 -11.03125  Q 15.53125 -15.625 16.09375 -16.859375  Q 16.65625 -18.109375 18.046875 -18.84375  Q 19.4375 -19.578125 23.09375 -19.578125  L 23.09375 -21.390625  L -0.34375 -21.390625  L -0.34375 -19.578125  L 0.875 -19.578125  Q 3.5625 -19.625 5.46875 -18.5625  Q 6.390625 -18.015625 6.90625 -16.8125  Q 7.421875 -15.625 7.421875 -10.75  L 7.421875 31.546875  Q 7.421875 35.890625 7.03125 37.0625  Q 6.640625 38.234375 5.78125 38.8125  Q 4.9375 39.40625 3.46875 39.40625  Q 2.296875 39.40625 0.484375 38.71875  z M 15.53125 32.515625  L 15.53125 15.828125  Q 15.53125 10.40625 15.96875 8.6875  Q 16.65625 5.859375 19.3125 3.703125  Q 21.96875 1.5625 26.03125 1.5625  Q 30.90625 1.5625 33.9375 5.375  Q 37.890625 10.359375 37.890625 19.390625  Q 37.890625 29.640625 33.40625 35.15625  Q 30.28125 38.96875 25.984375 38.96875  Q 23.640625 38.96875 21.34375 37.796875  Q 19.578125 36.921875 15.53125 32.515625  z "
                 id="TimesNewRomanPSMT-112" />
            </defs>
            <use
               xlink:href="#TimesNewRomanPSMT-65"
               id="use2566" />
            <use
               x="64.841797"
               xlink:href="#TimesNewRomanPSMT-118"
               id="use2568" />
            <use
               x="114.841797"
               xlink:href="#TimesNewRomanPSMT-101"
               id="use2570" />
            <use
               x="159.226562"
               xlink:href="#TimesNewRomanPSMT-114"
               id="use2572" />
            <use
               x="192.527344"
               xlink:href="#TimesNewRomanPSMT-97"
               id="use2574" />
            <use
               x="236.912109"
               xlink:href="#TimesNewRomanPSMT-103"
               id="use2576" />
            <use
               x="286.912109"
               xlink:href="#TimesNewRomanPSMT-101"
               id="use2578" />
            <use
               x="331.296875"
               xlink:href="#TimesNewRomanPSMT-32"
               id="use2580" />
            <use
               x="356.296875"
               xlink:href="#TimesNewRomanPSMT-99"
               id="use2582" />
            <use
               x="400.681641"
               xlink:href="#TimesNewRomanPSMT-97"
               id="use2584" />
            <use
               x="445.066406"
               xlink:href="#TimesNewRomanPSMT-116"
               id="use2586" />
            <use
               x="472.849609"
               xlink:href="#TimesNewRomanPSMT-99"
               id="use2588" />
            <use
               x="517.234375"
               xlink:href="#TimesNewRomanPSMT-104"
               id="use2590" />
            <use
               x="567.234375"
               xlink:href="#TimesNewRomanPSMT-101"
               id="use2592" />
            <use
               x="611.619141"
               xlink:href="#TimesNewRomanPSMT-115"
               id="use2594" />
            <use
               x="650.535156"
               xlink:href="#TimesNewRomanPSMT-32"
               id="use2596" />
            <use
               x="675.535156"
               xlink:href="#TimesNewRomanPSMT-112"
               id="use2598" />
            <use
               x="725.535156"
               xlink:href="#TimesNewRomanPSMT-101"
               id="use2600" />
            <use
               x="769.919922"
               xlink:href="#TimesNewRomanPSMT-114"
               id="use2602" />
            <use
               x="803.220703"
               xlink:href="#TimesNewRomanPSMT-32"
               id="use2604" />
            <use
               x="828.220703"
               xlink:href="#TimesNewRomanPSMT-114"
               id="use2606" />
            <use
               x="861.521484"
               xlink:href="#TimesNewRomanPSMT-117"
               id="use2608" />
            <use
               x="911.521484"
               xlink:href="#TimesNewRomanPSMT-110"
               id="use2610" />
          </g>
        </g>
      </g>
      <g
         id="line2d_16" />
      <g
         id="line2d_17">
        <path
           clip-path="url(#p2675933f19)"
           d="M 289 99.549239  L 287.424 99.581547  L 284.387855 97.921813  L 281.351711 98.398987  L 278.315566 99.851253  L 275.279422 98.979893  L 272.243277 98.25376  L 269.207133 97.859573  L 266.170988 97.63136  L 263.134843 97.340907  L 260.098699 95.930133  L 257.062554 97.921813  L 254.02641 94.664587  L 250.990265 94.64384  L 247.95412 97.63136  L 244.917976 95.26624  L 241.881831 94.39488  L 238.845687 95.535947  L 235.809542 93.793227  L 232.773398 92.569173  L 229.737253 92.050507  L 226.701108 90.930187  L 223.664964 91.179147  L 220.628819 89.22896  L 217.592675 90.41152  L 214.55653 90.950933  L 211.520386 91.179147  L 208.484241 86.73936  L 205.448096 87.05056  L 202.411952 83.212427  L 199.375807 85.100373  L 196.339663 84.353493  L 193.303518 84.87216  L 190.267373 80.76432  L 187.231229 78.751893  L 184.195084 76.739467  L 181.15894 79.20832  L 178.122795 64.685653  L 175.086651 74.581813  L 172.050506 69.893067  L 169.014361 59.498987  L 165.978217 60.78528  L 162.942072 59.270773  L 159.905928 54.706507  L 156.869783 54.830987  L 153.833639 45.66096  L 150.797494 38.2544  L 147.761349 39.955627  L 144.725205 48.046827  L 141.68906 25.05952  L 138.652916 24.00144  L 135.616771 32.258613  L 132.580627 27.54912  L 129.544482 19.976587  L 126.508337 17.673707  L 123.472193 15.433067  L 120.436048 16.117707  L 117.399904 12.79824  L 114.363759 11.221493  L 111.327614 6.553493  L 108.29147 12.072107  L 105.255325 8.13024  L 102.219181 6.906187  L 99.183036 10.163413  L 96.146892 5.184213  L 93.110747 5.32944  L 90.074602 4.437333  L 87.038458 4.437333  L 84.002313 4.437333  L 80.966169 4.437333  L 77.930024 4.437333  L 74.89388 4.437333  L 71.857735 4.437333  L 68.82159 4.437333  L 65.785446 4.437333  L 62.749301 4.437333  L 59.713157 4.437333  L 56.677012 4.437333  L 53.640867 4.437333  L 50.604723 4.437333  L 47.568578 4.437333  L 44.532434 4.437333  L 41.496289 4.437333  L 38.460145 4.437333  L 35.424 4.437333  "
           style="fill:none;stroke:#1f77b4;stroke-linecap:square;"
           id="path2619" />
      </g>
      <g
         id="line2d_18" />
      <g
         id="line2d_19">
        <path
           clip-path="url(#p2675933f19)"
           d="M 289 101.973269  L 287.424 101.531733  L 284.387855 102.154133  L 281.351711 101.324267  L 278.315566 102.216373  L 275.279422 101.324267  L 272.243277 102.527573  L 269.207133 100.971573  L 266.170988 100.971573  L 263.134843 101.1168  L 260.098699 101.05456  L 257.062554 100.909333  L 254.02641 99.457067  L 250.990265 101.36576  L 247.95412 100.660373  L 244.917976 98.295253  L 241.881831 99.00064  L 238.845687 99.975733  L 235.809542 100.1832  L 232.773398 96.32432  L 229.737253 99.31184  L 226.701108 98.357493  L 223.664964 96.32432  L 220.628819 97.32016  L 217.592675 97.237173  L 214.55653 97.548373  L 211.520386 96.26208  L 208.484241 97.112693  L 205.448096 97.776587  L 202.411952 94.934293  L 199.375807 95.784907  L 196.339663 93.979947  L 193.303518 91.926027  L 190.267373 91.448853  L 187.231229 93.627253  L 184.195084 91.116907  L 181.15894 90.90944  L 178.122795 89.78912  L 175.086651 92.009013  L 172.050506 88.3576  L 169.014361 85.5568  L 165.978217 84.768427  L 162.942072 89.249707  L 159.905928 83.62736  L 156.869783 86.61488  L 153.833639 76.200053  L 150.797494 81.32448  L 147.761349 76.90544  L 144.725205 71.98848  L 141.68906 80.32864  L 138.652916 73.274773  L 135.616771 62.424267  L 132.580627 59.125547  L 129.544482 57.29984  L 126.508337 51.158827  L 123.472193 47.362187  L 120.436048 46.988747  L 117.399904 51.07584  L 114.363759 39.105013  L 111.327614 33.441173  L 108.29147 29.582293  L 105.255325 35.121653  L 102.219181 26.4288  L 99.183036 19.250453  L 96.146892 12.736  L 93.110747 13.29616  L 90.074602 12.36256  L 87.038458 6.180053  L 84.002313 8.213227  L 80.966169 7.279627  L 77.930024 4.83152  L 74.89388 5.95184  L 71.857735 6.180053  L 68.82159 4.437333  L 65.785446 4.437333  L 62.749301 4.437333  L 59.713157 4.437333  L 56.677012 4.437333  L 53.640867 4.437333  L 50.604723 4.437333  L 47.568578 4.437333  L 44.532434 4.437333  L 41.496289 4.437333  L 38.460145 4.437333  L 35.424 4.437333  "
           style="fill:none;stroke:#ff7f0e;stroke-linecap:square;"
           id="path2625" />
      </g>
      <g
         id="line2d_20" />
      <g
         id="line2d_21">
        <path
           clip-path="url(#p2675933f19)"
           d="M 289 104.652756  L 287.424 104.125067  L 284.387855 105.22464  L 281.351711 104.768213  L 278.315566 104.125067  L 275.279422 104.705973  L 272.243277 104.685227  L 269.207133 103.66864  L 266.170988 104.374027  L 263.134843 103.17072  L 260.098699 104.72672  L 257.062554 103.73088  L 254.02641 103.6064  L 250.990265 103.398933  L 247.95412 103.564907  L 244.917976 103.087733  L 241.881831 103.004747  L 238.845687 103.10848  L 235.809542 102.29936  L 232.773398 102.278613  L 229.737253 102.589813  L 226.701108 102.776533  L 223.664964 102.0504  L 220.628819 102.0504  L 217.592675 101.92592  L 214.55653 101.780693  L 211.520386 100.784853  L 208.484241 101.718453  L 205.448096 100.909333  L 202.411952 99.415573  L 199.375807 99.975733  L 196.339663 100.577387  L 193.303518 100.43216  L 190.267373 99.975733  L 187.231229 99.291093  L 184.195084 97.921813  L 181.15894 98.108533  L 178.122795 98.959147  L 175.086651 99.457067  L 172.050506 97.299413  L 169.014361 95.867893  L 165.978217 96.32432  L 162.942072 97.797333  L 159.905928 95.618933  L 156.869783 94.000693  L 153.833639 90.805707  L 150.797494 93.08784  L 147.761349 90.28704  L 144.725205 93.233067  L 141.68906 89.685387  L 138.652916 86.8016  L 135.616771 83.980053  L 132.580627 84.6232  L 129.544482 84.68544  L 126.508337 83.212427  L 123.472193 79.70624  L 120.436048 79.187573  L 117.399904 82.590027  L 114.363759 72.85984  L 111.327614 74.332853  L 108.29147 66.615093  L 105.255325 56.200267  L 102.219181 65.245813  L 99.183036 49.416107  L 96.146892 56.884907  L 93.110747 46.179627  L 90.074602 37.901707  L 87.038458 37.237813  L 84.002313 28.48272  L 80.966169 19.354187  L 77.930024 18.296107  L 74.89388 19.20896  L 71.857735 13.897813  L 68.82159 6.01408  L 65.785446 6.242293  L 62.749301 7.798293  L 59.713157 4.810773  L 56.677012 4.727787  L 53.640867 4.437333  L 50.604723 4.437333  L 47.568578 4.437333  L 44.532434 4.437333  L 41.496289 4.437333  L 38.460145 4.437333  L 35.424 4.437333  "
           style="fill:none;stroke:#2ca02c;stroke-linecap:square;"
           id="path2631" />
      </g>
      <g
         id="line2d_22" />
      <g
         id="line2d_23">
        <path
           clip-path="url(#p2675933f19)"
           d="M 289 106.853963  L 287.424 106.552427  L 284.387855 106.739147  L 281.351711 106.884373  L 278.315566 106.65616  L 275.279422 107.15408  L 272.243277 106.822133  L 269.207133 106.78064  L 266.170988 106.448693  L 263.134843 106.510933  L 260.098699 107.071093  L 257.062554 105.97152  L 254.02641 106.946613  L 250.990265 106.801387  L 247.95412 106.614667  L 244.917976 105.805547  L 241.881831 106.34496  L 238.845687 106.34496  L 235.809542 106.324213  L 232.773398 106.116747  L 229.737253 105.992267  L 226.701108 105.84704  L 223.664964 105.888533  L 220.628819 106.448693  L 217.592675 106.054507  L 214.55653 104.830453  L 211.520386 105.203893  L 208.484241 104.768213  L 205.448096 105.53584  L 202.411952 105.328373  L 199.375807 105.10016  L 196.339663 105.245387  L 193.303518 104.581493  L 190.267373 104.705973  L 187.231229 105.369867  L 184.195084 104.35328  L 181.15894 105.681067  L 178.122795 104.021333  L 175.086651 102.714293  L 172.050506 104.000587  L 169.014361 102.693547  L 165.978217 103.315947  L 162.942072 103.959093  L 159.905928 103.315947  L 156.869783 103.129227  L 153.833639 102.444587  L 150.797494 101.407253  L 147.761349 101.55248  L 144.725205 101.013067  L 141.68906 100.224693  L 138.652916 98.896907  L 135.616771 100.266187  L 132.580627 100.141707  L 129.544482 100.1832  L 126.508337 97.0712  L 123.472193 98.170773  L 120.436048 93.648  L 117.399904 96.303573  L 114.363759 96.179093  L 111.327614 94.08368  L 108.29147 91.614827  L 105.255325 91.614827  L 102.219181 89.66464  L 99.183036 79.45728  L 96.146892 75.079733  L 93.110747 77.65232  L 90.074602 67.94288  L 87.038458 65.39104  L 84.002313 54.37456  L 80.966169 40.24608  L 77.930024 31.304267  L 74.89388 20.930933  L 71.857735 15.578293  L 68.82159 8.711147  L 65.785446 7.985013  L 62.749301 4.437333  L 59.713157 4.437333  L 56.677012 4.437333  L 53.640867 4.437333  L 50.604723 4.437333  L 47.568578 4.437333  L 44.532434 4.437333  L 41.496289 4.437333  L 38.460145 4.437333  L 35.424 4.437333  "
           style="fill:none;stroke:#d62728;stroke-linecap:square;"
           id="path2637" />
      </g>
      <g
         id="line2d_24">
        <path
           clip-path="url(#p2675933f19)"
           style="fill:none;stroke:#808080;stroke-dasharray:3.7,1.6;stroke-dashoffset:0;"
           id="path2640" />
      </g>
      <g
         id="patch_3">
        <path
           d="M 35.424 112.32  L 35.424 0.288  "
           style="fill:none;stroke:#000000;stroke-linecap:square;stroke-linejoin:miter;stroke-width:0.8;"
           id="path2643" />
      </g>
      <g
         id="patch_4">
        <path
           d="M 287.424 112.32  L 287.424 0.288  "
           style="fill:none;stroke:#000000;stroke-linecap:square;stroke-linejoin:miter;stroke-width:0.8;"
           id="path2646" />
      </g>
      <g
         id="patch_5">
        <path
           d="M 35.424 112.32  L 287.424 112.32  "
           style="fill:none;stroke:#000000;stroke-linecap:square;stroke-linejoin:miter;stroke-width:0.8;"
           id="path2649" />
      </g>
      <g
         id="patch_6">
        <path
           d="M 35.424 0.288  L 287.424 0.288  "
           style="fill:none;stroke:#000000;stroke-linecap:square;stroke-linejoin:miter;stroke-width:0.8;"
           id="path2652" />
      </g>
      <g
         id="legend_1">
        <g
           id="patch_7">
          <path
             d="M 222.455875 65.548547  L 280.774 65.548547  Q 282.674 65.548547 282.674 63.648547  L 282.674 6.938  Q 282.674 5.038 280.774 5.038  L 222.455875 5.038  Q 220.555875 5.038 220.555875 6.938  L 220.555875 63.648547  Q 220.555875 65.548547 222.455875 65.548547  z "
             style="fill:#ffffff;opacity:0.8;stroke:#cccccc;stroke-linejoin:miter;"
             id="path2655" />
        </g>
        <g
           id="line2d_25">
          <path
             d="M 224.355875 12.163  L 243.355875 12.163  "
             style="fill:none;stroke:#1f77b4;stroke-linecap:square;"
             id="path2658" />
        </g>
        <g
           id="line2d_26" />
        <g
           id="text_13">
          <!-- 5 balls -->
          <g
             transform="translate(249.055875 15.488)scale(0.095 -0.095)"
             id="g2679">
            <defs
               id="defs2663">
              <path
                 d="M 18.5 69.4375  L 18.5 10.109375  Q 18.5 5.90625 19.109375 4.53125  Q 19.734375 3.171875 21 2.46875  Q 22.265625 1.765625 25.734375 1.765625  L 25.734375 0  L 3.8125 0  L 3.8125 1.765625  Q 6.890625 1.765625 8 2.390625  Q 9.125 3.03125 9.765625 4.484375  Q 10.40625 5.953125 10.40625 10.109375  L 10.40625 50.734375  Q 10.40625 58.296875 10.0625 60.03125  Q 9.71875 61.765625 8.953125 62.390625  Q 8.203125 63.03125 7.03125 63.03125  Q 5.765625 63.03125 3.8125 62.25  L 2.984375 63.96875  L 16.3125 69.4375  z "
                 id="TimesNewRomanPSMT-108" />
            </defs>
            <use
               xlink:href="#TimesNewRomanPSMT-53"
               id="use2665" />
            <use
               x="50"
               xlink:href="#TimesNewRomanPSMT-32"
               id="use2667" />
            <use
               x="75"
               xlink:href="#TimesNewRomanPSMT-98"
               id="use2669" />
            <use
               x="125"
               xlink:href="#TimesNewRomanPSMT-97"
               id="use2671" />
            <use
               x="169.384766"
               xlink:href="#TimesNewRomanPSMT-108"
               id="use2673" />
            <use
               x="197.167969"
               xlink:href="#TimesNewRomanPSMT-108"
               id="use2675" />
            <use
               x="224.951172"
               xlink:href="#TimesNewRomanPSMT-115"
               id="use2677" />
          </g>
        </g>
        <g
           id="line2d_27">
          <path
             d="M 224.355875 23.220109  L 243.355875 23.220109  "
             style="fill:none;stroke:#ff7f0e;stroke-linecap:square;"
             id="path2682" />
        </g>
        <g
           id="line2d_28" />
        <g
           id="text_14">
          <!-- 7 balls -->
          <g
             transform="translate(249.055875 26.545109)scale(0.095 -0.095)"
             id="g2700">
            <use
               xlink:href="#TimesNewRomanPSMT-55"
               id="use2686" />
            <use
               x="50"
               xlink:href="#TimesNewRomanPSMT-32"
               id="use2688" />
            <use
               x="75"
               xlink:href="#TimesNewRomanPSMT-98"
               id="use2690" />
            <use
               x="125"
               xlink:href="#TimesNewRomanPSMT-97"
               id="use2692" />
            <use
               x="169.384766"
               xlink:href="#TimesNewRomanPSMT-108"
               id="use2694" />
            <use
               x="197.167969"
               xlink:href="#TimesNewRomanPSMT-108"
               id="use2696" />
            <use
               x="224.951172"
               xlink:href="#TimesNewRomanPSMT-115"
               id="use2698" />
          </g>
        </g>
        <g
           id="line2d_29">
          <path
             d="M 224.355875 34.277219  L 243.355875 34.277219  "
             style="fill:none;stroke:#2ca02c;stroke-linecap:square;"
             id="path2703" />
        </g>
        <g
           id="line2d_30" />
        <g
           id="text_15">
          <!-- 9 balls -->
          <g
             transform="translate(249.055875 37.602219)scale(0.095 -0.095)"
             id="g2724">
            <defs
               id="defs2708">
              <path
                 d="M 5.28125 -1.375  L 5.28125 0.4375  Q 11.625 0.53125 17.09375 3.390625  Q 22.5625 6.25 27.65625 13.375  Q 32.765625 20.515625 34.765625 29.046875  Q 27.09375 24.125 20.90625 24.125  Q 13.921875 24.125 8.9375 29.515625  Q 3.953125 34.90625 3.953125 43.84375  Q 3.953125 52.546875 8.9375 59.328125  Q 14.9375 67.578125 24.609375 67.578125  Q 32.765625 67.578125 38.578125 60.84375  Q 45.703125 52.484375 45.703125 40.234375  Q 45.703125 29.203125 40.28125 19.65625  Q 34.859375 10.109375 25.203125 3.8125  Q 17.328125 -1.375 8.0625 -1.375  z M 35.546875 32.671875  Q 36.421875 39.015625 36.421875 42.828125  Q 36.421875 47.5625 34.8125 53.046875  Q 33.203125 58.546875 30.25 61.46875  Q 27.296875 64.40625 23.53125 64.40625  Q 19.1875 64.40625 15.90625 60.5  Q 12.640625 56.59375 12.640625 48.875  Q 12.640625 38.578125 17 32.765625  Q 20.171875 28.5625 24.8125 28.5625  Q 27.046875 28.5625 30.125 29.640625  Q 33.203125 30.71875 35.546875 32.671875  z "
                 id="TimesNewRomanPSMT-57" />
            </defs>
            <use
               xlink:href="#TimesNewRomanPSMT-57"
               id="use2710" />
            <use
               x="50"
               xlink:href="#TimesNewRomanPSMT-32"
               id="use2712" />
            <use
               x="75"
               xlink:href="#TimesNewRomanPSMT-98"
               id="use2714" />
            <use
               x="125"
               xlink:href="#TimesNewRomanPSMT-97"
               id="use2716" />
            <use
               x="169.384766"
               xlink:href="#TimesNewRomanPSMT-108"
               id="use2718" />
            <use
               x="197.167969"
               xlink:href="#TimesNewRomanPSMT-108"
               id="use2720" />
            <use
               x="224.951172"
               xlink:href="#TimesNewRomanPSMT-115"
               id="use2722" />
          </g>
        </g>
        <g
           id="line2d_31">
          <path
             d="M 224.355875 45.334328  L 243.355875 45.334328  "
             style="fill:none;stroke:#d62728;stroke-linecap:square;"
             id="path2727" />
        </g>
        <g
           id="line2d_32" />
        <g
           id="text_16">
          <!-- 11 balls -->
          <g
             transform="translate(249.055875 48.659328)scale(0.095 -0.095)"
             id="g2747">
            <use
               xlink:href="#TimesNewRomanPSMT-49"
               id="use2731" />
            <use
               x="46.25"
               xlink:href="#TimesNewRomanPSMT-49"
               id="use2733" />
            <use
               x="96.25"
               xlink:href="#TimesNewRomanPSMT-32"
               id="use2735" />
            <use
               x="121.25"
               xlink:href="#TimesNewRomanPSMT-98"
               id="use2737" />
            <use
               x="171.25"
               xlink:href="#TimesNewRomanPSMT-97"
               id="use2739" />
            <use
               x="215.634766"
               xlink:href="#TimesNewRomanPSMT-108"
               id="use2741" />
            <use
               x="243.417969"
               xlink:href="#TimesNewRomanPSMT-108"
               id="use2743" />
            <use
               x="271.201172"
               xlink:href="#TimesNewRomanPSMT-115"
               id="use2745" />
          </g>
        </g>
        <g
           id="line2d_33" />
        <g
           id="line2d_34" />
        <g
           id="text_17">
          <!-- no colls -->
        </g>
      </g>
    </g>
  </g>
  <defs
     id="defs2779">
    <clipPath
       id="p2675933f19">
      <rect
         height="112.032"
         width="252"
         x="35.424"
         y="0.288"
         id="rect2776" />
    </clipPath>
  </defs>
</svg>
