<?xml version="1.0" encoding="UTF-8" standalone="no"?>
<svg
   xmlns:dc="http://purl.org/dc/elements/1.1/"
   xmlns:cc="http://creativecommons.org/ns#"
   xmlns:rdf="http://www.w3.org/1999/02/22-rdf-syntax-ns#"
   xmlns:svg="http://www.w3.org/2000/svg"
   xmlns="http://www.w3.org/2000/svg"
   xmlns:sodipodi="http://sodipodi.sourceforge.net/DTD/sodipodi-0.dtd"
   xmlns:inkscape="http://www.inkscape.org/namespaces/inkscape"
   width="70mm"
   height="36mm"
   viewBox="0 0 70 36"
   version="1.1"
   id="svg4084"
   inkscape:version="1.0.2 (1.0.2+r75+1)"
   sodipodi:docname="contr_take_off.svg">
  <defs
     id="defs4078">
    <marker
       style="overflow:visible"
       id="marker5279"
       refX="0"
       refY="0"
       orient="auto"
       inkscape:stockid="Arrow1Mend"
       inkscape:isstock="true">
      <path
         transform="matrix(-0.4,0,0,-0.4,-4,0)"
         style="fill:#6e0000;fill-opacity:1;fill-rule:evenodd;stroke:#6e0000;stroke-width:1pt;stroke-opacity:1"
         d="M 0,0 5,-5 -12.5,0 5,5 Z"
         id="path5277" />
    </marker>
  </defs>
  <sodipodi:namedview
     id="base"
     pagecolor="#ffffff"
     bordercolor="#666666"
     borderopacity="1.0"
     inkscape:pageopacity="0.0"
     inkscape:pageshadow="2"
     inkscape:zoom="3.959798"
     inkscape:cx="159.68674"
     inkscape:cy="79.74662"
     inkscape:document-units="mm"
     inkscape:current-layer="layer1"
     inkscape:document-rotation="0"
     showgrid="false"
     inkscape:window-width="1920"
     inkscape:window-height="1052"
     inkscape:window-x="1920"
     inkscape:window-y="0"
     inkscape:window-maximized="1" />
  <metadata
     id="metadata4081">
    <rdf:RDF>
      <cc:Work
         rdf:about="">
        <dc:format>image/svg+xml</dc:format>
        <dc:type
           rdf:resource="http://purl.org/dc/dcmitype/StillImage" />
        <dc:title></dc:title>
      </cc:Work>
    </rdf:RDF>
  </metadata>
  <g
     inkscape:label="Layer 1"
     inkscape:groupmode="layer"
     id="layer1">
    <g
       id="g4816"
       transform="matrix(1.2029376,0,0,1.2267129,-3.5264733,-10.881997)"
       style="stroke-width:0.823202">
      <g
         id="g3303"
         transform="matrix(0.35277777,0,0,0.35277777,8.6043221,12.24431)"
         style="stroke-width:0.823202" />
      <g
         id="g3307"
         transform="matrix(-0.35277777,-0.31314813,0.31314813,-0.35277777,8.6043221,12.24431)"
         style="stroke-width:0.823202" />
    </g>
    <path
       id="rect5108"
       style="fill:#000000;stroke:#6e0000;stroke-width:0.499999;stroke-linecap:square;stroke-linejoin:round;stroke-miterlimit:4;stroke-dasharray:none;stroke-opacity:1"
       d="m 57.083342,21.281054 -3.846882,0.918166 4.22707,1.06305 -4.22707,1.063614 3.846882,0.918166 4.128321,-1.038343 4.128323,1.038343 3.846882,-0.918166 -4.227073,-1.063614 4.227073,-1.06305 -3.846882,-0.918166 -4.128323,1.03834 z" />
    <path
       style="fill:none;stroke:#6e0000;stroke-width:0.5;stroke-linecap:butt;stroke-linejoin:miter;stroke-miterlimit:4;stroke-dasharray:none;stroke-opacity:1;marker-end:url(#marker5279)"
       d="M 16.034989,19.315544 C 30.143074,-8.6692833 52.065427,-2.4955033 61.211663,22.319394"
       id="path5275"
       sodipodi:nodetypes="cc" />
    <g
       id="g3229"
       transform="matrix(0.37434872,0.19459067,-0.18976286,0.38336493,-5.1029708,14.396819)"
       style="stroke-width:0.931016">
      <path
         d="M 66.142,3.967 C 66.143,12.927 58.906,20.198 49.953,20.238 41.001,20.279 33.7,13.07 33.618,4.112 c -0.079,-8.96 7.094,-16.296 16.045,-16.418 8.952,-0.118 16.317,7.026 16.476,15.981"
         style="fill:#aa0000;fill-opacity:1;fill-rule:nonzero;stroke:#880000;stroke-width:1.17707;stroke-linecap:round;stroke-linejoin:miter;stroke-miterlimit:4;stroke-dasharray:none;stroke-opacity:1"
         id="path3231" />
    </g>
    <g
       id="g3267"
       transform="matrix(0.37410116,0.19446186,-0.18976248,0.38336493,-0.58335242,5.2044028)"
       style="stroke-width:0.931016">
      <path
         d="m 18.67,5.729 21.809,42.91"
         style="fill:none;stroke:#000000;stroke-width:1.64846;stroke-linecap:round;stroke-linejoin:miter;stroke-miterlimit:4;stroke-dasharray:none;stroke-opacity:1"
         id="path3269" />
    </g>
    <g
       id="g3271"
       transform="matrix(0.37410116,0.19446186,-0.18976248,0.38336493,-0.58335242,5.2044028)"
       style="stroke-width:0.931016">
      <path
         d="M 40.479,48.639 59.347,48.638"
         style="fill:none;stroke:#000000;stroke-width:1.64846;stroke-linecap:round;stroke-linejoin:miter;stroke-miterlimit:4;stroke-dasharray:none;stroke-opacity:1"
         id="path3273" />
    </g>
    <g
       id="g3275"
       transform="matrix(0.37410116,0.19446186,-0.18976248,0.38336493,-0.58335242,5.2044028)"
       style="stroke-width:0.931016">
      <path
         d="M 81.159,5.731 59.347,48.638"
         style="fill:none;stroke:#000000;stroke-width:1.64846;stroke-linecap:round;stroke-linejoin:miter;stroke-miterlimit:4;stroke-dasharray:none;stroke-opacity:1"
         id="path3277" />
    </g>
  </g>
</svg>
