<?xml version="1.0" encoding="UTF-8" standalone="no"?>
<svg
   xmlns:dc="http://purl.org/dc/elements/1.1/"
   xmlns:cc="http://creativecommons.org/ns#"
   xmlns:rdf="http://www.w3.org/1999/02/22-rdf-syntax-ns#"
   xmlns:svg="http://www.w3.org/2000/svg"
   xmlns="http://www.w3.org/2000/svg"
   xmlns:sodipodi="http://sodipodi.sourceforge.net/DTD/sodipodi-0.dtd"
   xmlns:inkscape="http://www.inkscape.org/namespaces/inkscape"
   width="70mm"
   height="50mm"
   viewBox="0 0 70 50"
   version="1.1"
   id="svg4084"
   inkscape:version="1.0.2 (1.0.2+r75+1)"
   sodipodi:docname="contr_post_take_off.svg">
  <defs
     id="defs4078">
    <marker
       style="overflow:visible"
       id="Arrow1Mend"
       refX="0"
       refY="0"
       orient="auto"
       inkscape:stockid="Arrow1Mend"
       inkscape:isstock="true">
      <path
         transform="matrix(-0.4,0,0,-0.4,-4,0)"
         style="fill:#6e0000;fill-opacity:1;fill-rule:evenodd;stroke:#6e0000;stroke-width:1pt;stroke-opacity:1"
         d="M 0,0 5,-5 -12.5,0 5,5 Z"
         id="path4829" />
    </marker>
  </defs>
  <sodipodi:namedview
     id="base"
     pagecolor="#ffffff"
     bordercolor="#666666"
     borderopacity="1.0"
     inkscape:pageopacity="0.0"
     inkscape:pageshadow="2"
     inkscape:zoom="2.8"
     inkscape:cx="216.9846"
     inkscape:cy="124.29096"
     inkscape:document-units="mm"
     inkscape:current-layer="g5188"
     inkscape:document-rotation="0"
     showgrid="false"
     inkscape:window-width="1920"
     inkscape:window-height="1052"
     inkscape:window-x="1920"
     inkscape:window-y="0"
     inkscape:window-maximized="1" />
  <metadata
     id="metadata4081">
    <rdf:RDF>
      <cc:Work
         rdf:about="">
        <dc:format>image/svg+xml</dc:format>
        <dc:type
           rdf:resource="http://purl.org/dc/dcmitype/StillImage" />
        <dc:title></dc:title>
      </cc:Work>
    </rdf:RDF>
  </metadata>
  <g
     inkscape:label="Layer 1"
     inkscape:groupmode="layer"
     id="layer1">
    <g
       id="g4816"
       transform="matrix(1.2029376,0,0,1.2267129,-3.5264733,-10.881997)"
       style="stroke-width:0.823202">
      <g
         id="g3303"
         transform="matrix(0.35277777,0,0,0.35277777,8.6043221,12.24431)"
         style="stroke-width:0.823202" />
      <g
         id="g3307"
         transform="matrix(-0.35277777,-0.31314813,0.31314813,-0.35277777,8.6043221,12.24431)"
         style="stroke-width:0.823202" />
    </g>
    <g
       id="g5188">
      <g
         id="g3229"
         transform="matrix(0.37434872,0.19459067,-0.18976286,0.38336493,-0.58335242,5.2044028)"
         style="stroke-width:0.931016">
        <path
           d="M 66.142,3.967 C 66.143,12.927 58.906,20.198 49.953,20.238 41.001,20.279 33.7,13.07 33.618,4.112 c -0.079,-8.96 7.094,-16.296 16.045,-16.418 8.952,-0.118 16.317,7.026 16.476,15.981"
           style="fill:#aa0000;fill-opacity:1;fill-rule:nonzero;stroke:#880000;stroke-width:1.17707;stroke-linecap:round;stroke-linejoin:miter;stroke-miterlimit:4;stroke-dasharray:none;stroke-opacity:1"
           id="path3231" />
      </g>
      <g
         id="g3233"
         transform="matrix(0.37452062,0,0,0.38336493,-0.58335242,5.2044028)"
         style="stroke-width:0.931016">
        <path
           d="M 25.32,73.754 32.504,59.578"
           style="fill:none;stroke:#000000;stroke-width:1.05564;stroke-linecap:butt;stroke-linejoin:miter;stroke-miterlimit:4;stroke-dasharray:none;stroke-opacity:1"
           id="path3235" />
      </g>
      <g
         id="g3237"
         transform="matrix(-0.18976286,0.38336493,-0.37452062,-0.19424411,-0.58335242,5.2044028)"
         style="stroke-width:0.931016">
        <path
           d="m 36.251,-48.661 -3.313,-1.219 3.315,-1.219 c -0.529,0.721 -0.527,1.704 -0.002,2.438 z"
           style="fill:#000000;fill-opacity:1;fill-rule:evenodd;stroke:#000000;stroke-width:0.176562;stroke-linecap:butt;stroke-linejoin:round;stroke-miterlimit:4;stroke-dasharray:none;stroke-opacity:1"
           id="path3239" />
      </g>
      <g
         id="g3241"
         transform="matrix(0.37452062,0,0,0.38336493,-0.58335242,5.2044028)"
         style="stroke-width:0.931016">
        <path
           d="M 25.32,73.754 25.293,87.617"
           style="fill:none;stroke:#6e0000;stroke-width:1.05564;stroke-linecap:butt;stroke-linejoin:miter;stroke-miterlimit:4;stroke-dasharray:none;stroke-opacity:1"
           id="path3243" />
      </g>
      <g
         id="g3245"
         transform="matrix(7.6282734e-4,-0.38336493,0.37452062,7.8084152e-4,-0.58335242,5.2044028)"
         style="stroke-width:0.931016">
        <path
           d="m -85.383,26.842 -3.714,-1.368 3.716,-1.367 c -0.596,0.81 -0.589,1.912 -0.002,2.735 z"
           style="fill:#6e0000;fill-opacity:1;fill-rule:evenodd;stroke:#6e0000;stroke-width:0.197932;stroke-linecap:butt;stroke-linejoin:round;stroke-miterlimit:4;stroke-dasharray:none;stroke-opacity:1"
           id="path3247" />
      </g>
      <g
         id="g3249"
         transform="matrix(0.37452062,0,0,0.38336493,-0.58335242,5.2044028)"
         style="stroke-width:0.931016">
        <path
           d="M 25.457,73.5 12.664,97.93"
           style="fill:none;stroke:#6e0000;stroke-width:1.05564;stroke-linecap:butt;stroke-linejoin:miter;stroke-miterlimit:4;stroke-dasharray:none;stroke-opacity:1"
           id="path3251" />
      </g>
      <g
         id="g3253"
         transform="matrix(0.19611697,-0.38336493,0.37452062,0.20074827,-0.58335242,5.2044028)"
         style="stroke-width:0.931016">
        <path
           d="m -69.713,51.4 -3.295,-1.212 3.293,-1.209 c -0.526,0.713 -0.524,1.692 0.002,2.421 z"
           style="fill:#6e0000;fill-opacity:1;fill-rule:evenodd;stroke:#6e0000;stroke-width:0.175347;stroke-linecap:butt;stroke-linejoin:round;stroke-miterlimit:4;stroke-dasharray:none;stroke-opacity:1"
           id="path3255" />
      </g>
      <path
         d="M 4.4902779,47.507956 4.149465,48.44989 3.8127701,47.506424 c 0.2003684,0.151041 0.4741435,0.151041 0.6775078,0.0011 z"
         style="fill:#ffffff;fill-opacity:1;fill-rule:evenodd;stroke:none;stroke-width:0.352778"
         id="path3257" />
      <g
         id="g3259"
         transform="matrix(0.37452062,0,0,0.38336493,-0.58335242,5.2044028)"
         style="stroke-width:0.931016">
        <path
           d="M 25.32,73.754 12.637,111.789"
           style="fill:none;stroke:#6e0000;stroke-width:1.05564;stroke-linecap:butt;stroke-linejoin:miter;stroke-miterlimit:4;stroke-dasharray:none;stroke-opacity:1"
           id="path3261" />
      </g>
      <g
         id="g3263"
         transform="matrix(0.12489327,-0.38336493,0.37452062,0.12784262,-0.58335242,5.2044028)"
         style="stroke-width:0.931016">
        <path
           d="m -94.739,46.222 -3.526,-1.297 3.525,-1.296 c -0.561,0.765 -0.56,1.811 10e-4,2.593 z"
           style="fill:#6e0000;fill-opacity:1;fill-rule:evenodd;stroke:#6e0000;stroke-width:0.187767;stroke-linecap:butt;stroke-linejoin:round;stroke-miterlimit:4;stroke-dasharray:none;stroke-opacity:1"
           id="path3265" />
      </g>
      <g
         id="g3267"
         transform="matrix(0.37410116,0.19446186,-0.18976248,0.38336493,-0.58335242,5.2044028)"
         style="stroke-width:0.931016">
        <path
           d="m 18.67,5.729 21.809,42.91"
           style="fill:none;stroke:#000000;stroke-width:1.64846;stroke-linecap:round;stroke-linejoin:miter;stroke-miterlimit:4;stroke-dasharray:none;stroke-opacity:1"
           id="path3269" />
      </g>
      <g
         id="g3271"
         transform="matrix(0.37410116,0.19446186,-0.18976248,0.38336493,-0.58335242,5.2044028)"
         style="stroke-width:0.931016">
        <path
           d="M 40.479,48.639 59.347,48.638"
           style="fill:none;stroke:#000000;stroke-width:1.64846;stroke-linecap:round;stroke-linejoin:miter;stroke-miterlimit:4;stroke-dasharray:none;stroke-opacity:1"
           id="path3273" />
      </g>
      <g
         id="g3275"
         transform="matrix(0.37410116,0.19446186,-0.18976248,0.38336493,-0.58335242,5.2044028)"
         style="stroke-width:0.931016">
        <path
           d="M 81.159,5.731 59.347,48.638"
           style="fill:none;stroke:#000000;stroke-width:1.64846;stroke-linecap:round;stroke-linejoin:miter;stroke-miterlimit:4;stroke-dasharray:none;stroke-opacity:1"
           id="path3277" />
      </g>
      <text
         transform="scale(0.9883139,1.0118243)"
         style="font-variant:normal;font-weight:bold;font-size:4.15403px;font-family:'Times New Roman';-inkscape-font-specification:TimesNewRomanPS-BoldMT;writing-mode:lr-tb;fill:#000000;fill-opacity:1;fill-rule:nonzero;stroke:none;stroke-width:0.352748"
         id="text3313"
         x="10.751043"
         y="32.296825"><tspan
           x="10.751043"
           y="32.296825"
           id="tspan3311"
           style="stroke-width:0.352748">e</tspan></text>
      <text
         transform="scale(0.9883139,1.0118243)"
         style="font-style:italic;font-variant:normal;font-size:2.70009px;font-family:'Times New Roman';-inkscape-font-specification:TimesNewRomanPS-ItalicMT;writing-mode:lr-tb;fill:#000000;fill-opacity:1;fill-rule:nonzero;stroke:none;stroke-width:0.352748"
         id="text3317"
         x="12.592758"
         y="33.127621"><tspan
           x="12.592758"
           y="33.127621"
           id="tspan3315"
           style="stroke-width:0.352748">h</tspan></text>
      <text
         transform="scale(0.9883139,1.0118243)"
         style="font-variant:normal;font-weight:bold;font-size:4.07006px;font-family:'Times New Roman';-inkscape-font-specification:TimesNewRomanPS-BoldMT;writing-mode:lr-tb;fill:#000000;fill-opacity:1;fill-rule:nonzero;stroke:none;stroke-width:0.352748"
         id="text3321"
         x="18.27894"
         y="26.945641"><tspan
           x="18.27894"
           y="26.945641"
           id="tspan3319"
           style="stroke-width:0.352748">g</tspan></text>
      <text
         transform="scale(0.9883139,1.0118243)"
         style="font-variant:normal;font-weight:bold;font-size:4.15956px;font-family:'Times New Roman';-inkscape-font-specification:TimesNewRomanPS-BoldMT;writing-mode:lr-tb;fill:#000000;fill-opacity:1;fill-rule:nonzero;stroke:none;stroke-width:0.352748"
         id="text3325"
         x="9.9431849"
         y="39.095898"><tspan
           x="9.9431849"
           y="39.095898"
           id="tspan3323"
           style="stroke-width:0.352748">g</tspan></text>
      <text
         transform="scale(0.96115992,1.0404096)"
         style="font-variant:normal;font-weight:bold;font-size:4.07373px;font-family:'Times New Roman';-inkscape-font-specification:TimesNewRomanPS-BoldMT;writing-mode:lr-tb;fill:#000000;fill-opacity:1;fill-rule:nonzero;stroke:none;stroke-width:0.343056"
         id="text3329"
         x="0.3619574"
         y="37.042511"><tspan
           x="0.3619574"
           y="37.042511"
           id="tspan3327"
           style="stroke-width:0.343056">x</tspan></text>
      <text
         transform="scale(0.96115992,1.0404096)"
         style="font-variant:normal;font-weight:normal;font-size:4.07373px;font-family:'Times New Roman';-inkscape-font-specification:TimesNewRomanPSMT;writing-mode:lr-tb;fill:#000000;fill-opacity:1;fill-rule:nonzero;stroke:none;stroke-width:0.343056"
         id="text3333"
         x="2.3988242"
         y="37.042511"><tspan
           x="2.3988242"
           y="37.042511"
           id="tspan3331"
           style="stroke-width:0.343056">-</tspan></text>
      <text
         transform="scale(0.96115992,1.0404096)"
         style="font-variant:normal;font-weight:bold;font-size:4.07373px;font-family:'Times New Roman';-inkscape-font-specification:TimesNewRomanPS-BoldMT;writing-mode:lr-tb;fill:#000000;fill-opacity:1;fill-rule:nonzero;stroke:none;stroke-width:0.343056"
         id="text3337"
         x="3.7553763"
         y="37.042511"><tspan
           x="3.7553763"
           y="37.042511"
           id="tspan3335"
           style="stroke-width:0.343056">g</tspan></text>
      <path
         d="m 1.0933762,36.222461 c 0,0.100412 -0.079028,0.181328 -0.17714835,0.181328 -0.0981246,0.0011 -0.17714795,-0.07933 -0.17864602,-0.179795 -0.001497,-0.100412 0.0775258,-0.18248 0.17565009,-0.184012 0.0981268,-0.0011 0.17864628,0.07781 0.18014428,0.177883"
         style="fill:#000000;fill-opacity:1;fill-rule:nonzero;stroke:none;stroke-width:0.352778"
         id="path3339" />
      <path
         d="m 1.8218191,36.220929 c 0,0.100412 -0.079028,0.181328 -0.1771484,0.181328 -0.097745,0.0011 -0.1767736,-0.07933 -0.1782716,-0.179796 0,-0.100411 0.07752,-0.182479 0.1752757,-0.184011 0.098127,-0.0011 0.1786463,0.07933 0.1801443,0.179415"
         style="fill:#000000;fill-opacity:1;fill-rule:nonzero;stroke:none;stroke-width:0.352778"
         id="path3341" />
      <text
         transform="scale(0.9883139,1.0118243)"
         style="font-variant:normal;font-weight:bold;font-size:4.1649px;font-family:'Times New Roman';-inkscape-font-specification:TimesNewRomanPS-BoldMT;writing-mode:lr-tb;fill:#000000;fill-opacity:1;fill-rule:nonzero;stroke:none;stroke-width:0.352748"
         id="text3345"
         x="5.6746507"
         y="47.436871"><tspan
           x="5.6746507"
           y="47.436871"
           id="tspan3343"
           style="stroke-width:0.352748">x</tspan></text>
      <path
         d="m 6.3774882,45.644803 c 0,0.118461 -0.093636,0.214298 -0.2093572,0.214298 -0.1153529,0.0011 -0.2104805,-0.09433 -0.2104805,-0.212766 -0.00149,-0.11807 0.090632,-0.21545 0.2063603,-0.216982 0.1168507,-0.0011 0.2119784,0.0928 0.2134774,0.211233"
         style="fill:#000000;fill-opacity:1;fill-rule:nonzero;stroke:none;stroke-width:0.352778"
         id="path3347" />
      <path
         d="m 7.2392595,45.643271 c 0,0.118461 -0.093625,0.214298 -0.2093573,0.214298 -0.1153517,0.0011 -0.2104805,-0.09433 -0.2119784,-0.212766 0,-0.118071 0.092129,-0.21545 0.2074845,-0.216982 0.1157266,-0.0011 0.2108553,0.0928 0.2138512,0.211233"
         style="fill:#000000;fill-opacity:1;fill-rule:nonzero;stroke:none;stroke-width:0.352778"
         id="path3349" />
      <g
         id="g3351"
         transform="matrix(0.37452062,0,0,0.38336493,-0.58335242,5.2044028)"
         style="stroke-width:0.931016">
        <path
           d="M 47.855,48.262 47.828,62.125"
           style="fill:none;stroke:#6e0000;stroke-width:1.05564;stroke-linecap:butt;stroke-linejoin:miter;stroke-miterlimit:4;stroke-dasharray:none;stroke-opacity:1"
           id="path3353" />
      </g>
      <g
         id="g3355"
         transform="matrix(7.6282734e-4,-0.38336493,0.37452062,7.8084152e-4,-0.58335242,5.2044028)"
         style="stroke-width:0.931016">
        <path
           d="m -59.845,49.325 -3.714,-1.367 3.716,-1.367 c -0.596,0.806 -0.589,1.911 -0.002,2.734 z"
           style="fill:#6e0000;fill-opacity:1;fill-rule:evenodd;stroke:#6e0000;stroke-width:0.197932;stroke-linecap:butt;stroke-linejoin:round;stroke-miterlimit:4;stroke-dasharray:none;stroke-opacity:1"
           id="path3357" />
      </g>
      <path
         style="fill:none;stroke:#6e0000;stroke-width:0.5;stroke-linecap:butt;stroke-linejoin:miter;stroke-miterlimit:4;stroke-dasharray:none;stroke-opacity:1;marker-end:url(#Arrow1Mend)"
         d="M 21.309911,10.416042 C 32.710047,-5.497396 52.065427,-2.4955033 61.211663,22.319394"
         id="path4818"
         sodipodi:nodetypes="cc" />
      <path
         id="rect5108"
         style="fill:#000000;stroke:#6e0000;stroke-width:0.499999;stroke-linecap:square;stroke-linejoin:round;stroke-miterlimit:4;stroke-dasharray:none;stroke-opacity:1"
         d="m 57.083342,21.281054 -3.846882,0.918166 4.22707,1.06305 -4.22707,1.063614 3.846882,0.918166 4.128321,-1.038343 4.128323,1.038343 3.846882,-0.918166 -4.227073,-1.063614 4.227073,-1.06305 -3.846882,-0.918166 -4.128323,1.03834 z" />
    </g>
  </g>
</svg>
