<?xml version="1.0" encoding="UTF-8" standalone="no"?>
<svg
   xmlns:dc="http://purl.org/dc/elements/1.1/"
   xmlns:cc="http://creativecommons.org/ns#"
   xmlns:rdf="http://www.w3.org/1999/02/22-rdf-syntax-ns#"
   xmlns:svg="http://www.w3.org/2000/svg"
   xmlns="http://www.w3.org/2000/svg"
   version="1.1"
   id="svg2049"
   xml:space="preserve"
   width="200"
   height="200"
   viewBox="0 0 200 200"><metadata
     id="metadata2055"><rdf:RDF><cc:Work
         rdf:about=""><dc:format>image/svg+xml</dc:format><dc:type
           rdf:resource="http://purl.org/dc/dcmitype/StillImage" /><dc:title></dc:title></cc:Work></rdf:RDF></metadata><defs
     id="defs2053" /><g
     id="g2057"
     transform="matrix(1.3333333,0,0,-1.3333333,0,200)"><g
       id="g2641"
       transform="matrix(1.371794,0,0,1.371794,-28.510115,-28.868559)"
       style="stroke-width:0.728972"><path
         d="m 77.802,82.332 c -0.9016,0.3438 -1.8508,0.5215 -2.802,0.5215 -2.0098,0 -4.0195,-0.7672 -5.5531,-2.3004 -3.0668,-3.0668 -3.0668,-8.0394 0,-11.1058 1.5336,-1.534 3.5433,-2.3008 5.5531,-2.3008 2.0098,0 4.0195,0.7668 5.5527,2.3008 2.2598,2.259 2.8489,5.5507 1.7793,8.3547 L 77.2656,72.7355 C 76.6602,72.1301 75.8555,71.7969 75,71.7969 c -0.9648,0 -1.8699,0.4297 -2.4844,1.1804 -1.0269,1.2547 -0.8918,3.177 0.3074,4.3762 l 4.979,4.9785"
         style="fill:#231f20;fill-opacity:1;fill-rule:nonzero;stroke:none;stroke-width:0.0728972"
         id="path2063" /><path
         d="m 90.0129,94.543 c -4.416,3.4004 -9.7094,5.123 -15.0129,5.123 -6.3125,0 -12.625,-2.4082 -17.4414,-7.2246 -9.6328,-9.6328 -9.6328,-25.25 0,-34.8828 C 62.375,52.7422 68.6875,50.334 75,50.334 c 6.3125,0 12.625,2.4082 17.4414,7.2246 8.8636,8.8633 9.5486,22.7812 2.1016,32.4543 L 88.8262,84.2961 C 93.1836,77.8188 92.5078,68.9387 86.7844,63.2156 83.6367,60.0676 79.4512,58.334 75,58.334 c -4.4516,0 -8.6367,1.7336 -11.7848,4.8816 -6.498,6.4985 -6.498,17.0711 0,23.5692 3.1481,3.1472 7.3332,4.8812 11.7848,4.8812 3.3645,0 6.5742,-0.993 9.3008,-2.8347 l 5.7121,5.7117"
         style="fill:#231f20;fill-opacity:1;fill-rule:nonzero;stroke:none;stroke-width:0.0728972"
         id="path2065" /><path
         d="m 105.763,101.233 -4.936,-4.9361 C 111.677,83.1582 110.962,63.616 98.673,51.327 92.3496,45.0039 83.9426,41.5211 75,41.5211 c -8.9426,0 -17.3496,3.4828 -23.673,9.8059 -6.3231,6.3234 -9.8055,14.7304 -9.8055,23.673 0,8.9426 3.4824,17.3496 9.8055,23.673 6.3234,6.323 14.7304,9.806 23.673,9.806 7.866,0 15.3152,-2.697 21.2996,-7.649 l 4.9324,4.933 -0.226,1.549 c -7.5712,6.108 -16.7872,9.167 -26.006,9.167 -10.6152,0 -21.2305,-4.05 -29.3297,-12.149 -16.1984,-16.1987 -16.1984,-42.4609 0,-58.6601 C 53.7695,37.5711 64.3848,33.5211 75,33.5211 c 10.6152,0 21.2305,4.05 29.33,12.1488 15.133,15.1328 16.123,39.0473 2.982,55.3351 l -1.549,0.228"
         style="fill:#231f20;fill-opacity:1;fill-rule:nonzero;stroke:none;stroke-width:0.0728972"
         id="path2067" /><path
         d="M 73.5375,76.6539 C 72.7074,75.823 72.559,74.4617 73.323,73.5703 73.7652,73.0547 74.3828,72.7969 75,72.7969 c 0.5641,0 1.1277,0.2148 1.5574,0.6457 l 27.8776,27.8754 c 0.614,0.615 1.483,0.903 2.342,0.777 l 6.101,-0.895 c 1.159,-0.17 2.331,0.218 3.159,1.046 l 13.833,13.834 -10.524,1.543 c -0.892,0.131 -1.592,0.831 -1.723,1.723 l -1.544,10.525 -13.833,-13.834 c -0.828,-0.828 -1.217,-2 -1.047,-3.159 l 0.896,-6.101 c 0.126,-0.859 -0.162,-1.728 -0.777,-2.342 L 73.5375,76.6539"
         style="fill:#231f20;fill-opacity:1;fill-rule:nonzero;stroke:none;stroke-width:0.0728972"
         id="path2069" /></g></g></svg>
