<?xml version="1.0" encoding="UTF-8" standalone="no"?>
<svg
   xmlns:dc="http://purl.org/dc/elements/1.1/"
   xmlns:cc="http://creativecommons.org/ns#"
   xmlns:rdf="http://www.w3.org/1999/02/22-rdf-syntax-ns#"
   xmlns:svg="http://www.w3.org/2000/svg"
   xmlns="http://www.w3.org/2000/svg"
   version="1.1"
   id="svg2679"
   xml:space="preserve"
   width="666.66669"
   height="666.66669"
   viewBox="0 0 666.66669 666.66669"><metadata
     id="metadata2685"><rdf:RDF><cc:Work
         rdf:about=""><dc:format>image/svg+xml</dc:format><dc:type
           rdf:resource="http://purl.org/dc/dcmitype/StillImage" /><dc:title></dc:title></cc:Work></rdf:RDF></metadata><defs
     id="defs2683" /><g
     id="g2687"
     transform="matrix(1.3333333,0,0,-1.3333333,0,666.66667)"
     style="opacity:0.999"><g
       id="g3267"
       transform="matrix(1.496272,0,0,1.496272,-124.06761,-124.068)"
       style="stroke-width:0.668327"><path
         d="M 109.231,250 C 145.951,294.453 197.975,322.019 250,321.557 302.024,322.019 354.049,294.453 390.769,250 354.049,205.547 302.024,177.981 250,178.443 197.975,177.981 145.951,205.547 109.231,250 Z m -25.4115,0 C 124.663,193.628 187.331,155.485 250,156.347 312.669,155.485 375.338,193.628 416.18,250 375.337,306.372 312.669,344.515 250,343.653 187.331,344.515 124.662,306.372 83.8195,250"
         style="fill:#1a1a1a;fill-opacity:1;fill-rule:nonzero;stroke:none;stroke-width:0.0668327"
         id="path2693" /><path
         d="m 250.001,189.403 c -33.468,0 -60.599,27.131 -60.599,60.599 0,33.469 27.131,60.6 60.599,60.6 33.468,0 60.6,-27.131 60.6,-60.6 0,-33.468 -27.132,-60.599 -60.6,-60.599 z m 0,140.469 c -44.11,0 -79.869,-35.759 -79.869,-79.87 0,-44.11 35.759,-79.869 79.869,-79.869 44.111,0 79.869,35.759 79.869,79.869 0,44.111 -35.758,79.87 -79.869,79.87"
         style="fill:#1a1a1a;fill-opacity:1;fill-rule:nonzero;stroke:none;stroke-width:0.0668327"
         id="path2695" /><path
         d="m 250.001,283.256 c -1.64,0 -3.25,-0.123 -4.826,-0.353 1.784,-2.649 2.826,-5.839 2.826,-9.274 0,-9.182 -7.444,-16.627 -16.627,-16.627 -4.845,0 -9.192,2.086 -12.231,5.392 -1.54,-3.83 -2.396,-8.01 -2.396,-12.392 0,-18.365 14.888,-33.253 33.254,-33.253 18.366,0 33.254,14.888 33.254,33.253 0,18.366 -14.888,33.254 -33.254,33.254"
         style="fill:#1a1a1a;fill-opacity:1;fill-rule:nonzero;stroke:none;stroke-width:0.0668327"
         id="path2697" /></g></g></svg>
