<?xml version="1.0" encoding="UTF-8" standalone="no"?>
<svg
   xmlns:dc="http://purl.org/dc/elements/1.1/"
   xmlns:cc="http://creativecommons.org/ns#"
   xmlns:rdf="http://www.w3.org/1999/02/22-rdf-syntax-ns#"
   xmlns:svg="http://www.w3.org/2000/svg"
   xmlns="http://www.w3.org/2000/svg"
   xmlns:sodipodi="http://sodipodi.sourceforge.net/DTD/sodipodi-0.dtd"
   xmlns:inkscape="http://www.inkscape.org/namespaces/inkscape"
   width="30mm"
   height="40mm"
   viewBox="0 0 30 40"
   version="1.1"
   id="svg2332"
   inkscape:version="1.0.2 (1.0.2+r75+1)"
   sodipodi:docname="hand_cycle.svg">
  <defs
     id="defs2326" />
  <sodipodi:namedview
     id="base"
     pagecolor="#ffffff"
     bordercolor="#666666"
     borderopacity="1.0"
     inkscape:pageopacity="0.0"
     inkscape:pageshadow="2"
     inkscape:zoom="3.959798"
     inkscape:cx="80.858393"
     inkscape:cy="73.527881"
     inkscape:document-units="mm"
     inkscape:current-layer="layer1"
     inkscape:document-rotation="0"
     showgrid="false"
     inkscape:window-width="1920"
     inkscape:window-height="1052"
     inkscape:window-x="1920"
     inkscape:window-y="0"
     inkscape:window-maximized="1" />
  <metadata
     id="metadata2329">
    <rdf:RDF>
      <cc:Work
         rdf:about="">
        <dc:format>image/svg+xml</dc:format>
        <dc:type
           rdf:resource="http://purl.org/dc/dcmitype/StillImage" />
        <dc:title></dc:title>
      </cc:Work>
    </rdf:RDF>
  </metadata>
  <g
     inkscape:label="Layer 1"
     inkscape:groupmode="layer"
     id="layer1">
    <g
       id="g1045"
       transform="matrix(0.35277777,0,0,0.35277777,-68.695264,-1.77385)">
      <path
         d="m 227.137,72.984 c 3.086,24.129 38,24.059 40.695,-0.769"
         style="fill:none;stroke:#000000;stroke-width:1.41732;stroke-linecap:round;stroke-linejoin:miter;stroke-miterlimit:4;stroke-dasharray:none;stroke-opacity:1"
         id="path1047" />
    </g>
    <g
       id="g1049"
       transform="matrix(0.04510899,0.35277777,-0.35277777,0.04510899,-68.695264,-1.77385)">
      <path
         d="m 103.095,-212.599 -4.608,-1.694 4.608,-1.696 c -0.738,1.003 -0.733,2.371 0,3.39 z"
         style="fill:#000000;fill-opacity:1;fill-rule:evenodd;stroke:#000000;stroke-width:0.263602;stroke-linecap:butt;stroke-linejoin:round;stroke-miterlimit:4;stroke-dasharray:none;stroke-opacity:1"
         id="path1051" />
    </g>
    <g
       id="g1053"
       transform="matrix(0.35277777,0,0,0.35277777,-68.695264,-1.77385)">
      <path
         d="M 267.406,67.012 C 263.582,45.078 231.32,43.043 227.254,67.805"
         style="fill:none;stroke:#000000;stroke-width:1.41732;stroke-linecap:round;stroke-linejoin:miter;stroke-miterlimit:4;stroke-dasharray:none;stroke-opacity:1"
         id="path1055" />
    </g>
    <g
       id="g1057"
       transform="matrix(-0.06152762,-0.35277777,0.35277777,-0.06152762,-68.695264,-1.77385)">
      <path
         d="m -107.605,249.862 -4.578,-1.685 4.575,-1.683 c -0.728,0.994 -0.727,2.354 0.003,3.368 z"
         style="fill:#000000;fill-opacity:1;fill-rule:evenodd;stroke:#000000;stroke-width:0.261796;stroke-linecap:butt;stroke-linejoin:round;stroke-miterlimit:4;stroke-dasharray:none;stroke-opacity:1"
         id="path1059" />
    </g>
    <g
       id="g1061"
       transform="matrix(0.35277777,0,0,0.35277777,-68.695264,-1.77385)">
      <path
         d="M 266.234,58.434 C 262.719,44.191 254.066,24.426 247.207,13.289"
         style="fill:none;stroke:#6e0000;stroke-width:1.41732;stroke-linecap:round;stroke-linejoin:miter;stroke-miterlimit:4;stroke-dasharray:none;stroke-opacity:1"
         id="path1063" />
    </g>
    <g
       id="g1065"
       transform="matrix(-0.08711212,-0.35277777,0.35277777,-0.08711212,-68.695264,-1.77385)">
      <path
         d="m -114.388,239 -4.509,-1.656 4.508,-1.661 c -0.718,0.979 -0.717,2.319 10e-4,3.317 z"
         style="fill:#6e0000;fill-opacity:1;fill-rule:evenodd;stroke:#6e0000;stroke-width:0.257999;stroke-linecap:butt;stroke-linejoin:round;stroke-miterlimit:4;stroke-dasharray:none;stroke-opacity:1"
         id="path1067" />
    </g>
    <g
       id="g1069"
       transform="matrix(0.35277777,0,0,0.35277777,-68.695264,-1.77385)">
      <path
         d="m 206.836,18.973 c 6.715,11.465 14.789,28.863 19.191,44.035"
         style="fill:none;stroke:#6e0000;stroke-width:1.41732;stroke-linecap:round;stroke-linejoin:miter;stroke-miterlimit:4;stroke-dasharray:none;stroke-opacity:1"
         id="path1071" />
    </g>
    <g
       id="g1073"
       transform="matrix(0.20656726,0.35277777,-0.35277777,0.20656726,-68.695264,-1.77385)">
      <path
         d="m 106.675,-144.275 -4.009,-1.473 4.008,-1.473 c -0.638,0.868 -0.637,2.06 10e-4,2.946 z"
         style="fill:#6e0000;fill-opacity:1;fill-rule:evenodd;stroke:#6e0000;stroke-width:0.229326;stroke-linecap:butt;stroke-linejoin:round;stroke-miterlimit:4;stroke-dasharray:none;stroke-opacity:1"
         id="path1075" />
    </g>
    <g
       id="g1117"
       transform="matrix(0.35277777,0,0,0.35277777,-68.695264,-1.77385)">
      <path
         d="m 218.746,34.602 c 0,1.953 -1.578,3.535 -3.527,3.543 -1.953,0.011 -3.543,-1.559 -3.559,-3.512 -0.019,-1.949 1.543,-3.547 3.496,-3.574 1.949,-0.024 3.555,1.531 3.59,3.48"
         style="fill:#aa0000;fill-opacity:1;fill-rule:nonzero;stroke:#880000;stroke-width:0.566929;stroke-linecap:round;stroke-linejoin:miter;stroke-miterlimit:4;stroke-dasharray:none;stroke-opacity:1"
         id="path1119" />
    </g>
    <g
       id="g1121"
       transform="matrix(0.35277777,0,0,0.35277777,-68.695264,-1.77385)">
      <path
         d="m 258.918,27.047 c 0,1.949 -1.578,3.535 -3.527,3.543 -1.953,0.008 -3.543,-1.563 -3.559,-3.512 -0.02,-1.953 1.543,-3.551 3.496,-3.574 1.949,-0.027 3.555,1.527 3.59,3.48"
         style="fill:#aa0000;fill-opacity:1;fill-rule:nonzero;stroke:#880000;stroke-width:0.566929;stroke-linecap:round;stroke-linejoin:miter;stroke-miterlimit:4;stroke-dasharray:none;stroke-opacity:1"
         id="path1123" />
    </g>
    <text
       style="font-style:italic;font-variant:normal;font-size:4.30078px;font-family:'Times New Roman';-inkscape-font-specification:TimesNewRomanPS-ItalicMT;writing-mode:lr-tb;fill:#000000;fill-opacity:1;fill-rule:nonzero;stroke:none;stroke-width:0.352778"
       id="text1147"
       x="14.924314"
       y="14.150991"><tspan
         x="14.924314"
         y="14.150991"
         id="tspan1145"
         style="stroke-width:0.352778">T</tspan></text>
    <text
       style="font-style:italic;font-variant:normal;font-size:2.79551px;font-family:'Times New Roman';-inkscape-font-specification:TimesNewRomanPS-ItalicMT;writing-mode:lr-tb;fill:#000000;fill-opacity:1;fill-rule:nonzero;stroke:none;stroke-width:0.352778"
       id="text1151"
       x="17.3183"
       y="15.011148"><tspan
         x="17.3183"
         y="15.011148"
         id="tspan1149"
         style="stroke-width:0.352778">v</tspan></text>
    <text
       style="font-style:italic;font-variant:normal;font-size:4.30078px;font-family:'Times New Roman';-inkscape-font-specification:TimesNewRomanPS-ItalicMT;writing-mode:lr-tb;fill:#000000;fill-opacity:1;fill-rule:nonzero;stroke:none;stroke-width:0.352778"
       id="text1155"
       x="16.534327"
       y="28.513731"><tspan
         x="16.534327"
         y="28.513731"
         id="tspan1153"
         style="stroke-width:0.352778">T</tspan></text>
    <text
       style="font-style:italic;font-variant:normal;font-size:2.79551px;font-family:'Times New Roman';-inkscape-font-specification:TimesNewRomanPS-ItalicMT;writing-mode:lr-tb;fill:#000000;fill-opacity:1;fill-rule:nonzero;stroke:none;stroke-width:0.352778"
       id="text1159"
       x="18.928316"
       y="29.373884"><tspan
         x="18.928316"
         y="29.373884"
         id="tspan1157"
         style="stroke-width:0.352778">d</tspan></text>
  </g>
</svg>
