<?xml version="1.0" encoding="UTF-8" standalone="no"?>
<svg
   xmlns:dc="http://purl.org/dc/elements/1.1/"
   xmlns:cc="http://creativecommons.org/ns#"
   xmlns:rdf="http://www.w3.org/1999/02/22-rdf-syntax-ns#"
   xmlns:svg="http://www.w3.org/2000/svg"
   xmlns="http://www.w3.org/2000/svg"
   version="1.1"
   id="svg867"
   xml:space="preserve"
   width="1924"
   height="1984"
   viewBox="0 0 1924 1984"><metadata
     id="metadata873"><rdf:RDF><cc:Work
         rdf:about=""><dc:format>image/svg+xml</dc:format><dc:type
           rdf:resource="http://purl.org/dc/dcmitype/StillImage" /><dc:title></dc:title></cc:Work></rdf:RDF></metadata><defs
     id="defs871" /><g
     id="g875"
     transform="matrix(1.3333333,0,0,-1.3333333,0,1984)"><g
       id="g1012"
       transform="matrix(4.2972921,0,0,4.2972921,-2400.4827,-418.41749)"
       style="stroke-width:0.232705"><path
         d="m 642.915,134.9 h 167.17 v 17.12 c 0,41.38 -22.39,79.81 -58.431,100.29 -6.609,3.76 -10.555,10.56 -10.555,18.19 0,7.63 3.946,14.43 10.555,18.19 36.041,20.48 58.431,58.91 58.431,100.29 v 17.12 h -167.17 v -17.12 c 0,-41.38 22.389,-79.81 58.43,-100.29 6.61,-3.76 10.556,-10.56 10.556,-18.19 0,-7.63 -3.946,-14.43 -10.556,-18.19 -36.041,-20.48 -58.43,-58.91 -58.43,-100.29 z m 179.17,-12 h -191.17 v 29.12 c 0,45.68 24.715,88.11 64.501,110.72 2.809,1.6 4.485,4.5 4.485,7.76 0,3.26 -1.676,6.16 -4.485,7.76 -39.786,22.61 -64.501,65.04 -64.501,110.72 v 29.12 h 191.17 v -29.12 c 0,-45.68 -24.716,-88.11 -64.501,-110.72 -2.809,-1.6 -4.485,-4.5 -4.485,-7.76 0,-3.26 1.676,-6.16 4.485,-7.76 39.785,-22.61 64.501,-65.04 64.501,-110.72 V 122.9"
         style="fill:#100f0d;fill-opacity:1;fill-rule:nonzero;stroke:none;stroke-width:0.0232705"
         id="path941" /><path
         d="m 708.662,301.56 c 7.435,-4.22 12.989,-10.94 15.858,-18.75 0.692,-1.89 3.268,-1.89 3.96,0 2.87,7.81 8.423,14.53 15.859,18.75 15.331,8.72 27.8,21.17 36.579,35.81 -14.892,0.97 -30.483,4.22 -45.748,11.16 -27.745,12.61 -53.285,14.21 -73.265,12.01 7.299,-24.59 23.839,-45.95 46.757,-58.98"
         style="fill:#100f0d;fill-opacity:1;fill-rule:nonzero;stroke:none;stroke-width:0.0232705"
         id="path943" /><path
         d="m 786.685,146.24 c -8.594,19.47 -23.253,36.11 -42.346,46.96 -0.101,0.06 -0.2,0.11 -0.3,0.17 -10.967,6.38 -24.111,6.38 -35.078,0 -0.1,-0.06 -0.199,-0.11 -0.299,-0.17 -19.094,-10.85 -33.753,-27.49 -42.347,-46.96 h 120.37"
         style="fill:#100f0d;fill-opacity:1;fill-rule:nonzero;stroke:none;stroke-width:0.0232705"
         id="path945" /><path
         d="M 833.424,441 H 619.576 V 412.1 H 833.424 V 441"
         style="fill:#100f0d;fill-opacity:1;fill-rule:nonzero;stroke:none;stroke-width:0.0232705"
         id="path947" /><path
         d="M 833.424,128.9 H 619.576 V 100 h 213.848 v 28.9"
         style="fill:#100f0d;fill-opacity:1;fill-rule:nonzero;stroke:none;stroke-width:0.0232705"
         id="path949" /><path
         d="m 729.39,276.28 c 0,-1.6 -1.294,-2.89 -2.89,-2.89 -1.596,0 -2.89,1.29 -2.89,2.89 0,1.6 1.294,2.89 2.89,2.89 1.596,0 2.89,-1.29 2.89,-2.89"
         style="fill:#100f0d;fill-opacity:1;fill-rule:nonzero;stroke:none;stroke-width:0.0232705"
         id="path951" /><path
         d="m 729.39,258.94 c 0,-1.6 -1.294,-2.89 -2.89,-2.89 -1.596,0 -2.89,1.29 -2.89,2.89 0,1.6 1.294,2.89 2.89,2.89 1.596,0 2.89,-1.29 2.89,-2.89"
         style="fill:#100f0d;fill-opacity:1;fill-rule:nonzero;stroke:none;stroke-width:0.0232705"
         id="path953" /><path
         d="m 729.39,241.6 c 0,-1.59 -1.294,-2.89 -2.89,-2.89 -1.596,0 -2.89,1.3 -2.89,2.89 0,1.6 1.294,2.89 2.89,2.89 1.596,0 2.89,-1.29 2.89,-2.89"
         style="fill:#100f0d;fill-opacity:1;fill-rule:nonzero;stroke:none;stroke-width:0.0232705"
         id="path955" /><path
         d="m 729.39,224.26 c 0,-1.59 -1.294,-2.89 -2.89,-2.89 -1.596,0 -2.89,1.3 -2.89,2.89 0,1.6 1.294,2.89 2.89,2.89 1.596,0 2.89,-1.29 2.89,-2.89"
         style="fill:#100f0d;fill-opacity:1;fill-rule:nonzero;stroke:none;stroke-width:0.0232705"
         id="path957" /><path
         d="m 729.39,206.92 c 0,-1.59 -1.294,-2.89 -2.89,-2.89 -1.596,0 -2.89,1.3 -2.89,2.89 0,1.6 1.294,2.89 2.89,2.89 1.596,0 2.89,-1.29 2.89,-2.89"
         style="fill:#100f0d;fill-opacity:1;fill-rule:nonzero;stroke:none;stroke-width:0.0232705"
         id="path959" /></g></g></svg>
