<?xml version="1.0" encoding="utf-8" standalone="no"?>
<!DOCTYPE svg PUBLIC "-//W3C//DTD SVG 1.1//EN"
  "http://www.w3.org/Graphics/SVG/1.1/DTD/svg11.dtd">
<!-- Created with matplotlib (https://matplotlib.org/) -->
<svg height="144pt" version="1.1" viewBox="0 0 288 144" width="288pt" xmlns="http://www.w3.org/2000/svg" xmlns:xlink="http://www.w3.org/1999/xlink">
 <metadata>
  <rdf:RDF xmlns:cc="http://creativecommons.org/ns#" xmlns:dc="http://purl.org/dc/elements/1.1/" xmlns:rdf="http://www.w3.org/1999/02/22-rdf-syntax-ns#">
   <cc:Work>
    <dc:type rdf:resource="http://purl.org/dc/dcmitype/StillImage"/>
    <dc:date>2022-09-13T17:20:59.648858</dc:date>
    <dc:format>image/svg+xml</dc:format>
    <dc:creator>
     <cc:Agent>
      <dc:title>Matplotlib v3.3.4, https://matplotlib.org/</dc:title>
     </cc:Agent>
    </dc:creator>
   </cc:Work>
  </rdf:RDF>
 </metadata>
 <defs>
  <style type="text/css">*{stroke-linecap:butt;stroke-linejoin:round;}</style>
 </defs>
 <g id="figure_1">
  <g id="patch_1">
   <path d="M 0 144 
L 288 144 
L 288 0 
L 0 0 
z
" style="fill:#ffffff;"/>
  </g>
  <g id="axes_1">
   <g id="patch_2">
    <path d="M 35.424 110.88 
L 158.350829 110.88 
L 158.350829 0.288 
L 35.424 0.288 
z
" style="fill:#ffffff;"/>
   </g>
   <g id="matplotlib.axis_1">
    <g id="xtick_1">
     <g id="line2d_1">
      <defs>
       <path d="M 0 0 
L 0 3.5 
" id="m02c47d6a8a" style="stroke:#000000;stroke-width:0.8;"/>
      </defs>
      <g>
       <use style="stroke:#000000;stroke-width:0.8;" x="57.538238" xlink:href="#m02c47d6a8a" y="110.88"/>
      </g>
     </g>
     <g id="text_1">
      <!-- 0 -->
      <g transform="translate(55.038238 124.82375)scale(0.1 -0.1)">
       <defs>
        <path d="M 3.609375 32.71875 
Q 3.609375 44.046875 7.03125 52.21875 
Q 10.453125 60.40625 16.109375 64.40625 
Q 20.515625 67.578125 25.203125 67.578125 
Q 32.8125 67.578125 38.875 59.8125 
Q 46.4375 50.203125 46.4375 33.734375 
Q 46.4375 22.21875 43.109375 14.15625 
Q 39.796875 6.109375 34.640625 2.46875 
Q 29.5 -1.171875 24.703125 -1.171875 
Q 15.234375 -1.171875 8.9375 10.015625 
Q 3.609375 19.4375 3.609375 32.71875 
z
M 13.1875 31.5 
Q 13.1875 17.828125 16.546875 9.1875 
Q 19.34375 1.90625 24.859375 1.90625 
Q 27.484375 1.90625 30.3125 4.265625 
Q 33.15625 6.640625 34.625 12.203125 
Q 36.859375 20.609375 36.859375 35.890625 
Q 36.859375 47.21875 34.515625 54.78125 
Q 32.765625 60.40625 29.984375 62.75 
Q 27.984375 64.359375 25.140625 64.359375 
Q 21.828125 64.359375 19.234375 61.375 
Q 15.71875 57.328125 14.453125 48.625 
Q 13.1875 39.9375 13.1875 31.5 
z
" id="TimesNewRomanPSMT-48"/>
       </defs>
       <use xlink:href="#TimesNewRomanPSMT-48"/>
      </g>
     </g>
    </g>
    <g id="xtick_2">
     <g id="line2d_2">
      <g>
       <use style="stroke:#000000;stroke-width:0.8;" x="96.887415" xlink:href="#m02c47d6a8a" y="110.88"/>
      </g>
     </g>
     <g id="text_2">
      <!-- 1 -->
      <g transform="translate(94.387415 124.82375)scale(0.1 -0.1)">
       <defs>
        <path d="M 11.71875 59.71875 
L 27.828125 67.578125 
L 29.4375 67.578125 
L 29.4375 11.671875 
Q 29.4375 6.109375 29.90625 4.734375 
Q 30.375 3.375 31.828125 2.640625 
Q 33.296875 1.90625 37.796875 1.8125 
L 37.796875 0 
L 12.890625 0 
L 12.890625 1.8125 
Q 17.578125 1.90625 18.9375 2.609375 
Q 20.3125 3.328125 20.84375 4.515625 
Q 21.390625 5.71875 21.390625 11.671875 
L 21.390625 47.40625 
Q 21.390625 54.640625 20.90625 56.6875 
Q 20.5625 58.25 19.65625 58.984375 
Q 18.75 59.71875 17.484375 59.71875 
Q 15.671875 59.71875 12.453125 58.203125 
z
" id="TimesNewRomanPSMT-49"/>
       </defs>
       <use xlink:href="#TimesNewRomanPSMT-49"/>
      </g>
     </g>
    </g>
    <g id="xtick_3">
     <g id="line2d_3">
      <g>
       <use style="stroke:#000000;stroke-width:0.8;" x="136.236592" xlink:href="#m02c47d6a8a" y="110.88"/>
      </g>
     </g>
     <g id="text_3">
      <!-- 2 -->
      <g transform="translate(133.736592 124.82375)scale(0.1 -0.1)">
       <defs>
        <path d="M 45.84375 12.75 
L 41.21875 0 
L 2.15625 0 
L 2.15625 1.8125 
Q 19.390625 17.53125 26.421875 27.484375 
Q 33.453125 37.453125 33.453125 45.703125 
Q 33.453125 52 29.59375 56.046875 
Q 25.734375 60.109375 20.359375 60.109375 
Q 15.484375 60.109375 11.59375 57.25 
Q 7.71875 54.390625 5.859375 48.875 
L 4.046875 48.875 
Q 5.28125 57.90625 10.328125 62.734375 
Q 15.375 67.578125 22.953125 67.578125 
Q 31 67.578125 36.390625 62.40625 
Q 41.796875 57.234375 41.796875 50.203125 
Q 41.796875 45.171875 39.453125 40.140625 
Q 35.84375 32.234375 27.734375 23.390625 
Q 15.578125 10.109375 12.546875 7.375 
L 29.828125 7.375 
Q 35.109375 7.375 37.234375 7.765625 
Q 39.359375 8.15625 41.0625 9.34375 
Q 42.78125 10.546875 44.046875 12.75 
z
" id="TimesNewRomanPSMT-50"/>
       </defs>
       <use xlink:href="#TimesNewRomanPSMT-50"/>
      </g>
     </g>
    </g>
    <g id="text_4">
     <!-- $N_{\mathrm{TO}}$ post-take-off constraints -->
     <g transform="translate(41.027415 137.897813)scale(0.095 -0.095)">
      <defs>
       <path d="M 16.890625 72.90625 
L 30.171875 72.90625 
L 50.296875 10.40625 
L 62.5 72.90625 
L 72.125 72.90625 
L 57.90625 0 
L 44.578125 0 
L 24.515625 62.890625 
L 12.3125 0 
L 2.6875 0 
z
" id="DejaVuSans-Oblique-78"/>
       <path d="M -0.296875 72.90625 
L 61.375 72.90625 
L 61.375 64.59375 
L 35.5 64.59375 
L 35.5 0 
L 25.59375 0 
L 25.59375 64.59375 
L -0.296875 64.59375 
z
" id="DejaVuSans-84"/>
       <path d="M 39.40625 66.21875 
Q 28.65625 66.21875 22.328125 58.203125 
Q 16.015625 50.203125 16.015625 36.375 
Q 16.015625 22.609375 22.328125 14.59375 
Q 28.65625 6.59375 39.40625 6.59375 
Q 50.140625 6.59375 56.421875 14.59375 
Q 62.703125 22.609375 62.703125 36.375 
Q 62.703125 50.203125 56.421875 58.203125 
Q 50.140625 66.21875 39.40625 66.21875 
z
M 39.40625 74.21875 
Q 54.734375 74.21875 63.90625 63.9375 
Q 73.09375 53.65625 73.09375 36.375 
Q 73.09375 19.140625 63.90625 8.859375 
Q 54.734375 -1.421875 39.40625 -1.421875 
Q 24.03125 -1.421875 14.8125 8.828125 
Q 5.609375 19.09375 5.609375 36.375 
Q 5.609375 53.65625 14.8125 63.9375 
Q 24.03125 74.21875 39.40625 74.21875 
z
" id="DejaVuSans-79"/>
       <path id="TimesNewRomanPSMT-32"/>
       <path d="M -0.09375 40.28125 
L 13.671875 45.84375 
L 15.53125 45.84375 
L 15.53125 35.40625 
Q 19 41.3125 22.484375 43.671875 
Q 25.984375 46.046875 29.828125 46.046875 
Q 36.578125 46.046875 41.0625 40.765625 
Q 46.578125 34.328125 46.578125 23.96875 
Q 46.578125 12.40625 39.9375 4.828125 
Q 34.46875 -1.375 26.171875 -1.375 
Q 22.5625 -1.375 19.921875 -0.34375 
Q 17.96875 0.390625 15.53125 2.59375 
L 15.53125 -11.03125 
Q 15.53125 -15.625 16.09375 -16.859375 
Q 16.65625 -18.109375 18.046875 -18.84375 
Q 19.4375 -19.578125 23.09375 -19.578125 
L 23.09375 -21.390625 
L -0.34375 -21.390625 
L -0.34375 -19.578125 
L 0.875 -19.578125 
Q 3.5625 -19.625 5.46875 -18.5625 
Q 6.390625 -18.015625 6.90625 -16.8125 
Q 7.421875 -15.625 7.421875 -10.75 
L 7.421875 31.546875 
Q 7.421875 35.890625 7.03125 37.0625 
Q 6.640625 38.234375 5.78125 38.8125 
Q 4.9375 39.40625 3.46875 39.40625 
Q 2.296875 39.40625 0.484375 38.71875 
z
M 15.53125 32.515625 
L 15.53125 15.828125 
Q 15.53125 10.40625 15.96875 8.6875 
Q 16.65625 5.859375 19.3125 3.703125 
Q 21.96875 1.5625 26.03125 1.5625 
Q 30.90625 1.5625 33.9375 5.375 
Q 37.890625 10.359375 37.890625 19.390625 
Q 37.890625 29.640625 33.40625 35.15625 
Q 30.28125 38.96875 25.984375 38.96875 
Q 23.640625 38.96875 21.34375 37.796875 
Q 19.578125 36.921875 15.53125 32.515625 
z
" id="TimesNewRomanPSMT-112"/>
       <path d="M 25 46.046875 
Q 35.15625 46.046875 41.3125 38.328125 
Q 46.53125 31.734375 46.53125 23.1875 
Q 46.53125 17.1875 43.640625 11.03125 
Q 40.765625 4.890625 35.71875 1.75 
Q 30.671875 -1.375 24.46875 -1.375 
Q 14.359375 -1.375 8.40625 6.6875 
Q 3.375 13.484375 3.375 21.921875 
Q 3.375 28.078125 6.421875 34.15625 
Q 9.46875 40.234375 14.453125 43.140625 
Q 19.4375 46.046875 25 46.046875 
z
M 23.484375 42.875 
Q 20.90625 42.875 18.28125 41.328125 
Q 15.671875 39.796875 14.0625 35.9375 
Q 12.453125 32.078125 12.453125 26.03125 
Q 12.453125 16.265625 16.328125 9.171875 
Q 20.21875 2.09375 26.5625 2.09375 
Q 31.296875 2.09375 34.375 6 
Q 37.453125 9.90625 37.453125 19.4375 
Q 37.453125 31.34375 32.328125 38.1875 
Q 28.859375 42.875 23.484375 42.875 
z
" id="TimesNewRomanPSMT-111"/>
       <path d="M 32.03125 46.046875 
L 32.03125 30.8125 
L 30.421875 30.8125 
Q 28.5625 37.984375 25.65625 40.578125 
Q 22.75 43.171875 18.265625 43.171875 
Q 14.84375 43.171875 12.734375 41.359375 
Q 10.640625 39.546875 10.640625 37.359375 
Q 10.640625 34.625 12.203125 32.671875 
Q 13.71875 30.671875 18.359375 28.421875 
L 25.484375 24.953125 
Q 35.40625 20.125 35.40625 12.203125 
Q 35.40625 6.109375 30.78125 2.359375 
Q 26.171875 -1.375 20.453125 -1.375 
Q 16.359375 -1.375 11.078125 0.09375 
Q 9.46875 0.59375 8.453125 0.59375 
Q 7.328125 0.59375 6.6875 -0.6875 
L 5.078125 -0.6875 
L 5.078125 15.28125 
L 6.6875 15.28125 
Q 8.0625 8.453125 11.90625 4.984375 
Q 15.765625 1.515625 20.5625 1.515625 
Q 23.921875 1.515625 26.046875 3.484375 
Q 28.171875 5.46875 28.171875 8.25 
Q 28.171875 11.625 25.796875 13.921875 
Q 23.4375 16.21875 16.359375 19.734375 
Q 9.28125 23.25 7.078125 26.078125 
Q 4.890625 28.859375 4.890625 33.109375 
Q 4.890625 38.625 8.671875 42.328125 
Q 12.453125 46.046875 18.453125 46.046875 
Q 21.09375 46.046875 24.859375 44.921875 
Q 27.34375 44.1875 28.171875 44.1875 
Q 28.953125 44.1875 29.390625 44.53125 
Q 29.828125 44.875 30.421875 46.046875 
z
" id="TimesNewRomanPSMT-115"/>
       <path d="M 16.109375 59.421875 
L 16.109375 44.734375 
L 26.5625 44.734375 
L 26.5625 41.3125 
L 16.109375 41.3125 
L 16.109375 12.3125 
Q 16.109375 7.953125 17.359375 6.4375 
Q 18.609375 4.9375 20.5625 4.9375 
Q 22.171875 4.9375 23.6875 5.9375 
Q 25.203125 6.9375 26.03125 8.890625 
L 27.9375 8.890625 
Q 26.21875 4.109375 23.09375 1.6875 
Q 19.96875 -0.734375 16.65625 -0.734375 
Q 14.40625 -0.734375 12.25 0.515625 
Q 10.109375 1.765625 9.078125 4.078125 
Q 8.0625 6.390625 8.0625 11.234375 
L 8.0625 41.3125 
L 0.984375 41.3125 
L 0.984375 42.921875 
Q 3.65625 44 6.46875 46.5625 
Q 9.28125 49.125 11.46875 52.640625 
Q 12.59375 54.5 14.59375 59.421875 
z
" id="TimesNewRomanPSMT-116"/>
       <path d="M 4.046875 26.125 
L 29.296875 26.125 
L 29.296875 18.75 
L 4.046875 18.75 
z
" id="TimesNewRomanPSMT-45"/>
       <path d="M 28.46875 6.453125 
Q 21.578125 1.125 19.828125 0.296875 
Q 17.1875 -0.921875 14.203125 -0.921875 
Q 9.578125 -0.921875 6.5625 2.25 
Q 3.5625 5.421875 3.5625 10.59375 
Q 3.5625 13.875 5.03125 16.265625 
Q 7.03125 19.578125 11.984375 22.5 
Q 16.9375 25.4375 28.46875 29.640625 
L 28.46875 31.390625 
Q 28.46875 38.09375 26.34375 40.578125 
Q 24.21875 43.0625 20.171875 43.0625 
Q 17.09375 43.0625 15.28125 41.40625 
Q 13.421875 39.75 13.421875 37.59375 
L 13.53125 34.765625 
Q 13.53125 32.515625 12.375 31.296875 
Q 11.234375 30.078125 9.375 30.078125 
Q 7.5625 30.078125 6.421875 31.34375 
Q 5.28125 32.625 5.28125 34.8125 
Q 5.28125 39.015625 9.578125 42.53125 
Q 13.875 46.046875 21.625 46.046875 
Q 27.59375 46.046875 31.390625 44.046875 
Q 34.28125 42.53125 35.640625 39.3125 
Q 36.53125 37.203125 36.53125 30.71875 
L 36.53125 15.53125 
Q 36.53125 9.125 36.765625 7.6875 
Q 37.015625 6.25 37.578125 5.765625 
Q 38.140625 5.28125 38.875 5.28125 
Q 39.65625 5.28125 40.234375 5.609375 
Q 41.265625 6.25 44.1875 9.1875 
L 44.1875 6.453125 
Q 38.71875 -0.875 33.734375 -0.875 
Q 31.34375 -0.875 29.921875 0.78125 
Q 28.515625 2.4375 28.46875 6.453125 
z
M 28.46875 9.625 
L 28.46875 26.65625 
Q 21.09375 23.734375 18.953125 22.515625 
Q 15.09375 20.359375 13.421875 18.015625 
Q 11.765625 15.671875 11.765625 12.890625 
Q 11.765625 9.375 13.859375 7.046875 
Q 15.96875 4.734375 18.703125 4.734375 
Q 22.40625 4.734375 28.46875 9.625 
z
" id="TimesNewRomanPSMT-97"/>
       <path d="M 16.359375 69.4375 
L 16.359375 24.90625 
L 27.734375 35.296875 
Q 31.34375 38.625 31.9375 39.5 
Q 32.328125 40.09375 32.328125 40.671875 
Q 32.328125 41.65625 31.515625 42.359375 
Q 30.71875 43.0625 28.859375 43.171875 
L 28.859375 44.734375 
L 48.296875 44.734375 
L 48.296875 43.171875 
Q 44.28125 43.0625 41.625 41.9375 
Q 38.96875 40.828125 35.796875 37.9375 
L 24.3125 27.34375 
L 35.796875 12.84375 
Q 40.578125 6.84375 42.234375 5.21875 
Q 44.578125 2.9375 46.34375 2.25 
Q 47.5625 1.765625 50.59375 1.765625 
L 50.59375 0 
L 28.859375 0 
L 28.859375 1.765625 
Q 30.71875 1.8125 31.375 2.3125 
Q 32.03125 2.828125 32.03125 3.765625 
Q 32.03125 4.890625 30.078125 7.375 
L 16.359375 24.90625 
L 16.359375 10.0625 
Q 16.359375 5.71875 16.96875 4.34375 
Q 17.578125 2.984375 18.703125 2.390625 
Q 19.828125 1.8125 23.578125 1.765625 
L 23.578125 0 
L 0.828125 0 
L 0.828125 1.765625 
Q 4.25 1.765625 5.953125 2.59375 
Q 6.984375 3.125 7.515625 4.25 
Q 8.25 5.859375 8.25 9.8125 
L 8.25 50.53125 
Q 8.25 58.296875 7.90625 60.03125 
Q 7.5625 61.765625 6.78125 62.421875 
Q 6 63.09375 4.734375 63.09375 
Q 3.71875 63.09375 1.65625 62.25 
L 0.828125 63.96875 
L 14.109375 69.4375 
z
" id="TimesNewRomanPSMT-107"/>
       <path d="M 10.640625 27.875 
Q 10.59375 17.921875 15.484375 12.25 
Q 20.359375 6.59375 26.953125 6.59375 
Q 31.34375 6.59375 34.59375 9 
Q 37.84375 11.421875 40.046875 17.28125 
L 41.546875 16.3125 
Q 40.53125 9.625 35.59375 4.125 
Q 30.671875 -1.375 23.25 -1.375 
Q 15.1875 -1.375 9.453125 4.90625 
Q 3.71875 11.1875 3.71875 21.78125 
Q 3.71875 33.25 9.59375 39.671875 
Q 15.484375 46.09375 24.359375 46.09375 
Q 31.890625 46.09375 36.71875 41.140625 
Q 41.546875 36.1875 41.546875 27.875 
z
M 10.640625 30.71875 
L 31.34375 30.71875 
Q 31.109375 35.015625 30.328125 36.765625 
Q 29.109375 39.5 26.6875 41.0625 
Q 24.265625 42.625 21.625 42.625 
Q 17.578125 42.625 14.375 39.46875 
Q 11.1875 36.328125 10.640625 30.71875 
z
" id="TimesNewRomanPSMT-101"/>
       <path d="M 20.609375 41.21875 
L 20.609375 11.8125 
Q 20.609375 5.5625 21.96875 3.90625 
Q 23.78125 1.765625 26.8125 1.765625 
L 30.859375 1.765625 
L 30.859375 0 
L 4.15625 0 
L 4.15625 1.765625 
L 6.15625 1.765625 
Q 8.109375 1.765625 9.71875 2.734375 
Q 11.328125 3.71875 11.9375 5.375 
Q 12.546875 7.03125 12.546875 11.8125 
L 12.546875 41.21875 
L 3.859375 41.21875 
L 3.859375 44.734375 
L 12.546875 44.734375 
L 12.546875 47.65625 
Q 12.546875 54.34375 14.6875 58.984375 
Q 16.84375 63.625 21.265625 66.484375 
Q 25.6875 69.34375 31.203125 69.34375 
Q 36.328125 69.34375 40.625 66.015625 
Q 43.453125 63.8125 43.453125 61.078125 
Q 43.453125 59.625 42.1875 58.328125 
Q 40.921875 57.03125 39.453125 57.03125 
Q 38.328125 57.03125 37.078125 57.828125 
Q 35.84375 58.640625 34.03125 61.296875 
Q 32.234375 63.96875 30.71875 64.890625 
Q 29.203125 65.828125 27.34375 65.828125 
Q 25.09375 65.828125 23.53125 64.625 
Q 21.96875 63.421875 21.28125 60.90625 
Q 20.609375 58.40625 20.609375 47.953125 
L 20.609375 44.734375 
L 32.125 44.734375 
L 32.125 41.21875 
z
" id="TimesNewRomanPSMT-102"/>
       <path d="M 41.109375 17 
Q 39.3125 8.15625 34.03125 3.390625 
Q 28.765625 -1.375 22.359375 -1.375 
Q 14.75 -1.375 9.078125 5.015625 
Q 3.421875 11.421875 3.421875 22.3125 
Q 3.421875 32.859375 9.6875 39.453125 
Q 15.96875 46.046875 24.75 46.046875 
Q 31.34375 46.046875 35.59375 42.546875 
Q 39.84375 39.0625 39.84375 35.296875 
Q 39.84375 33.453125 38.640625 32.296875 
Q 37.453125 31.15625 35.296875 31.15625 
Q 32.421875 31.15625 30.953125 33.015625 
Q 30.125 34.03125 29.859375 36.90625 
Q 29.59375 39.796875 27.875 41.3125 
Q 26.171875 42.78125 23.140625 42.78125 
Q 18.265625 42.78125 15.28125 39.15625 
Q 11.328125 34.375 11.328125 26.515625 
Q 11.328125 18.5 15.25 12.375 
Q 19.1875 6.25 25.875 6.25 
Q 30.671875 6.25 34.46875 9.515625 
Q 37.15625 11.765625 39.703125 17.671875 
z
" id="TimesNewRomanPSMT-99"/>
       <path d="M 16.15625 36.578125 
Q 24.03125 46.046875 31.15625 46.046875 
Q 34.8125 46.046875 37.453125 44.21875 
Q 40.09375 42.390625 41.65625 38.1875 
Q 42.71875 35.25 42.71875 29.203125 
L 42.71875 10.109375 
Q 42.71875 5.859375 43.40625 4.34375 
Q 43.953125 3.125 45.140625 2.4375 
Q 46.34375 1.765625 49.5625 1.765625 
L 49.5625 0 
L 27.4375 0 
L 27.4375 1.765625 
L 28.375 1.765625 
Q 31.5 1.765625 32.734375 2.703125 
Q 33.984375 3.65625 34.46875 5.515625 
Q 34.671875 6.25 34.671875 10.109375 
L 34.671875 28.421875 
Q 34.671875 34.515625 33.078125 37.28125 
Q 31.5 40.046875 27.734375 40.046875 
Q 21.921875 40.046875 16.15625 33.6875 
L 16.15625 10.109375 
Q 16.15625 5.5625 16.703125 4.5 
Q 17.390625 3.078125 18.578125 2.421875 
Q 19.78125 1.765625 23.4375 1.765625 
L 23.4375 0 
L 1.3125 0 
L 1.3125 1.765625 
L 2.296875 1.765625 
Q 5.71875 1.765625 6.90625 3.484375 
Q 8.109375 5.21875 8.109375 10.109375 
L 8.109375 26.703125 
Q 8.109375 34.765625 7.734375 36.515625 
Q 7.375 38.28125 6.609375 38.90625 
Q 5.859375 39.546875 4.59375 39.546875 
Q 3.21875 39.546875 1.3125 38.8125 
L 0.59375 40.578125 
L 14.0625 46.046875 
L 16.15625 46.046875 
z
" id="TimesNewRomanPSMT-110"/>
       <path d="M 16.21875 46.046875 
L 16.21875 35.984375 
Q 21.828125 46.046875 27.734375 46.046875 
Q 30.421875 46.046875 32.171875 44.40625 
Q 33.9375 42.78125 33.9375 40.625 
Q 33.9375 38.71875 32.65625 37.390625 
Q 31.390625 36.078125 29.640625 36.078125 
Q 27.9375 36.078125 25.8125 37.765625 
Q 23.6875 39.453125 22.65625 39.453125 
Q 21.78125 39.453125 20.75 38.484375 
Q 18.5625 36.46875 16.21875 31.890625 
L 16.21875 10.453125 
Q 16.21875 6.734375 17.140625 4.828125 
Q 17.78125 3.515625 19.390625 2.640625 
Q 21 1.765625 24.03125 1.765625 
L 24.03125 0 
L 1.125 0 
L 1.125 1.765625 
Q 4.546875 1.765625 6.203125 2.828125 
Q 7.421875 3.609375 7.90625 5.328125 
Q 8.15625 6.15625 8.15625 10.0625 
L 8.15625 27.390625 
Q 8.15625 35.203125 7.828125 36.6875 
Q 7.515625 38.1875 6.65625 38.859375 
Q 5.8125 39.546875 4.546875 39.546875 
Q 3.03125 39.546875 1.125 38.8125 
L 0.640625 40.578125 
L 14.15625 46.046875 
z
" id="TimesNewRomanPSMT-114"/>
       <path d="M 14.5 69.4375 
Q 16.546875 69.4375 17.984375 67.984375 
Q 19.4375 66.546875 19.4375 64.5 
Q 19.4375 62.453125 17.984375 60.984375 
Q 16.546875 59.515625 14.5 59.515625 
Q 12.453125 59.515625 10.984375 60.984375 
Q 9.515625 62.453125 9.515625 64.5 
Q 9.515625 66.546875 10.953125 67.984375 
Q 12.40625 69.4375 14.5 69.4375 
z
M 18.5625 46.046875 
L 18.5625 10.109375 
Q 18.5625 5.90625 19.171875 4.515625 
Q 19.78125 3.125 20.96875 2.4375 
Q 22.171875 1.765625 25.34375 1.765625 
L 25.34375 0 
L 3.609375 0 
L 3.609375 1.765625 
Q 6.890625 1.765625 8 2.390625 
Q 9.125 3.03125 9.78125 4.484375 
Q 10.453125 5.953125 10.453125 10.109375 
L 10.453125 27.34375 
Q 10.453125 34.625 10.015625 36.765625 
Q 9.671875 38.328125 8.9375 38.9375 
Q 8.203125 39.546875 6.9375 39.546875 
Q 5.5625 39.546875 3.609375 38.8125 
L 2.9375 40.578125 
L 16.40625 46.046875 
z
" id="TimesNewRomanPSMT-105"/>
      </defs>
      <use transform="translate(0 0.09375)" xlink:href="#DejaVuSans-Oblique-78"/>
      <use transform="translate(74.804688 -16.3125)scale(0.7)" xlink:href="#DejaVuSans-84"/>
      <use transform="translate(117.563477 -16.3125)scale(0.7)" xlink:href="#DejaVuSans-79"/>
      <use transform="translate(175.395508 0.09375)" xlink:href="#TimesNewRomanPSMT-32"/>
      <use transform="translate(200.395508 0.09375)" xlink:href="#TimesNewRomanPSMT-112"/>
      <use transform="translate(250.395508 0.09375)" xlink:href="#TimesNewRomanPSMT-111"/>
      <use transform="translate(300.395508 0.09375)" xlink:href="#TimesNewRomanPSMT-115"/>
      <use transform="translate(339.311523 0.09375)" xlink:href="#TimesNewRomanPSMT-116"/>
      <use transform="translate(367.094727 0.09375)" xlink:href="#TimesNewRomanPSMT-45"/>
      <use transform="translate(400.395508 0.09375)" xlink:href="#TimesNewRomanPSMT-116"/>
      <use transform="translate(428.178711 0.09375)" xlink:href="#TimesNewRomanPSMT-97"/>
      <use transform="translate(472.563477 0.09375)" xlink:href="#TimesNewRomanPSMT-107"/>
      <use transform="translate(522.563477 0.09375)" xlink:href="#TimesNewRomanPSMT-101"/>
      <use transform="translate(566.948242 0.09375)" xlink:href="#TimesNewRomanPSMT-45"/>
      <use transform="translate(600.249023 0.09375)" xlink:href="#TimesNewRomanPSMT-111"/>
      <use transform="translate(650.249023 0.09375)" xlink:href="#TimesNewRomanPSMT-102"/>
      <use transform="translate(683.549805 0.09375)" xlink:href="#TimesNewRomanPSMT-102"/>
      <use transform="translate(716.850586 0.09375)" xlink:href="#TimesNewRomanPSMT-32"/>
      <use transform="translate(741.850586 0.09375)" xlink:href="#TimesNewRomanPSMT-99"/>
      <use transform="translate(786.235352 0.09375)" xlink:href="#TimesNewRomanPSMT-111"/>
      <use transform="translate(836.235352 0.09375)" xlink:href="#TimesNewRomanPSMT-110"/>
      <use transform="translate(886.235352 0.09375)" xlink:href="#TimesNewRomanPSMT-115"/>
      <use transform="translate(925.151367 0.09375)" xlink:href="#TimesNewRomanPSMT-116"/>
      <use transform="translate(952.93457 0.09375)" xlink:href="#TimesNewRomanPSMT-114"/>
      <use transform="translate(986.235352 0.09375)" xlink:href="#TimesNewRomanPSMT-97"/>
      <use transform="translate(1030.620117 0.09375)" xlink:href="#TimesNewRomanPSMT-105"/>
      <use transform="translate(1058.40332 0.09375)" xlink:href="#TimesNewRomanPSMT-110"/>
      <use transform="translate(1108.40332 0.09375)" xlink:href="#TimesNewRomanPSMT-116"/>
      <use transform="translate(1136.186523 0.09375)" xlink:href="#TimesNewRomanPSMT-115"/>
     </g>
    </g>
   </g>
   <g id="matplotlib.axis_2">
    <g id="ytick_1">
     <g id="line2d_4">
      <path clip-path="url(#p19aa562c90)" d="M 35.424 110.88 
L 158.350829 110.88 
" style="fill:none;stroke:#b0b0b0;stroke-linecap:square;stroke-width:0.8;"/>
     </g>
     <g id="line2d_5">
      <defs>
       <path d="M 0 0 
L -3.5 0 
" id="m905679cb24" style="stroke:#000000;stroke-width:0.8;"/>
      </defs>
      <g>
       <use style="stroke:#000000;stroke-width:0.8;" x="35.424" xlink:href="#m905679cb24" y="110.88"/>
      </g>
     </g>
     <g id="text_5">
      <!-- 0 -->
      <g transform="translate(23.424 114.351875)scale(0.1 -0.1)">
       <use xlink:href="#TimesNewRomanPSMT-48"/>
      </g>
     </g>
    </g>
    <g id="ytick_2">
     <g id="line2d_6">
      <path clip-path="url(#p19aa562c90)" d="M 35.424 84.548571 
L 158.350829 84.548571 
" style="fill:none;stroke:#b0b0b0;stroke-linecap:square;stroke-width:0.8;"/>
     </g>
     <g id="line2d_7">
      <g>
       <use style="stroke:#000000;stroke-width:0.8;" x="35.424" xlink:href="#m905679cb24" y="84.548571"/>
      </g>
     </g>
     <g id="text_6">
      <!-- 25 -->
      <g transform="translate(18.424 88.020446)scale(0.1 -0.1)">
       <defs>
        <path d="M 43.40625 66.21875 
L 39.59375 57.90625 
L 19.671875 57.90625 
L 15.328125 49.03125 
Q 28.265625 47.125 35.84375 39.40625 
Q 42.328125 32.765625 42.328125 23.78125 
Q 42.328125 18.5625 40.203125 14.109375 
Q 38.09375 9.671875 34.859375 6.546875 
Q 31.640625 3.421875 27.6875 1.515625 
Q 22.078125 -1.171875 16.15625 -1.171875 
Q 10.203125 -1.171875 7.484375 0.84375 
Q 4.78125 2.875 4.78125 5.328125 
Q 4.78125 6.6875 5.90625 7.734375 
Q 7.03125 8.796875 8.734375 8.796875 
Q 10.015625 8.796875 10.96875 8.40625 
Q 11.921875 8.015625 14.203125 6.390625 
Q 17.875 3.859375 21.625 3.859375 
Q 27.34375 3.859375 31.65625 8.171875 
Q 35.984375 12.5 35.984375 18.703125 
Q 35.984375 24.703125 32.125 29.90625 
Q 28.265625 35.109375 21.484375 37.9375 
Q 16.15625 40.140625 6.984375 40.484375 
L 19.671875 66.21875 
z
" id="TimesNewRomanPSMT-53"/>
       </defs>
       <use xlink:href="#TimesNewRomanPSMT-50"/>
       <use x="50" xlink:href="#TimesNewRomanPSMT-53"/>
      </g>
     </g>
    </g>
    <g id="ytick_3">
     <g id="line2d_8">
      <path clip-path="url(#p19aa562c90)" d="M 35.424 58.217143 
L 158.350829 58.217143 
" style="fill:none;stroke:#b0b0b0;stroke-linecap:square;stroke-width:0.8;"/>
     </g>
     <g id="line2d_9">
      <g>
       <use style="stroke:#000000;stroke-width:0.8;" x="35.424" xlink:href="#m905679cb24" y="58.217143"/>
      </g>
     </g>
     <g id="text_7">
      <!-- 50 -->
      <g transform="translate(18.424 61.689018)scale(0.1 -0.1)">
       <use xlink:href="#TimesNewRomanPSMT-53"/>
       <use x="50" xlink:href="#TimesNewRomanPSMT-48"/>
      </g>
     </g>
    </g>
    <g id="ytick_4">
     <g id="line2d_10">
      <path clip-path="url(#p19aa562c90)" d="M 35.424 31.885714 
L 158.350829 31.885714 
" style="fill:none;stroke:#b0b0b0;stroke-linecap:square;stroke-width:0.8;"/>
     </g>
     <g id="line2d_11">
      <g>
       <use style="stroke:#000000;stroke-width:0.8;" x="35.424" xlink:href="#m905679cb24" y="31.885714"/>
      </g>
     </g>
     <g id="text_8">
      <!-- 75 -->
      <g transform="translate(18.424 35.357589)scale(0.1 -0.1)">
       <defs>
        <path d="M 10.0625 66.21875 
L 45.5625 66.21875 
L 45.5625 64.359375 
L 23.484375 -1.375 
L 18.015625 -1.375 
L 37.796875 58.25 
L 19.578125 58.25 
Q 14.0625 58.25 11.71875 56.9375 
Q 7.625 54.6875 5.125 50 
L 3.71875 50.53125 
z
" id="TimesNewRomanPSMT-55"/>
       </defs>
       <use xlink:href="#TimesNewRomanPSMT-55"/>
       <use x="50" xlink:href="#TimesNewRomanPSMT-53"/>
      </g>
     </g>
    </g>
    <g id="ytick_5">
     <g id="line2d_12">
      <path clip-path="url(#p19aa562c90)" d="M 35.424 5.554286 
L 158.350829 5.554286 
" style="fill:none;stroke:#b0b0b0;stroke-linecap:square;stroke-width:0.8;"/>
     </g>
     <g id="line2d_13">
      <g>
       <use style="stroke:#000000;stroke-width:0.8;" x="35.424" xlink:href="#m905679cb24" y="5.554286"/>
      </g>
     </g>
     <g id="text_9">
      <!-- 100 -->
      <g transform="translate(13.424 9.026161)scale(0.1 -0.1)">
       <use xlink:href="#TimesNewRomanPSMT-49"/>
       <use x="50" xlink:href="#TimesNewRomanPSMT-48"/>
       <use x="100" xlink:href="#TimesNewRomanPSMT-48"/>
      </g>
     </g>
    </g>
    <g id="text_10">
     <!-- Average catches per run -->
     <g transform="translate(7.374078 101.258219)rotate(-90)scale(0.095 -0.095)">
      <defs>
       <path d="M 45.75 22.171875 
L 20.125 22.171875 
L 15.625 11.71875 
Q 13.96875 7.859375 13.96875 5.953125 
Q 13.96875 4.4375 15.40625 3.296875 
Q 16.84375 2.15625 21.625 1.8125 
L 21.625 0 
L 0.78125 0 
L 0.78125 1.8125 
Q 4.9375 2.546875 6.15625 3.71875 
Q 8.640625 6.0625 11.671875 13.234375 
L 34.96875 67.71875 
L 36.671875 67.71875 
L 59.71875 12.640625 
Q 62.5 6 64.765625 4.015625 
Q 67.046875 2.046875 71.09375 1.8125 
L 71.09375 0 
L 44.96875 0 
L 44.96875 1.8125 
Q 48.921875 2 50.3125 3.125 
Q 51.703125 4.25 51.703125 5.859375 
Q 51.703125 8.015625 49.75 12.640625 
z
M 44.390625 25.78125 
L 33.15625 52.546875 
L 21.625 25.78125 
z
" id="TimesNewRomanPSMT-65"/>
       <path d="M 0.828125 44.734375 
L 21.875 44.734375 
L 21.875 42.921875 
L 20.515625 42.921875 
Q 18.609375 42.921875 17.609375 41.984375 
Q 16.609375 41.0625 16.609375 39.5 
Q 16.609375 37.796875 17.625 35.453125 
L 28.03125 10.75 
L 38.484375 36.375 
Q 39.59375 39.109375 39.59375 40.53125 
Q 39.59375 41.21875 39.203125 41.65625 
Q 38.671875 42.390625 37.84375 42.65625 
Q 37.015625 42.921875 34.46875 42.921875 
L 34.46875 44.734375 
L 49.078125 44.734375 
L 49.078125 42.921875 
Q 46.53125 42.71875 45.5625 41.890625 
Q 43.84375 40.4375 42.484375 37.015625 
L 26.609375 -1.375 
L 24.609375 -1.375 
L 8.640625 36.375 
Q 7.5625 39.015625 6.578125 40.15625 
Q 5.609375 41.3125 4.109375 42.09375 
Q 3.265625 42.53125 0.828125 42.921875 
z
" id="TimesNewRomanPSMT-118"/>
       <path d="M 15.09375 16.3125 
Q 10.984375 18.3125 8.78125 21.890625 
Q 6.59375 25.484375 6.59375 29.828125 
Q 6.59375 36.46875 11.59375 41.25 
Q 16.609375 46.046875 24.421875 46.046875 
Q 30.8125 46.046875 35.5 42.921875 
L 44.96875 42.921875 
Q 47.078125 42.921875 47.40625 42.796875 
Q 47.75 42.671875 47.90625 42.390625 
Q 48.1875 41.9375 48.1875 40.828125 
Q 48.1875 39.546875 47.953125 39.0625 
Q 47.796875 38.8125 47.4375 38.671875 
Q 47.078125 38.53125 44.96875 38.53125 
L 39.15625 38.53125 
Q 41.890625 35.015625 41.890625 29.546875 
Q 41.890625 23.296875 37.109375 18.84375 
Q 32.328125 14.40625 24.265625 14.40625 
Q 20.953125 14.40625 17.484375 15.375 
Q 15.328125 13.53125 14.5625 12.140625 
Q 13.8125 10.75 13.8125 9.765625 
Q 13.8125 8.9375 14.625 8.15625 
Q 15.4375 7.375 17.78125 7.03125 
Q 19.140625 6.84375 24.609375 6.6875 
Q 34.671875 6.453125 37.640625 6 
Q 42.1875 5.375 44.890625 2.640625 
Q 47.609375 -0.09375 47.609375 -4.109375 
Q 47.609375 -9.625 42.4375 -14.453125 
Q 34.8125 -21.578125 22.5625 -21.578125 
Q 13.140625 -21.578125 6.640625 -17.328125 
Q 2.984375 -14.890625 2.984375 -12.25 
Q 2.984375 -11.078125 3.515625 -9.90625 
Q 4.34375 -8.109375 6.9375 -4.890625 
Q 7.28125 -4.4375 11.921875 0.390625 
Q 9.375 1.90625 8.328125 3.09375 
Q 7.28125 4.296875 7.28125 5.8125 
Q 7.28125 7.515625 8.671875 9.8125 
Q 10.0625 12.109375 15.09375 16.3125 
z
M 23.578125 43.703125 
Q 19.96875 43.703125 17.53125 40.8125 
Q 15.09375 37.9375 15.09375 31.984375 
Q 15.09375 24.265625 18.40625 20.015625 
Q 20.953125 16.796875 24.859375 16.796875 
Q 28.5625 16.796875 30.953125 19.578125 
Q 33.34375 22.359375 33.34375 28.328125 
Q 33.34375 36.078125 29.984375 40.484375 
Q 27.484375 43.703125 23.578125 43.703125 
z
M 14.59375 0 
Q 12.3125 -2.484375 11.140625 -4.625 
Q 9.96875 -6.78125 9.96875 -8.59375 
Q 9.96875 -10.9375 12.796875 -12.703125 
Q 17.671875 -15.71875 26.90625 -15.71875 
Q 35.6875 -15.71875 39.859375 -12.609375 
Q 44.046875 -9.515625 44.046875 -6 
Q 44.046875 -3.46875 41.546875 -2.390625 
Q 39.015625 -1.3125 31.5 -1.125 
Q 20.515625 -0.828125 14.59375 0 
z
" id="TimesNewRomanPSMT-103"/>
       <path d="M 16.265625 69.4375 
L 16.265625 36.71875 
Q 21.6875 42.671875 24.859375 44.359375 
Q 28.03125 46.046875 31.203125 46.046875 
Q 35.015625 46.046875 37.75 43.9375 
Q 40.484375 41.84375 41.796875 37.359375 
Q 42.71875 34.234375 42.71875 25.921875 
L 42.71875 10.109375 
Q 42.71875 5.859375 43.40625 4.296875 
Q 43.890625 3.125 45.0625 2.4375 
Q 46.234375 1.765625 49.359375 1.765625 
L 49.359375 0 
L 27.390625 0 
L 27.390625 1.765625 
L 28.421875 1.765625 
Q 31.546875 1.765625 32.765625 2.703125 
Q 33.984375 3.65625 34.46875 5.515625 
Q 34.625 6.296875 34.625 10.109375 
L 34.625 25.921875 
Q 34.625 33.25 33.859375 35.546875 
Q 33.109375 37.84375 31.4375 38.984375 
Q 29.78125 40.140625 27.4375 40.140625 
Q 25.046875 40.140625 22.453125 38.859375 
Q 19.875 37.59375 16.265625 33.734375 
L 16.265625 10.109375 
Q 16.265625 5.515625 16.765625 4.390625 
Q 17.28125 3.265625 18.671875 2.515625 
Q 20.0625 1.765625 23.484375 1.765625 
L 23.484375 0 
L 1.3125 0 
L 1.3125 1.765625 
Q 4.296875 1.765625 6 2.6875 
Q 6.984375 3.171875 7.5625 4.53125 
Q 8.15625 5.90625 8.15625 10.109375 
L 8.15625 50.59375 
Q 8.15625 58.25 7.78125 60 
Q 7.421875 61.765625 6.65625 62.390625 
Q 5.90625 63.03125 4.640625 63.03125 
Q 3.609375 63.03125 1.3125 62.25 
L 0.640625 63.96875 
L 14.015625 69.4375 
z
" id="TimesNewRomanPSMT-104"/>
       <path d="M 42.328125 44.734375 
L 42.328125 17.625 
Q 42.328125 9.859375 42.6875 8.125 
Q 43.0625 6.390625 43.859375 5.703125 
Q 44.671875 5.03125 45.75 5.03125 
Q 47.265625 5.03125 49.171875 5.859375 
L 49.859375 4.15625 
L 36.46875 -1.375 
L 34.28125 -1.375 
L 34.28125 8.109375 
Q 28.515625 1.859375 25.484375 0.234375 
Q 22.46875 -1.375 19.09375 -1.375 
Q 15.328125 -1.375 12.5625 0.796875 
Q 9.8125 2.984375 8.734375 6.390625 
Q 7.671875 9.8125 7.671875 16.0625 
L 7.671875 36.03125 
Q 7.671875 39.203125 6.984375 40.421875 
Q 6.296875 41.65625 4.953125 42.3125 
Q 3.609375 42.96875 0.09375 42.921875 
L 0.09375 44.734375 
L 15.765625 44.734375 
L 15.765625 14.796875 
Q 15.765625 8.546875 17.9375 6.59375 
Q 20.125 4.640625 23.1875 4.640625 
Q 25.296875 4.640625 27.953125 5.953125 
Q 30.609375 7.28125 34.28125 10.984375 
L 34.28125 36.328125 
Q 34.28125 40.140625 32.890625 41.484375 
Q 31.5 42.828125 27.09375 42.921875 
L 27.09375 44.734375 
z
" id="TimesNewRomanPSMT-117"/>
      </defs>
      <use xlink:href="#TimesNewRomanPSMT-65"/>
      <use x="64.841797" xlink:href="#TimesNewRomanPSMT-118"/>
      <use x="114.841797" xlink:href="#TimesNewRomanPSMT-101"/>
      <use x="159.226562" xlink:href="#TimesNewRomanPSMT-114"/>
      <use x="192.527344" xlink:href="#TimesNewRomanPSMT-97"/>
      <use x="236.912109" xlink:href="#TimesNewRomanPSMT-103"/>
      <use x="286.912109" xlink:href="#TimesNewRomanPSMT-101"/>
      <use x="331.296875" xlink:href="#TimesNewRomanPSMT-32"/>
      <use x="356.296875" xlink:href="#TimesNewRomanPSMT-99"/>
      <use x="400.681641" xlink:href="#TimesNewRomanPSMT-97"/>
      <use x="445.066406" xlink:href="#TimesNewRomanPSMT-116"/>
      <use x="472.849609" xlink:href="#TimesNewRomanPSMT-99"/>
      <use x="517.234375" xlink:href="#TimesNewRomanPSMT-104"/>
      <use x="567.234375" xlink:href="#TimesNewRomanPSMT-101"/>
      <use x="611.619141" xlink:href="#TimesNewRomanPSMT-115"/>
      <use x="650.535156" xlink:href="#TimesNewRomanPSMT-32"/>
      <use x="675.535156" xlink:href="#TimesNewRomanPSMT-112"/>
      <use x="725.535156" xlink:href="#TimesNewRomanPSMT-101"/>
      <use x="769.919922" xlink:href="#TimesNewRomanPSMT-114"/>
      <use x="803.220703" xlink:href="#TimesNewRomanPSMT-32"/>
      <use x="828.220703" xlink:href="#TimesNewRomanPSMT-114"/>
      <use x="861.521484" xlink:href="#TimesNewRomanPSMT-117"/>
      <use x="911.521484" xlink:href="#TimesNewRomanPSMT-110"/>
     </g>
    </g>
   </g>
   <g id="patch_3">
    <path clip-path="url(#p19aa562c90)" d="M 41.011583 110.88 
L 52.029353 110.88 
L 52.029353 110.88 
L 41.011583 110.88 
z
" style="fill:#9ecae1;"/>
   </g>
   <g id="patch_4">
    <path clip-path="url(#p19aa562c90)" d="M 80.36076 110.88 
L 91.37853 110.88 
L 91.37853 110.700946 
L 80.36076 110.700946 
z
" style="fill:#9ecae1;"/>
   </g>
   <g id="patch_5">
    <path clip-path="url(#p19aa562c90)" d="M 119.709937 110.88 
L 130.727707 110.88 
L 130.727707 42.523611 
L 119.709937 42.523611 
z
" style="fill:#9ecae1;"/>
   </g>
   <g id="patch_6">
    <path clip-path="url(#p19aa562c90)" d="M 119.709937 110.88 
L 130.727707 110.88 
L 130.727707 110.88 
L 119.709937 110.88 
z
" style="fill:#9ecae1;"/>
   </g>
   <g id="patch_7">
    <path clip-path="url(#p19aa562c90)" d="M 119.709937 110.88 
L 130.727707 110.88 
L 130.727707 110.88 
L 119.709937 110.88 
z
" style="fill:#9ecae1;"/>
   </g>
   <g id="patch_8">
    <path clip-path="url(#p19aa562c90)" d="M 119.709937 110.88 
L 130.727707 110.88 
L 130.727707 49.791086 
L 119.709937 49.791086 
z
" style="fill:#9ecae1;"/>
   </g>
   <g id="patch_9">
    <path clip-path="url(#p19aa562c90)" d="M 52.029353 110.88 
L 63.047122 110.88 
L 63.047122 110.690414 
L 52.029353 110.690414 
z
" style="fill:#6baed6;"/>
   </g>
   <g id="patch_10">
    <path clip-path="url(#p19aa562c90)" d="M 91.37853 110.88 
L 102.396299 110.88 
L 102.396299 107.130405 
L 91.37853 107.130405 
z
" style="fill:#6baed6;"/>
   </g>
   <g id="patch_11">
    <path clip-path="url(#p19aa562c90)" d="M 130.727707 110.88 
L 141.745477 110.88 
L 141.745477 5.554286 
L 130.727707 5.554286 
z
" style="fill:#6baed6;"/>
   </g>
   <g id="patch_12">
    <path clip-path="url(#p19aa562c90)" d="M 130.727707 110.88 
L 141.745477 110.88 
L 141.745477 110.88 
L 130.727707 110.88 
z
" style="fill:#6baed6;"/>
   </g>
   <g id="patch_13">
    <path clip-path="url(#p19aa562c90)" d="M 130.727707 110.88 
L 141.745477 110.88 
L 141.745477 95.376055 
L 130.727707 95.376055 
z
" style="fill:#6baed6;"/>
   </g>
   <g id="patch_14">
    <path clip-path="url(#p19aa562c90)" d="M 130.727707 110.88 
L 141.745477 110.88 
L 141.745477 5.901861 
L 130.727707 5.901861 
z
" style="fill:#6baed6;"/>
   </g>
   <g id="patch_15">
    <path clip-path="url(#p19aa562c90)" d="M 63.047122 110.88 
L 74.064892 110.88 
L 74.064892 109.647689 
L 63.047122 109.647689 
z
" style="fill:#3182bd;"/>
   </g>
   <g id="patch_16">
    <path clip-path="url(#p19aa562c90)" d="M 102.396299 110.88 
L 113.414069 110.88 
L 113.414069 18.540946 
L 102.396299 18.540946 
z
" style="fill:#3182bd;"/>
   </g>
   <g id="patch_17">
    <path clip-path="url(#p19aa562c90)" d="M 141.745477 110.88 
L 152.763246 110.88 
L 152.763246 5.554286 
L 141.745477 5.554286 
z
" style="fill:#3182bd;"/>
   </g>
   <g id="patch_18">
    <path clip-path="url(#p19aa562c90)" d="M 141.745477 110.88 
L 152.763246 110.88 
L 152.763246 30.400622 
L 141.745477 30.400622 
z
" style="fill:#3182bd;"/>
   </g>
   <g id="patch_19">
    <path clip-path="url(#p19aa562c90)" d="M 141.745477 110.88 
L 152.763246 110.88 
L 152.763246 5.554286 
L 141.745477 5.554286 
z
" style="fill:#3182bd;"/>
   </g>
   <g id="patch_20">
    <path clip-path="url(#p19aa562c90)" d="M 141.745477 110.88 
L 152.763246 110.88 
L 152.763246 5.554286 
L 141.745477 5.554286 
z
" style="fill:#3182bd;"/>
   </g>
   <g id="patch_21">
    <path d="M 35.424 110.88 
L 35.424 0.288 
" style="fill:none;stroke:#000000;stroke-linecap:square;stroke-linejoin:miter;stroke-width:0.8;"/>
   </g>
   <g id="patch_22">
    <path d="M 158.350829 110.88 
L 158.350829 0.288 
" style="fill:none;stroke:#000000;stroke-linecap:square;stroke-linejoin:miter;stroke-width:0.8;"/>
   </g>
   <g id="patch_23">
    <path d="M 35.424 110.88 
L 158.350829 110.88 
" style="fill:none;stroke:#000000;stroke-linecap:square;stroke-linejoin:miter;stroke-width:0.8;"/>
   </g>
   <g id="patch_24">
    <path d="M 35.424 0.288 
L 158.350829 0.288 
" style="fill:none;stroke:#000000;stroke-linecap:square;stroke-linejoin:miter;stroke-width:0.8;"/>
   </g>
   <g id="legend_1">
    <g id="patch_25">
     <path d="M 39.615463 59.368972 
L 98.54812 59.368972 
Q 100.44812 59.368972 100.44812 57.468972 
L 100.44812 4.72616 
Q 100.44812 2.82616 98.54812 2.82616 
L 39.615463 2.82616 
Q 37.715463 2.82616 37.715463 4.72616 
L 37.715463 57.468972 
Q 37.715463 59.368972 39.615463 59.368972 
z
" style="fill:#ffffff;opacity:0.8;stroke:#cccccc;stroke-linejoin:miter;"/>
    </g>
    <g id="text_11">
     <!-- Carry distance -->
     <g transform="translate(41.515463 13.222722)scale(0.095 -0.095)">
      <defs>
       <path d="M 60.203125 67.71875 
L 61.71875 45.21875 
L 60.203125 45.21875 
Q 57.171875 55.328125 51.5625 59.765625 
Q 45.953125 64.203125 38.09375 64.203125 
Q 31.5 64.203125 26.171875 60.859375 
Q 20.84375 57.515625 17.796875 50.1875 
Q 14.75 42.875 14.75 31.984375 
Q 14.75 23 17.625 16.40625 
Q 20.515625 9.8125 26.296875 6.296875 
Q 32.078125 2.78125 39.5 2.78125 
Q 45.953125 2.78125 50.875 5.53125 
Q 55.8125 8.296875 61.71875 16.5 
L 63.234375 15.53125 
Q 58.25 6.6875 51.609375 2.578125 
Q 44.96875 -1.515625 35.84375 -1.515625 
Q 19.390625 -1.515625 10.359375 10.6875 
Q 3.609375 19.78125 3.609375 32.078125 
Q 3.609375 42 8.046875 50.296875 
Q 12.5 58.59375 20.28125 63.15625 
Q 28.078125 67.71875 37.3125 67.71875 
Q 44.484375 67.71875 51.46875 64.203125 
Q 53.515625 63.140625 54.390625 63.140625 
Q 55.71875 63.140625 56.6875 64.0625 
Q 57.953125 65.375 58.5 67.71875 
z
" id="TimesNewRomanPSMT-67"/>
       <path d="M 0.59375 44.734375 
L 21.4375 44.734375 
L 21.4375 42.921875 
L 20.40625 42.921875 
Q 18.21875 42.921875 17.109375 41.96875 
Q 16.015625 41.015625 16.015625 39.59375 
Q 16.015625 37.703125 17.625 34.328125 
L 28.515625 11.765625 
L 38.53125 36.46875 
Q 39.359375 38.484375 39.359375 40.4375 
Q 39.359375 41.3125 39.015625 41.75 
Q 38.625 42.28125 37.796875 42.59375 
Q 36.96875 42.921875 34.859375 42.921875 
L 34.859375 44.734375 
L 49.421875 44.734375 
L 49.421875 42.921875 
Q 47.609375 42.71875 46.625 42.125 
Q 45.65625 41.546875 44.484375 39.9375 
Q 44.046875 39.265625 42.828125 36.1875 
L 24.609375 -8.453125 
Q 21.96875 -14.9375 17.6875 -18.25 
Q 13.421875 -21.578125 9.46875 -21.578125 
Q 6.59375 -21.578125 4.734375 -19.921875 
Q 2.875 -18.265625 2.875 -16.109375 
Q 2.875 -14.0625 4.21875 -12.8125 
Q 5.5625 -11.578125 7.90625 -11.578125 
Q 9.515625 -11.578125 12.3125 -12.640625 
Q 14.265625 -13.375 14.75 -13.375 
Q 16.21875 -13.375 17.9375 -11.859375 
Q 19.671875 -10.359375 21.4375 -6 
L 24.609375 1.765625 
L 8.546875 35.5 
Q 7.8125 37.015625 6.203125 39.265625 
Q 4.984375 40.96875 4.203125 41.546875 
Q 3.078125 42.328125 0.59375 42.921875 
z
" id="TimesNewRomanPSMT-121"/>
       <path d="M 34.71875 5.03125 
Q 31.453125 1.609375 28.328125 0.109375 
Q 25.203125 -1.375 21.578125 -1.375 
Q 14.265625 -1.375 8.796875 4.75 
Q 3.328125 10.890625 3.328125 20.515625 
Q 3.328125 30.125 9.375 38.109375 
Q 15.4375 46.09375 24.953125 46.09375 
Q 30.859375 46.09375 34.71875 42.328125 
L 34.71875 50.59375 
Q 34.71875 58.25 34.34375 60 
Q 33.984375 61.765625 33.203125 62.390625 
Q 32.421875 63.03125 31.25 63.03125 
Q 29.984375 63.03125 27.875 62.25 
L 27.25 63.96875 
L 40.578125 69.4375 
L 42.78125 69.4375 
L 42.78125 17.71875 
Q 42.78125 9.859375 43.140625 8.125 
Q 43.5 6.390625 44.3125 5.703125 
Q 45.125 5.03125 46.1875 5.03125 
Q 47.515625 5.03125 49.703125 5.859375 
L 50.25 4.15625 
L 36.96875 -1.375 
L 34.71875 -1.375 
z
M 34.71875 8.453125 
L 34.71875 31.5 
Q 34.421875 34.8125 32.953125 37.546875 
Q 31.5 40.28125 29.078125 41.671875 
Q 26.65625 43.0625 24.359375 43.0625 
Q 20.0625 43.0625 16.703125 39.203125 
Q 12.25 34.125 12.25 24.359375 
Q 12.25 14.5 16.546875 9.25 
Q 20.84375 4 26.125 4 
Q 30.5625 4 34.71875 8.453125 
z
" id="TimesNewRomanPSMT-100"/>
      </defs>
      <use xlink:href="#TimesNewRomanPSMT-67"/>
      <use x="66.699219" xlink:href="#TimesNewRomanPSMT-97"/>
      <use x="111.083984" xlink:href="#TimesNewRomanPSMT-114"/>
      <use x="144.384766" xlink:href="#TimesNewRomanPSMT-114"/>
      <use x="177.685547" xlink:href="#TimesNewRomanPSMT-121"/>
      <use x="227.685547" xlink:href="#TimesNewRomanPSMT-32"/>
      <use x="252.685547" xlink:href="#TimesNewRomanPSMT-100"/>
      <use x="302.685547" xlink:href="#TimesNewRomanPSMT-105"/>
      <use x="330.46875" xlink:href="#TimesNewRomanPSMT-115"/>
      <use x="369.384766" xlink:href="#TimesNewRomanPSMT-116"/>
      <use x="397.167969" xlink:href="#TimesNewRomanPSMT-97"/>
      <use x="441.552734" xlink:href="#TimesNewRomanPSMT-110"/>
      <use x="491.552734" xlink:href="#TimesNewRomanPSMT-99"/>
      <use x="535.9375" xlink:href="#TimesNewRomanPSMT-101"/>
     </g>
    </g>
    <g id="patch_26">
     <path d="M 44.724682 26.672644 
L 63.724682 26.672644 
L 63.724682 20.022644 
L 44.724682 20.022644 
z
" style="fill:#9ecae1;"/>
    </g>
    <g id="text_12">
     <!-- 0.25m -->
     <g transform="translate(69.424682 26.672644)scale(0.095 -0.095)">
      <defs>
       <path d="M 12.5 9.46875 
Q 14.796875 9.46875 16.359375 7.875 
Q 17.921875 6.296875 17.921875 4.046875 
Q 17.921875 1.8125 16.328125 0.21875 
Q 14.75 -1.375 12.5 -1.375 
Q 10.25 -1.375 8.65625 0.21875 
Q 7.078125 1.8125 7.078125 4.046875 
Q 7.078125 6.34375 8.65625 7.90625 
Q 10.25 9.46875 12.5 9.46875 
z
" id="TimesNewRomanPSMT-46"/>
       <path d="M 16.40625 36.53125 
Q 21.296875 41.40625 22.171875 42.140625 
Q 24.359375 44 26.890625 45.015625 
Q 29.4375 46.046875 31.9375 46.046875 
Q 36.140625 46.046875 39.15625 43.59375 
Q 42.1875 41.15625 43.21875 36.53125 
Q 48.25 42.390625 51.703125 44.21875 
Q 55.171875 46.046875 58.84375 46.046875 
Q 62.40625 46.046875 65.15625 44.21875 
Q 67.921875 42.390625 69.53125 38.234375 
Q 70.609375 35.40625 70.609375 29.34375 
L 70.609375 10.109375 
Q 70.609375 5.90625 71.234375 4.34375 
Q 71.734375 3.265625 73.046875 2.515625 
Q 74.359375 1.765625 77.34375 1.765625 
L 77.34375 0 
L 55.28125 0 
L 55.28125 1.765625 
L 56.203125 1.765625 
Q 59.078125 1.765625 60.6875 2.875 
Q 61.8125 3.65625 62.3125 5.375 
Q 62.5 6.203125 62.5 10.109375 
L 62.5 29.34375 
Q 62.5 34.8125 61.1875 37.0625 
Q 59.28125 40.1875 55.078125 40.1875 
Q 52.484375 40.1875 49.875 38.890625 
Q 47.265625 37.59375 43.5625 34.078125 
L 43.453125 33.546875 
L 43.5625 31.453125 
L 43.5625 10.109375 
Q 43.5625 5.515625 44.0625 4.390625 
Q 44.578125 3.265625 45.984375 2.515625 
Q 47.40625 1.765625 50.828125 1.765625 
L 50.828125 0 
L 28.21875 0 
L 28.21875 1.765625 
Q 31.9375 1.765625 33.328125 2.640625 
Q 34.71875 3.515625 35.25 5.28125 
Q 35.5 6.109375 35.5 10.109375 
L 35.5 29.34375 
Q 35.5 34.8125 33.890625 37.203125 
Q 31.734375 40.328125 27.875 40.328125 
Q 25.25 40.328125 22.65625 38.921875 
Q 18.609375 36.765625 16.40625 34.078125 
L 16.40625 10.109375 
Q 16.40625 5.71875 17.015625 4.390625 
Q 17.625 3.078125 18.8125 2.421875 
Q 20.015625 1.765625 23.6875 1.765625 
L 23.6875 0 
L 1.5625 0 
L 1.5625 1.765625 
Q 4.640625 1.765625 5.859375 2.421875 
Q 7.078125 3.078125 7.703125 4.515625 
Q 8.34375 5.953125 8.34375 10.109375 
L 8.34375 27.203125 
Q 8.34375 34.578125 7.90625 36.71875 
Q 7.5625 38.328125 6.828125 38.9375 
Q 6.109375 39.546875 4.828125 39.546875 
Q 3.46875 39.546875 1.5625 38.8125 
L 0.828125 40.578125 
L 14.3125 46.046875 
L 16.40625 46.046875 
z
" id="TimesNewRomanPSMT-109"/>
      </defs>
      <use xlink:href="#TimesNewRomanPSMT-48"/>
      <use x="50" xlink:href="#TimesNewRomanPSMT-46"/>
      <use x="75" xlink:href="#TimesNewRomanPSMT-50"/>
      <use x="125" xlink:href="#TimesNewRomanPSMT-53"/>
      <use x="175" xlink:href="#TimesNewRomanPSMT-109"/>
     </g>
    </g>
    <g id="patch_27">
     <path d="M 44.724682 40.104754 
L 63.724682 40.104754 
L 63.724682 33.454754 
L 44.724682 33.454754 
z
" style="fill:#6baed6;"/>
    </g>
    <g id="text_13">
     <!-- 0.20m -->
     <g transform="translate(69.424682 40.104754)scale(0.095 -0.095)">
      <use xlink:href="#TimesNewRomanPSMT-48"/>
      <use x="50" xlink:href="#TimesNewRomanPSMT-46"/>
      <use x="75" xlink:href="#TimesNewRomanPSMT-50"/>
      <use x="125" xlink:href="#TimesNewRomanPSMT-48"/>
      <use x="175" xlink:href="#TimesNewRomanPSMT-109"/>
     </g>
    </g>
    <g id="patch_28">
     <path d="M 44.724682 53.536863 
L 63.724682 53.536863 
L 63.724682 46.886863 
L 44.724682 46.886863 
z
" style="fill:#3182bd;"/>
    </g>
    <g id="text_14">
     <!-- 0.15m -->
     <g transform="translate(69.424682 53.536863)scale(0.095 -0.095)">
      <use xlink:href="#TimesNewRomanPSMT-48"/>
      <use x="50" xlink:href="#TimesNewRomanPSMT-46"/>
      <use x="75" xlink:href="#TimesNewRomanPSMT-49"/>
      <use x="125" xlink:href="#TimesNewRomanPSMT-53"/>
      <use x="175" xlink:href="#TimesNewRomanPSMT-109"/>
     </g>
    </g>
   </g>
  </g>
  <g id="axes_2">
   <g id="patch_29">
    <path d="M 164.497171 110.88 
L 287.424 110.88 
L 287.424 0.288 
L 164.497171 0.288 
z
" style="fill:#ffffff;"/>
   </g>
   <g id="matplotlib.axis_3">
    <g id="xtick_4">
     <g id="line2d_14">
      <g>
       <use style="stroke:#000000;stroke-width:0.8;" x="186.611408" xlink:href="#m02c47d6a8a" y="110.88"/>
      </g>
     </g>
     <g id="text_15">
      <!-- 0 -->
      <g transform="translate(184.111408 124.82375)scale(0.1 -0.1)">
       <use xlink:href="#TimesNewRomanPSMT-48"/>
      </g>
     </g>
    </g>
    <g id="xtick_5">
     <g id="line2d_15">
      <g>
       <use style="stroke:#000000;stroke-width:0.8;" x="225.960585" xlink:href="#m02c47d6a8a" y="110.88"/>
      </g>
     </g>
     <g id="text_16">
      <!-- 1 -->
      <g transform="translate(223.460585 124.82375)scale(0.1 -0.1)">
       <use xlink:href="#TimesNewRomanPSMT-49"/>
      </g>
     </g>
    </g>
    <g id="xtick_6">
     <g id="line2d_16">
      <g>
       <use style="stroke:#000000;stroke-width:0.8;" x="265.309762" xlink:href="#m02c47d6a8a" y="110.88"/>
      </g>
     </g>
     <g id="text_17">
      <!-- 2 -->
      <g transform="translate(262.809762 124.82375)scale(0.1 -0.1)">
       <use xlink:href="#TimesNewRomanPSMT-50"/>
      </g>
     </g>
    </g>
    <g id="text_18">
     <!-- $N_{\mathrm{TD}}$ pre-touch-down constraints -->
     <g transform="translate(164.353085 137.897813)scale(0.095 -0.095)">
      <defs>
       <path d="M 19.671875 64.796875 
L 19.671875 8.109375 
L 31.59375 8.109375 
Q 46.6875 8.109375 53.6875 14.9375 
Q 60.6875 21.78125 60.6875 36.53125 
Q 60.6875 51.171875 53.6875 57.984375 
Q 46.6875 64.796875 31.59375 64.796875 
z
M 9.8125 72.90625 
L 30.078125 72.90625 
Q 51.265625 72.90625 61.171875 64.09375 
Q 71.09375 55.28125 71.09375 36.53125 
Q 71.09375 17.671875 61.125 8.828125 
Q 51.171875 0 30.078125 0 
L 9.8125 0 
z
" id="DejaVuSans-68"/>
       <path d="M 0.640625 44.734375 
L 19.390625 44.734375 
L 19.390625 42.921875 
Q 16.796875 42.71875 15.984375 41.984375 
Q 15.1875 41.265625 15.1875 39.890625 
Q 15.1875 38.375 16.015625 36.234375 
L 25.59375 10.5 
L 35.203125 31.453125 
L 32.671875 38.03125 
Q 31.5 40.96875 29.59375 42.09375 
Q 28.515625 42.78125 25.59375 42.921875 
L 25.59375 44.734375 
L 46.875 44.734375 
L 46.875 42.921875 
Q 43.359375 42.78125 41.890625 41.65625 
Q 40.921875 40.875 40.921875 39.15625 
Q 40.921875 38.1875 41.3125 37.15625 
L 51.46875 11.46875 
L 60.890625 36.234375 
Q 61.859375 38.875 61.859375 40.4375 
Q 61.859375 41.359375 60.90625 42.09375 
Q 59.96875 42.828125 57.171875 42.921875 
L 57.171875 44.734375 
L 71.296875 44.734375 
L 71.296875 42.921875 
Q 67.046875 42.28125 65.046875 37.15625 
L 50.09375 -1.375 
L 48.09375 -1.375 
L 36.921875 27.203125 
L 23.875 -1.375 
L 22.078125 -1.375 
L 7.71875 36.234375 
Q 6.296875 39.796875 4.921875 41.03125 
Q 3.5625 42.28125 0.640625 42.921875 
z
" id="TimesNewRomanPSMT-119"/>
      </defs>
      <use transform="translate(0 0.09375)" xlink:href="#DejaVuSans-Oblique-78"/>
      <use transform="translate(74.804688 -16.3125)scale(0.7)" xlink:href="#DejaVuSans-84"/>
      <use transform="translate(117.563477 -16.3125)scale(0.7)" xlink:href="#DejaVuSans-68"/>
      <use transform="translate(174.199219 0.09375)" xlink:href="#TimesNewRomanPSMT-32"/>
      <use transform="translate(199.199219 0.09375)" xlink:href="#TimesNewRomanPSMT-112"/>
      <use transform="translate(249.199219 0.09375)" xlink:href="#TimesNewRomanPSMT-114"/>
      <use transform="translate(282.5 0.09375)" xlink:href="#TimesNewRomanPSMT-101"/>
      <use transform="translate(326.884766 0.09375)" xlink:href="#TimesNewRomanPSMT-45"/>
      <use transform="translate(360.185547 0.09375)" xlink:href="#TimesNewRomanPSMT-116"/>
      <use transform="translate(387.96875 0.09375)" xlink:href="#TimesNewRomanPSMT-111"/>
      <use transform="translate(437.96875 0.09375)" xlink:href="#TimesNewRomanPSMT-117"/>
      <use transform="translate(487.96875 0.09375)" xlink:href="#TimesNewRomanPSMT-99"/>
      <use transform="translate(532.353516 0.09375)" xlink:href="#TimesNewRomanPSMT-104"/>
      <use transform="translate(582.353516 0.09375)" xlink:href="#TimesNewRomanPSMT-45"/>
      <use transform="translate(615.654297 0.09375)" xlink:href="#TimesNewRomanPSMT-100"/>
      <use transform="translate(665.654297 0.09375)" xlink:href="#TimesNewRomanPSMT-111"/>
      <use transform="translate(715.654297 0.09375)" xlink:href="#TimesNewRomanPSMT-119"/>
      <use transform="translate(787.871094 0.09375)" xlink:href="#TimesNewRomanPSMT-110"/>
      <use transform="translate(837.871094 0.09375)" xlink:href="#TimesNewRomanPSMT-32"/>
      <use transform="translate(862.871094 0.09375)" xlink:href="#TimesNewRomanPSMT-99"/>
      <use transform="translate(907.255859 0.09375)" xlink:href="#TimesNewRomanPSMT-111"/>
      <use transform="translate(957.255859 0.09375)" xlink:href="#TimesNewRomanPSMT-110"/>
      <use transform="translate(1007.255859 0.09375)" xlink:href="#TimesNewRomanPSMT-115"/>
      <use transform="translate(1046.171875 0.09375)" xlink:href="#TimesNewRomanPSMT-116"/>
      <use transform="translate(1073.955078 0.09375)" xlink:href="#TimesNewRomanPSMT-114"/>
      <use transform="translate(1107.255859 0.09375)" xlink:href="#TimesNewRomanPSMT-97"/>
      <use transform="translate(1151.640625 0.09375)" xlink:href="#TimesNewRomanPSMT-105"/>
      <use transform="translate(1179.423828 0.09375)" xlink:href="#TimesNewRomanPSMT-110"/>
      <use transform="translate(1229.423828 0.09375)" xlink:href="#TimesNewRomanPSMT-116"/>
      <use transform="translate(1257.207031 0.09375)" xlink:href="#TimesNewRomanPSMT-115"/>
     </g>
    </g>
   </g>
   <g id="matplotlib.axis_4">
    <g id="ytick_6">
     <g id="line2d_17">
      <path clip-path="url(#p790ffbd69a)" d="M 164.497171 110.88 
L 287.424 110.88 
" style="fill:none;stroke:#b0b0b0;stroke-linecap:square;stroke-width:0.8;"/>
     </g>
    </g>
    <g id="ytick_7">
     <g id="line2d_18">
      <path clip-path="url(#p790ffbd69a)" d="M 164.497171 84.548571 
L 287.424 84.548571 
" style="fill:none;stroke:#b0b0b0;stroke-linecap:square;stroke-width:0.8;"/>
     </g>
    </g>
    <g id="ytick_8">
     <g id="line2d_19">
      <path clip-path="url(#p790ffbd69a)" d="M 164.497171 58.217143 
L 287.424 58.217143 
" style="fill:none;stroke:#b0b0b0;stroke-linecap:square;stroke-width:0.8;"/>
     </g>
    </g>
    <g id="ytick_9">
     <g id="line2d_20">
      <path clip-path="url(#p790ffbd69a)" d="M 164.497171 31.885714 
L 287.424 31.885714 
" style="fill:none;stroke:#b0b0b0;stroke-linecap:square;stroke-width:0.8;"/>
     </g>
    </g>
    <g id="ytick_10">
     <g id="line2d_21">
      <path clip-path="url(#p790ffbd69a)" d="M 164.497171 5.554286 
L 287.424 5.554286 
" style="fill:none;stroke:#b0b0b0;stroke-linecap:square;stroke-width:0.8;"/>
     </g>
    </g>
   </g>
   <g id="patch_30">
    <path clip-path="url(#p790ffbd69a)" d="M 248.783108 110.88 
L 259.800878 110.88 
L 259.800878 110.88 
L 248.783108 110.88 
z
" style="fill:#9ecae1;"/>
   </g>
   <g id="patch_31">
    <path clip-path="url(#p790ffbd69a)" d="M 248.783108 110.88 
L 259.800878 110.88 
L 259.800878 110.700946 
L 248.783108 110.700946 
z
" style="fill:#9ecae1;"/>
   </g>
   <g id="patch_32">
    <path clip-path="url(#p790ffbd69a)" d="M 248.783108 110.88 
L 259.800878 110.88 
L 259.800878 42.523611 
L 248.783108 42.523611 
z
" style="fill:#9ecae1;"/>
   </g>
   <g id="patch_33">
    <path clip-path="url(#p790ffbd69a)" d="M 170.084754 110.88 
L 181.102523 110.88 
L 181.102523 110.88 
L 170.084754 110.88 
z
" style="fill:#9ecae1;"/>
   </g>
   <g id="patch_34">
    <path clip-path="url(#p790ffbd69a)" d="M 209.433931 110.88 
L 220.451701 110.88 
L 220.451701 110.88 
L 209.433931 110.88 
z
" style="fill:#9ecae1;"/>
   </g>
   <g id="patch_35">
    <path clip-path="url(#p790ffbd69a)" d="M 248.783108 110.88 
L 259.800878 110.88 
L 259.800878 49.791086 
L 248.783108 49.791086 
z
" style="fill:#9ecae1;"/>
   </g>
   <g id="patch_36">
    <path clip-path="url(#p790ffbd69a)" d="M 259.800878 110.88 
L 270.818647 110.88 
L 270.818647 110.690414 
L 259.800878 110.690414 
z
" style="fill:#6baed6;"/>
   </g>
   <g id="patch_37">
    <path clip-path="url(#p790ffbd69a)" d="M 259.800878 110.88 
L 270.818647 110.88 
L 270.818647 107.130405 
L 259.800878 107.130405 
z
" style="fill:#6baed6;"/>
   </g>
   <g id="patch_38">
    <path clip-path="url(#p790ffbd69a)" d="M 259.800878 110.88 
L 270.818647 110.88 
L 270.818647 5.554286 
L 259.800878 5.554286 
z
" style="fill:#6baed6;"/>
   </g>
   <g id="patch_39">
    <path clip-path="url(#p790ffbd69a)" d="M 181.102523 110.88 
L 192.120293 110.88 
L 192.120293 110.88 
L 181.102523 110.88 
z
" style="fill:#6baed6;"/>
   </g>
   <g id="patch_40">
    <path clip-path="url(#p790ffbd69a)" d="M 220.451701 110.88 
L 231.46947 110.88 
L 231.46947 95.376055 
L 220.451701 95.376055 
z
" style="fill:#6baed6;"/>
   </g>
   <g id="patch_41">
    <path clip-path="url(#p790ffbd69a)" d="M 259.800878 110.88 
L 270.818647 110.88 
L 270.818647 5.901861 
L 259.800878 5.901861 
z
" style="fill:#6baed6;"/>
   </g>
   <g id="patch_42">
    <path clip-path="url(#p790ffbd69a)" d="M 270.818647 110.88 
L 281.836417 110.88 
L 281.836417 109.647689 
L 270.818647 109.647689 
z
" style="fill:#3182bd;"/>
   </g>
   <g id="patch_43">
    <path clip-path="url(#p790ffbd69a)" d="M 270.818647 110.88 
L 281.836417 110.88 
L 281.836417 18.540946 
L 270.818647 18.540946 
z
" style="fill:#3182bd;"/>
   </g>
   <g id="patch_44">
    <path clip-path="url(#p790ffbd69a)" d="M 270.818647 110.88 
L 281.836417 110.88 
L 281.836417 5.554286 
L 270.818647 5.554286 
z
" style="fill:#3182bd;"/>
   </g>
   <g id="patch_45">
    <path clip-path="url(#p790ffbd69a)" d="M 192.120293 110.88 
L 203.138063 110.88 
L 203.138063 30.400622 
L 192.120293 30.400622 
z
" style="fill:#3182bd;"/>
   </g>
   <g id="patch_46">
    <path clip-path="url(#p790ffbd69a)" d="M 231.46947 110.88 
L 242.48724 110.88 
L 242.48724 5.554286 
L 231.46947 5.554286 
z
" style="fill:#3182bd;"/>
   </g>
   <g id="patch_47">
    <path clip-path="url(#p790ffbd69a)" d="M 270.818647 110.88 
L 281.836417 110.88 
L 281.836417 5.554286 
L 270.818647 5.554286 
z
" style="fill:#3182bd;"/>
   </g>
   <g id="patch_48">
    <path d="M 164.497171 110.88 
L 164.497171 0.288 
" style="fill:none;stroke:#000000;stroke-linecap:square;stroke-linejoin:miter;stroke-width:0.8;"/>
   </g>
   <g id="patch_49">
    <path d="M 287.424 110.88 
L 287.424 0.288 
" style="fill:none;stroke:#000000;stroke-linecap:square;stroke-linejoin:miter;stroke-width:0.8;"/>
   </g>
   <g id="patch_50">
    <path d="M 164.497171 110.88 
L 287.424 110.88 
" style="fill:none;stroke:#000000;stroke-linecap:square;stroke-linejoin:miter;stroke-width:0.8;"/>
   </g>
   <g id="patch_51">
    <path d="M 164.497171 0.288 
L 287.424 0.288 
" style="fill:none;stroke:#000000;stroke-linecap:square;stroke-linejoin:miter;stroke-width:0.8;"/>
   </g>
  </g>
 </g>
 <defs>
  <clipPath id="p19aa562c90">
   <rect height="110.592" width="122.926829" x="35.424" y="0.288"/>
  </clipPath>
  <clipPath id="p790ffbd69a">
   <rect height="110.592" width="122.926829" x="164.497171" y="0.288"/>
  </clipPath>
 </defs>
</svg>
