<?xml version="1.0" encoding="UTF-8" standalone="no"?>
<svg
   xmlns:dc="http://purl.org/dc/elements/1.1/"
   xmlns:cc="http://creativecommons.org/ns#"
   xmlns:rdf="http://www.w3.org/1999/02/22-rdf-syntax-ns#"
   xmlns:svg="http://www.w3.org/2000/svg"
   xmlns="http://www.w3.org/2000/svg"
   version="1.1"
   id="svg1086"
   xml:space="preserve"
   width="666.66669"
   height="666.66669"
   viewBox="0 0 666.66669 666.66669"><metadata
     id="metadata1092"><rdf:RDF><cc:Work
         rdf:about=""><dc:format>image/svg+xml</dc:format><dc:type
           rdf:resource="http://purl.org/dc/dcmitype/StillImage" /><dc:title></dc:title></cc:Work></rdf:RDF></metadata><defs
     id="defs1090"><clipPath
       clipPathUnits="userSpaceOnUse"
       id="clipPath1106"><path
         d="M 1245.91,4851.49 H 969.395 v 11.8 H 338.52 v -11.8 H 69.9219 v 11.8 H 1245.91 v -11.8"
         id="path1104" /></clipPath><linearGradient
       x1="0"
       y1="0"
       x2="1"
       y2="0"
       gradientUnits="userSpaceOnUse"
       gradientTransform="matrix(0,20.7567,20.7567,0,657.919,4846.43)"
       spreadMethod="pad"
       id="linearGradient1114"><stop
         style="stop-opacity:1;stop-color:#e6e7e8"
         offset="0"
         id="stop1108" /><stop
         style="stop-opacity:1;stop-color:#e6e7e8"
         offset="0.79908746"
         id="stop1110" /><stop
         style="stop-opacity:1;stop-color:#a7a9ac"
         offset="1"
         id="stop1112" /></linearGradient><clipPath
       clipPathUnits="userSpaceOnUse"
       id="clipPath1124"><path
         d="M 969.395,3639.14 653.957,3824.71 338.52,3639.14 V 4863.29 H 969.395 338.52 V 4658.11 H 969.395 V 3639.14"
         id="path1122" /></clipPath><linearGradient
       x1="0"
       y1="0"
       x2="1"
       y2="0"
       gradientUnits="userSpaceOnUse"
       gradientTransform="matrix(1e-7,1224.15,1224.15,-1e-7,653.957,3639.14)"
       spreadMethod="pad"
       id="linearGradient1132"><stop
         style="stop-opacity:1;stop-color:#ef4136"
         offset="0"
         id="stop1126" /><stop
         style="stop-opacity:1;stop-color:#f15a29"
         offset="0.49849952"
         id="stop1128" /><stop
         style="stop-opacity:1;stop-color:#f15a29"
         offset="1"
         id="stop1130" /></linearGradient><clipPath
       clipPathUnits="userSpaceOnUse"
       id="clipPath1142"><path
         d="M 969.395,4658.11 H 338.52 v 205.18 h 630.875 v -11.8 -193.38"
         id="path1140" /></clipPath></defs><g
     id="g1094"
     transform="matrix(1.3333333,0,0,-1.3333333,0,666.66667)"><g
       id="g1100"
       transform="scale(0.1)"><g
         id="g1102"
         clip-path="url(#clipPath1106)"><path
           d="M 1245.91,4851.49 H 969.395 v 11.8 H 338.52 v -11.8 H 69.9219 v 11.8 H 1245.91 v -11.8"
           style="fill:url(#linearGradient1114);fill-opacity:1;fill-rule:nonzero;stroke:none"
           id="path1116" /></g></g><g
       id="g1873"
       transform="matrix(1.7559854,0,0,1.7559854,-206.55619,-188.99655)"
       style="stroke-width:0.569481"><path
         d="m 125.508,226.328 c -4.792,-14.72 -7.393,-30.428 -7.393,-46.746 h 4.843 c 3.443,14.073 8.645,27.314 15.309,39.41 l -12.759,7.336"
         style="fill:#000000;fill-opacity:1;fill-rule:nonzero;stroke:none;stroke-width:0.0569481"
         id="path1178" /><path
         d="M 169.703,293.181 C 151.67,277.407 137.424,257.412 128.514,234.733 l 14.226,-8.178 c 11.179,17.806 25.674,32.733 42.471,43.628 l -15.508,22.998"
         style="fill:#000000;fill-opacity:1;fill-rule:nonzero;stroke:none;stroke-width:0.0569481"
         id="path1180" /><path
         d="m 250.715,289.993 c 0.117,0.004 0.234,0.009 0.352,0.009 17.176,0 33.579,-3.721 48.648,-10.454 l 28.086,38.957 -6.656,2.704 c -16.252,5.986 -33.817,9.257 -52.146,9.257 -6.343,0 -12.594,-0.397 -18.731,-1.157 l -1.986,-0.306 2.433,-39.01"
         style="fill:#000000;fill-opacity:1;fill-rule:nonzero;stroke:none;stroke-width:0.0569481"
         id="path1182" /><path
         d="m 335.953,314.791 -28.28,-39.227 3.782,-2.024 c 10.471,-6.072 20.136,-13.673 28.774,-22.54 l 47.522,21.627 c -13.841,17.642 -31.529,32.106 -51.798,42.164"
         style="fill:#000000;fill-opacity:1;fill-rule:nonzero;stroke:none;stroke-width:0.0569481"
         id="path1184" /><path
         d="m 239.569,327.572 c -23.42,-4.632 -44.895,-14.666 -63.056,-28.775 l 16.225,-24.06 c 14.932,8.288 31.44,13.467 48.872,14.859 l 0.327,0.014 -2.368,37.962"
         style="fill:#000000;fill-opacity:1;fill-rule:nonzero;stroke:none;stroke-width:0.0569481"
         id="path1186" /><path
         d="m 244.686,180.57 c -2.426,0 -4.392,1.966 -4.392,4.392 0,2.426 1.966,4.393 4.392,4.393 2.426,0 4.393,-1.967 4.393,-4.393 0,-2.426 -1.967,-4.392 -4.393,-4.392 z m 156.101,90.418 -1.412,2.039 -147.763,-74.855 c -4.264,2.08 -9.435,2.131 -13.905,-0.333 -7.298,-4.024 -9.952,-13.201 -5.929,-20.499 4.023,-7.297 13.201,-9.951 20.498,-5.928 4.908,2.706 7.703,7.744 7.792,12.973 l 141.817,84.563 -1.098,2.04"
         style="fill:#000000;fill-opacity:1;fill-rule:nonzero;stroke:none;stroke-width:0.0569481"
         id="path1188" /></g></g></svg>
